<?xml version="1.0" standalone="no"?>
<!DOCTYPE svg PUBLIC "-//W3C//DTD SVG 1.1//EN" "http://www.w3.org/Graphics/SVG/1.1/DTD/svg11.dtd" >
<svg xmlns="http://www.w3.org/2000/svg">
<metadata></metadata>
<defs>
<font id="lighthouse_personal_useRg" horiz-adv-x="2015" >
<font-face units-per-em="2048" ascent="1536" descent="-512" />
<missing-glyph horiz-adv-x="524" />
<glyph horiz-adv-x="2048" />
<glyph horiz-adv-x="2048" />
<glyph unicode="&#xd;" horiz-adv-x="1024" />
<glyph unicode=" "  horiz-adv-x="524" />
<glyph unicode="&#x09;" horiz-adv-x="524" />
<glyph unicode="&#xa0;" horiz-adv-x="524" />
<glyph unicode="!" horiz-adv-x="446" d="M-94 8q51 102 86 158.5t79 83t110.5 32t180.5 5.5q-43 -76 -75.5 -126t-60 -81t-56.5 -46.5t-65.5 -20.5t-83.5 -5h-115zM168 479q33 18 61.5 72.5t58 130.5t62.5 164t71 173t85 158.5t105.5 121t130 58.5t159.5 -28q-59 -57 -107.5 -143t-93.5 -180.5t-93 -188.5 t-109.5 -169t-141 -122t-188.5 -47z" />
<glyph unicode="&#x22;" horiz-adv-x="638" d="M141 657q43 25 70 71t51.5 99.5t51 107.5t68.5 93t103.5 57.5t157.5 -0.5q-66 -115 -115 -195.5t-101 -131.5t-119 -76t-167 -25zM451 657q43 25 69.5 71t51 99.5t51 107.5t68.5 93t103.5 57.5t157.5 -0.5q-66 -115 -115 -195.5t-101 -131.5t-118.5 -76t-166.5 -25z" />
<glyph unicode="#" horiz-adv-x="958" d="M76 219l47 100h639l-39 -100h-647zM127 59l297 748h100l-295 -748h-102zM195 555l47 100h639l-39 -100h-647zM399 59l297 748h101l-295 -748h-103z" />
<glyph unicode="$" horiz-adv-x="905" d="M29.5 462.5q9.5 108.5 55.5 191.5t129 121t196 -7q-92 -123 -130 -248t-36 -227.5t35.5 -167t82.5 -64.5q16 0 37 18.5t38.5 60.5t29.5 113t12 175q0 72 -14 162t-14 217q0 190 103 286.5t269 96.5q102 0 158.5 -46t74 -111.5t-1 -139.5t-64.5 -129t-116.5 -78.5 t-156.5 8.5q23 8 47 46t47 90.5t39 110.5t21.5 107.5t-5 82t-39.5 32.5q-16 0 -39.5 -15t-45 -56t-37 -113t-15.5 -182q0 -55 5 -99.5t11.5 -87.5t11.5 -90t5 -108q0 -86 -24.5 -158t-69.5 -122t-110.5 -78.5t-147.5 -28.5q-127 0 -206 67.5t-112 164.5t-23.5 205.5z M109 -86l116 192l62 -36l-94 -156h-84zM864 1167l97 156h81l-135 -225z" />
<glyph unicode="%" horiz-adv-x="1069" d="M5 800.5q-7 61.5 19.5 133.5t81 133t134.5 102t182 41q80 0 118 -41t39 -102t-29 -133t-84 -133.5t-129 -102.5t-163 -41q-80 0 -121 41t-48 102.5zM14 2l777 1204h102l-772 -1204h-107zM162 721q0 -37 20 -37q23 0 54.5 37t64.5 93t62.5 120.5t48 121t20.5 93.5t-18 37 q-31 0 -67 -37t-68.5 -93.5t-59 -121t-42 -120.5t-15.5 -93zM357.5 165.5q-7.5 61.5 19 133.5t81 133.5t134.5 102t182 40.5q80 0 118 -40.5t39 -102t-29 -133.5t-84 -133.5t-129 -102t-163 -40.5q-80 0 -120.5 40.5t-48 102zM514.5 86q0.5 -37 20.5 -37q23 0 54.5 37 t64 93.5t62 121t48 120.5t20.5 93t-18 37q-33 0 -67.5 -37t-67.5 -93t-59.5 -120.5t-42 -121t-15 -93.5z" />
<glyph unicode="&#x26;" horiz-adv-x="1173" d="M-26.5 290q8.5 81 63.5 156.5t157.5 136t251.5 87.5q-59 80 -59 164t56.5 152.5t169 113.5t278.5 45q111 0 180.5 -34t101 -83t25.5 -104.5t-48 -100.5t-120 -70.5t-186 -13.5q49 61 69.5 124t15.5 112t-35 80.5t-79 31.5t-86 -34.5t-53.5 -90t-6 -123t53.5 -130.5 q-84 -18 -165 -74.5t-147.5 -129.5t-112.5 -154t-57.5 -147.5t16.5 -110.5t108 -44t133 25.5t83.5 65.5t43 89.5t12.5 98.5t-11.5 91t-27.5 66q147 0 229 -36.5t105.5 -92t-7 -119t-107.5 -119t-195.5 -92t-272.5 -36.5q-133 0 -220 43t-126 109.5t-30.5 147.5zM567 477 l47 101h553l-39 -101h-561z" />
<glyph unicode="'" horiz-adv-x="313" d="M141 657q43 25 70 71t51.5 99.5t51 107.5t68.5 93t103.5 57.5t157.5 -0.5q-66 -115 -115 -195.5t-101 -131.5t-119 -76t-167 -25z" />
<glyph unicode="(" horiz-adv-x="741" d="M264 350q-10 117 18.5 244t119 253t254 244.5t425.5 219.5l17 -43q-184 -98 -321.5 -236.5t-215.5 -319t-89 -403.5t58 -491l-38 -29q-205 285 -228 561z" />
<glyph unicode=")" horiz-adv-x="851" d="M-168 -182q182 98 319.5 236.5t216 318.5t90 403t-58.5 492l39 30q205 -285 228 -561q10 -117 -19 -244.5t-119 -253.5t-254.5 -244t-425.5 -218z" />
<glyph unicode="*" horiz-adv-x="858" d="M115 399l22 47h563l-18 -47h-567zM119 217q57 78 121.5 131t156.5 53q-29 -12 -52 -45.5t-52 -67.5t-70 -57.5t-104 -13.5zM276 629q43 6 66 -2.5t34 -26.5t13 -41.5t4 -46.5t8.5 -41.5t26.5 -26.5q-47 0 -70.5 19.5t-37 48.5t-21.5 60.5t-23 56.5zM393 401 q45 0 69.5 -19.5t38 -48t21.5 -60t23 -56.5q-43 -6 -65.5 2t-34 26.5t-13.5 42t-4 46t-9.5 41t-25.5 26.5zM424 444q29 12 52.5 46t52 68t69.5 56.5t107 14.5q-59 -78 -124 -131.5t-157 -53.5z" />
<glyph unicode="+" horiz-adv-x="851" d="M115 360l47 101h536l-39 -101h-544zM242 143l233 541h109l-238 -541h-104z" />
<glyph unicode="," horiz-adv-x="446" d="M-197 -184q43 25 78 78t72 118.5t79 133t95 118.5t124 77t167 7q-66 -115 -132.5 -212t-140 -167.5t-158 -111.5t-184.5 -41z" />
<glyph unicode="-" horiz-adv-x="686" d="M115 360l47 101h401l-39 -101h-409z" />
<glyph unicode="." horiz-adv-x="446" d="M-94 8q51 102 86 158.5t79 83t110.5 32t180.5 5.5q-43 -76 -75.5 -126t-60 -81t-56.5 -46.5t-65.5 -20.5t-83.5 -5h-115z" />
<glyph unicode="/" horiz-adv-x="761" d="M0 0l760 1378h100l-758 -1378h-102z" />
<glyph unicode="0" d="M68 252l100 194l-41 160l94 21v184l105 20l-90 13l104 -10l53 8l23 22l-21 47l-137 43l139 -36l39 30l-10 47l-127 68l133 -57l45 22l-4 51l-117 84l121 -82l49 19l6 49l-106 102l109 -94l53 8l10 47l-86 115l92 -106h51l19 45l-70 125l78 -119l49 -8l27 43l-51 137 l57 -135l49 -15l33 39l-31 142l37 -138l43 -22l41 35l-8 141l18 -141l39 -29l41 29l16 141l-6 -141l37 -35l47 22l33 138l-25 -142l29 -39l49 15l58 135l-50 -137l27 -43l51 8l74 119l-68 -125l17 -45h51l96 106l-88 -115l12 -47l50 -8l108 94l-102 -102l2 -49l51 -19 l119 82l-115 -84l-4 -26l287 55v-184l149 30l-104 -196l53 -160l-276 -51l110 -37l-121 33l-34 -8l-29 -17l14 -49l129 -68l-135 60l-43 -21v-51l119 -88l-119 82l-51 -18l-2 -48l102 -104l-108 98l-50 -10l-12 -47l88 -115l-96 109h-51l-17 -47l68 -125l-74 121l-51 8 l-27 -41l50 -141l-58 135l-49 12l-29 -39l25 -141l-33 137l-47 27l-37 -35l6 -146l-16 146l-41 28l-39 -28l-18 -146l8 146l-41 35l-43 -27l-37 -137l31 141l-33 39l-49 -12l-57 -135l51 141l-27 41l-49 -8l-78 -121l70 125l-19 47h-51l-92 -109l86 115l-10 47l-53 10 l-109 -98l106 104l-2 23l-170 -35zM162 -285h31l16 -77l14 77h31l14 -77l19 77h28l-30 -106h-29l-18 78l-17 -78h-28zM221 465l127 -37l78 41l10 33zM295 543q4 -10 11 2t11 18q16 33 40 64.5t46 62.5q10 16 14.5 27.5t-5.5 19.5q-4 8 -14.5 11.5t-18.5 -11.5 q-16 -31 -34 -62.5t-30 -64.5q-4 -10 -16 -32.5t-4 -34.5zM309 670q0 -4 7.5 -3t14.5 5t12 11t3 13q-4 20 22.5 44t52 33t38 -5t-18.5 -72q-6 -10 -15 -22t-19 -21q-6 -8 -19.5 -13t-13.5 -13q-4 -6 1 -6t12 3t15.5 6t10.5 3q27 14 49 43q20 23 37.5 53.5t5.5 50.5 q-8 23 -37 21t-51 -10q-53 -23 -94 -74q-4 -10 -10.5 -24.5t-2.5 -22.5zM319 -285h29l19 -77l14 77h29l16 -77l16 77h31l-33 -106h-26l-19 78l-18 -78h-29zM324 -78q0 25 16 50.5t55 25.5h4q16 0 37 -15.5t21 -33.5h-31q0 10 -9 17t-22 7q-6 0 -17 -4t-16.5 -17t-5.5 -32 q0 -25 9.5 -36t23.5 -13h6q18 0 27.5 11.5t9.5 19.5h-37v26h62v-80h-21l-2 19q-12 -18 -26.5 -20.5t-20.5 -2.5q-14 0 -25.5 6.5t-19.5 16.5q-18 18 -18 55zM352 426l121 -37l4 51l-45 21zM420 907l20 -51l-4 -6l25 6l-21 45l47 31l-14 49l47 20l-6 52l49 16l4 51l51 8 l13 48h51l18 51l52 -6l26 43l49 -15l31 41l51 -24l33 34l43 -28l43 28l41 -34l41 24l33 -41l51 15l23 -43l55 6l16 -51h53l11 -48l53 -8v-51l51 -16v-4h17v16l-52 14l-2 54l-53 10l-10 51h-56l-20 51l-51 -8l-29 47l-49 -18l-35 43l-47 -25l-39 37l-45 -31l-45 31l-39 -37 l-49 25l-31 -43l-51 18l-25 -47l-55 8l-16 -51h-56l-12 -51l-51 -10l-6 -54l-51 -14l2 -51l-45 -23l12 -55zM455 479l45 -24l-2 -54l51 -16l6 -53l51 -10l12 -52h56l16 -47l55 8l25 -49l51 19l31 -41l49 22l39 -39l45 31l45 -31l39 39l47 -22l35 41l49 -19l29 49l51 -8 l20 47h56l10 52l53 10l2 53l52 16l-5 54l48 24l-11 49l45 31l-20 51l39 33l-27 49l25 29l-25 -4l-20 -21l28 -47l-41 -37l21 -47l-43 -30l12 -50l-47 -22l4 -51l-51 -15v-53l-53 -4l-11 -51h-53l-16 -49l-55 8l-23 -43l-51 16l-33 -41l-41 23l-41 -39l-43 31l-43 -31l-33 39 l-51 -23l-31 41l-49 -16l-26 43l-52 -8l-18 49h-51l-13 51l-51 4l-4 53l-49 15l6 51l-47 22l6 31l-18 -4zM460 619.5q-3 -21.5 7 -35t39 -4.5q23 8 44 26.5t38 40.5v2q10 10 19.5 35t17.5 33q6 -8 2 -21.5t-11.5 -29t-13.5 -29.5t-2 -27q10 -20 27.5 -6t34.5 37 q4 -25 22 -25q16 0 33.5 8.5t34.5 18.5l16 21q0 -16 9 -24.5t34 1.5q10 4 23.5 13.5t23.5 21.5q23 0 37 14q-8 -16 -8 -26.5t4 -8.5q10 2 24.5 24.5t24.5 33.5q12 18 27.5 35.5t31.5 35.5q-10 -23 -20 -44t-21 -44q-6 -25 12.5 -23.5t35.5 17.5l24 23q0 -14 12 -21 q16 -6 32 6.5t26 28.5q-2 -18 4 -23.5t15 -2t21.5 12.5t22.5 19q0 -20 13.5 -21t33.5 21q12 12 20.5 24.5t16.5 22.5q0 10 -1 16.5t-11 -3.5t-15.5 -22.5t-15.5 -22.5q-10 -14 -19 -14.5t1 16.5q10 23 25.5 47t31.5 47l72 110q6 8 2 17.5t-11.5 15.5t-15.5 7t-10 -9 q-33 -51 -62.5 -105.5t-50.5 -109.5q-4 -4 -4 -6v-4q-8 -10 -17 -22.5t-24 -20.5q-4 0 -2 6t7.5 14t10.5 15l5 8q6 8 14 21.5t2 19.5q-6 16 -15 10t-14 -10q-12 -18 -20 -39t-25 -41q-10 -12 -15 -11t-6 7t1 15t6 18q25 41 59 63q4 2 14.5 5l21 6t16.5 7.5t2 10.5 q-8 10 -34 4t-40 -12q-20 -14 -38.5 -33t-29.5 -41q0 -4 -6 -10l-30 -43q-12 -10 -17.5 -12.5t-5.5 2.5t4 13.5t8 16.5q6 6 14.5 17.5t16.5 22.5t13 22.5t3 17.5q-10 23 -35.5 1t-50.5 -52l17 24q6 12 3 17.5t-10.5 5.5t-15.5 -2t-10 -4q-4 -4 -13 -25.5t-18 -44.5 q-10 -8 -15 -16.5t-17 -14.5q14 18 21 39t5 36t-13 21.5t-32 -1.5q-20 -10 -41.5 -36t-34.5 -50q-10 -10 -19 -26.5t-15 -21.5q12 20 16 38t4 34q-4 14 -3 30.5t-7 24.5q-8 12 -20.5 -6t-18.5 -28q-18 -29 -35.5 -62t-42.5 -55q-10 -8 -13 -8t-2 5t4 12t5 11q4 4 9 10.5 t9 14.5q6 8 11 18q6 12 -0.5 17.5t-14.5 9.5t-13 9t1 18q10 16 1 15t-17 -15q-2 -10 -6.5 -17.5t-8.5 -15.5l-22 -47q-2 0 -2 -2q-2 -2 -2 -4q-4 -4 -11.5 -14.5t-11.5 -16.5q-6 -4 -15.5 -13.5t-19.5 -15.5t-19 -9t-14 5q-2 8 1.5 16.5t7.5 16.5q10 0 22 4t15 6q2 4 2 0 q8 6 19 16.5t19.5 22.5t12.5 24.5t0 20.5q-10 16 -36 6t-42 -26q-20 -16 -33.5 -41t-16.5 -46.5zM475 -94q0 23 11.5 38t39.5 15q29 0 39 -18.5t10 -38.5v-8h-73q0 -8 6 -16.5t20 -8.5q8 0 13.5 5t5.5 7h28q-4 -16 -18 -25.5t-29 -9.5q-53 0 -53 60zM475 -285h31l16 -77 l15 77h30l15 -77l16 77h31l-33 -106h-27l-16 78l-18 -78h-29zM506 -86h43q-6 23 -23 23q-18 0 -20 -23zM506 649q2 6 10 18.5t17.5 25t18.5 20.5t15 4q10 -8 4 -18.5t-18 -20.5t-26.5 -18.5t-20.5 -10.5zM584 -43h14v29h31v-29h16v-20h-16v-58q0 -8 1 -9t9 -1l6 2v-23h-16 q-18 0 -24.5 4.5t-6.5 18.5v66h-14v20zM606 885l678 129q-57 59 -133 94t-166 35q-66 0 -124 -19.5t-108.5 -53.5t-88 -81t-58.5 -104zM625 543q51 -98 147 -159.5t213 -61.5q80 0 150.5 28.5t124 77.5t88 116.5t45.5 145.5zM629 -362h28v-29h-28v29zM684 -285h27v-16 q8 20 30 20q20 0 31 -18q6 18 27 18q14 0 22 -8q4 -4 9.5 -10t5.5 -18v-74h-25v63q0 20 -18 21q-18 0 -19 -21v-63h-29v74q0 4 -3 7t-13 3q-18 0 -18 -19v-65h-27v106zM686 639q0 6 3 13t9 7q8 0 10.5 6.5t2.5 12.5t-4.5 12t-8.5 6q4 8 11.5 16.5t15.5 20.5q8 -12 5 -38 t-19 -46q-14 -16 -19.5 -16t-5.5 6zM707 -43h14v8q0 29 31 29h16v-21h-8l-8 -2v-14h16v-20h-16v-89h-31v89h-14v20zM784 -43h27v-68q0 -18 20 -18h11q10 8 12 23v63h27v-109h-27v17q-8 -10 -18.5 -14.5t-14.5 -4.5q-37 0 -37 39v72zM784 670q0 4 2 8t5 12q2 4 5 9.5t3 7.5 q2 8 7 14t7 16q-2 -20 0 -36.5t18 -22.5q-12 -10 -29.5 -20.5t-17.5 12.5zM828.5 728q2.5 26 23.5 42q14 8 15 0t-3 -22.5t-11 -30t-11 -21.5q-16 6 -13.5 32zM854 -365q0 31 33 35l24 4q8 2 9 9q0 12 -17 12q-16 0 -16 -14h-29q0 14 6 22t17 12q10 4 22 4q27 0 36 -10 t9 -20v-60q0 -10 2 -12q0 -4 4 -4v-4h-28l-2 2v2q-2 0 -2 8l-21 -12q0 -2 -12 -2q-35 0 -35 28zM883 -362q0 -10 14 -11h4l6 2l8 4q4 4 5 13v14q-4 -4 -9 -4l-14 -2l-10 -6q-4 -4 -4 -10zM907 -6h27v-146h-27v146zM926 711q4 12 13 23t17 22zM956 -6h27v-146h-27v146z M963 -285h28l19 -77l14 77h29l16 -77l18 77h27l-29 -106h-30l-17 78l-16 -78h-31zM1055 -43h14v8q0 29 33 29h12v-21h-6q-6 0 -6 -1t-4 -5v-10h20v-20h-20v-89h-29v89h-14v20zM1128 -98q0 23 12.5 40t41.5 17q18 0 25.5 -4t13.5 -10q8 -12 11 -20.5t3 -22.5 q0 -23 -13.5 -39.5t-39.5 -16.5q-23 0 -38.5 13.5t-15.5 42.5zM1128 -285h29v-16q10 20 31 20q12 0 20 -6q10 -4 14.5 -14t4.5 -16v-74h-29v63q0 14 -4 17.5t-14 3.5q-12 0 -16.5 -7.5t-4.5 -17.5v-59h-31v106zM1155 -98q0 -10 4 -20.5t23 -10.5q16 0 20 10q4 4 4 21 q0 33 -24 32q-14 0 -20.5 -10t-6.5 -22zM1247 -363.5q0 7.5 27 7.5q0 -14 24 -15q16 0 17 9q0 6 -10 8l-25 6q-14 4 -22.5 10t-8.5 21q0 6 8.5 21t34.5 15q35 0 45 -20l4 -16h-30q0 6 -2 9t-15 3q-16 0 -16 -8q0 -6 8 -9l25 -6q14 -4 24 -10q8 -4 8 -18q0 -37 -47 -37h-10 q-16 0 -24.5 5t-11.5 11t-3 13.5zM1255 -43h27v-14q12 16 33 16q12 0 20 -4l13 -10q6 -12 6 -21v-76h-29v66q0 6 -2 13t-16 7q-12 0 -16.5 -4t-4.5 -20v-62h-31v109zM1343.5 796.5q-8.5 -32.5 2.5 -53.5q6 -12 17 -9t22.5 13.5t21.5 23.5t14 22q-2 -14 -2 -33t23 -6 q12 4 23.5 16t21.5 27q4 -20 18 -21q16 0 33.5 9.5t34.5 19.5l26 26q0 -18 11.5 -27t34.5 -3q47 18 77 67q0 2 3.5 8.5t4.5 11.5t0 7t-10 -4q-8 -4 -13 -14.5t-11 -20.5q-6 -6 -16.5 -14t-20.5 -15.5t-19.5 -9.5t-13.5 6q-2 8 1 15.5t5 17.5q10 0 27.5 6t13.5 6 q10 4 21.5 14.5t19.5 23t11.5 23.5t-3.5 19q-10 16 -34.5 6t-40.5 -26q-16 -12 -25.5 -29.5t-19.5 -36.5q-6 -10 -15.5 -25.5t-17.5 -19.5q27 37 20 74q-2 12 0 28.5t-6 24.5q-6 6 -11 4t-11.5 -9t-11.5 -15.5t-7 -12.5l-43 -67q-14 -16 -23.5 -36t-29.5 -34q-8 -6 -6 1 t7 18.5t11 21.5t6 12l52 97q8 14 21 34.5t9 34.5q-4 4 -16.5 11t-20.5 -9q-12 -25 -26.5 -52.5t-24.5 -55.5q-12 -29 -28.5 -61.5t-40.5 -57.5q-14 -16 -16.5 -10t0.5 19.5t8 29.5t8 20q12 31 27.5 62t35.5 59q8 10 7 20.5t-7 16.5t-14 5t-17 -15q-16 -29 -31.5 -60.5 t-27.5 -60.5q-10 -25 -18.5 -57.5zM1366 -43h18v29h25v-29h18v-20h-18v-58q0 -8 4 -9t8 -1l6 2v-23h-18q-25 0 -25 11v78h-18v20zM1366 -362h29v-29h-29v29zM1415 -340q0 23 10.5 41t36.5 18q23 0 36 -12t13 -31h-28q0 4 -3.5 10.5t-15.5 6.5t-16 -9.5t-4 -19.5q0 -23 3 -29 t17 -6q18 0 19 19h28q0 -6 -8 -23.5t-41 -17.5q-23 0 -35 11t-12 42zM1493 -121q0 18 10 23.5t21 9.5l26 4q10 0 11 8q0 12 -17 13q-6 0 -12 -2.5t-8 -14.5h-27q4 12 8 25.5t25 13.5h14q18 0 28.5 -5t12.5 -10t2 -12v-73q0 -4 8 -4v-7h-32v2v5q0 2 -1 4t-1 4 q-4 -6 -10.5 -10.5t-8.5 -4.5l-8 -2h-8t-19.5 7.5t-13.5 25.5zM1508 801q-1 4 2 11t12 9q16 2 12 18.5t-12 16.5l24 37q10 -14 7 -39t-21 -43q-10 -12 -16.5 -13t-7.5 3zM1522 -121q0 -12 14 -12h8q8 2 12.5 10t4.5 10v15q-6 -4 -13 -4l-12 -4q-4 0 -9 -4.5t-5 -10.5z M1524 -340q0 39 20.5 49t36.5 10q10 0 18.5 -4t22.5 -10q4 -6 8 -16.5t4 -28.5q0 -23 -13 -38t-40 -15q-35 0 -46 18.5t-11 34.5zM1554 -340q0 -12 5.5 -21.5t21.5 -9.5q14 1 18 11q4 4 4.5 10t0.5 10q0 18 -4.5 25.5t-18.5 7.5q-18 0 -22.5 -9.5t-4.5 -23.5zM1559 602 l4 -10l53 43l-21 2zM1569 690l26 -47l29 -2l117 92l-139 -4zM1602 -43h12v29h28v-29h21v-20h-21v-58q0 -10 13 -10l8 2v-23h-21q-16 0 -22 7.5t-6 15.5v66h-12v20zM1638 737l103 -4l41 31zM1645 870q2 6 9 18.5t16 25t18.5 19.5t15.5 3t3 -12.5t-10 -17.5t-15.5 -16 t-12.5 -9l-2 -2zM1655 -285h26v-16q10 20 31 20q12 0 18.5 -6t10.5 -12q2 4 10 11t21 7q10 0 19 -6t11 -14q6 -6 6 -16v-74h-28v63q0 20 -17 21q-18 0 -18 -21v-63h-27v63q0 8 -3 14.5t-13 6.5q-20 0 -21 -19v-65h-26v106z" />
<glyph unicode="1" d="M68 252l100 194l-41 160l94 21v184l105 20l-90 13l104 -10l53 8l23 22l-21 47l-137 43l139 -36l39 30l-10 47l-127 68l133 -57l45 22l-4 51l-117 84l121 -82l49 19l6 49l-106 102l109 -94l53 8l10 47l-86 115l92 -106h51l19 45l-70 125l78 -119l49 -8l27 43l-51 137 l57 -135l49 -15l33 39l-31 142l37 -138l43 -22l41 35l-8 141l18 -141l39 -29l41 29l16 141l-6 -141l37 -35l47 22l33 138l-25 -142l29 -39l49 15l58 135l-50 -137l27 -43l51 8l74 119l-68 -125l17 -45h51l96 106l-88 -115l12 -47l50 -8l108 94l-102 -102l2 -49l51 -19 l119 82l-115 -84l-4 -26l287 55v-184l149 30l-104 -196l53 -160l-276 -51l110 -37l-121 33l-34 -8l-29 -17l14 -49l129 -68l-135 60l-43 -21v-51l119 -88l-119 82l-51 -18l-2 -48l102 -104l-108 98l-50 -10l-12 -47l88 -115l-96 109h-51l-17 -47l68 -125l-74 121l-51 8 l-27 -41l50 -141l-58 135l-49 12l-29 -39l25 -141l-33 137l-47 27l-37 -35l6 -146l-16 146l-41 28l-39 -28l-18 -146l8 146l-41 35l-43 -27l-37 -137l31 141l-33 39l-49 -12l-57 -135l51 141l-27 41l-49 -8l-78 -121l70 125l-19 47h-51l-92 -109l86 115l-10 47l-53 10 l-109 -98l106 104l-2 23l-170 -35zM162 -285h31l16 -77l14 77h31l14 -77l19 77h28l-30 -106h-29l-18 78l-17 -78h-28zM221 465l127 -37l78 41l10 33zM295 543q4 -10 11 2t11 18q16 33 40 64.5t46 62.5q10 16 14.5 27.5t-5.5 19.5q-4 8 -14.5 11.5t-18.5 -11.5 q-16 -31 -34 -62.5t-30 -64.5q-4 -10 -16 -32.5t-4 -34.5zM309 670q0 -4 7.5 -3t14.5 5t12 11t3 13q-4 20 22.5 44t52 33t38 -5t-18.5 -72q-6 -10 -15 -22t-19 -21q-6 -8 -19.5 -13t-13.5 -13q-4 -6 1 -6t12 3t15.5 6t10.5 3q27 14 49 43q20 23 37.5 53.5t5.5 50.5 q-8 23 -37 21t-51 -10q-53 -23 -94 -74q-4 -10 -10.5 -24.5t-2.5 -22.5zM319 -285h29l19 -77l14 77h29l16 -77l16 77h31l-33 -106h-26l-19 78l-18 -78h-29zM324 -78q0 25 16 50.5t55 25.5h4q16 0 37 -15.5t21 -33.5h-31q0 10 -9 17t-22 7q-6 0 -17 -4t-16.5 -17t-5.5 -32 q0 -25 9.5 -36t23.5 -13h6q18 0 27.5 11.5t9.5 19.5h-37v26h62v-80h-21l-2 19q-12 -18 -26.5 -20.5t-20.5 -2.5q-14 0 -25.5 6.5t-19.5 16.5q-18 18 -18 55zM352 426l121 -37l4 51l-45 21zM420 907l20 -51l-4 -6l25 6l-21 45l47 31l-14 49l47 20l-6 52l49 16l4 51l51 8 l13 48h51l18 51l52 -6l26 43l49 -15l31 41l51 -24l33 34l43 -28l43 28l41 -34l41 24l33 -41l51 15l23 -43l55 6l16 -51h53l11 -48l53 -8v-51l51 -16v-4h17v16l-52 14l-2 54l-53 10l-10 51h-56l-20 51l-51 -8l-29 47l-49 -18l-35 43l-47 -25l-39 37l-45 -31l-45 31l-39 -37 l-49 25l-31 -43l-51 18l-25 -47l-55 8l-16 -51h-56l-12 -51l-51 -10l-6 -54l-51 -14l2 -51l-45 -23l12 -55zM455 479l45 -24l-2 -54l51 -16l6 -53l51 -10l12 -52h56l16 -47l55 8l25 -49l51 19l31 -41l49 22l39 -39l45 31l45 -31l39 39l47 -22l35 41l49 -19l29 49l51 -8 l20 47h56l10 52l53 10l2 53l52 16l-5 54l48 24l-11 49l45 31l-20 51l39 33l-27 49l25 29l-25 -4l-20 -21l28 -47l-41 -37l21 -47l-43 -30l12 -50l-47 -22l4 -51l-51 -15v-53l-53 -4l-11 -51h-53l-16 -49l-55 8l-23 -43l-51 16l-33 -41l-41 23l-41 -39l-43 31l-43 -31l-33 39 l-51 -23l-31 41l-49 -16l-26 43l-52 -8l-18 49h-51l-13 51l-51 4l-4 53l-49 15l6 51l-47 22l6 31l-18 -4zM460 619.5q-3 -21.5 7 -35t39 -4.5q23 8 44 26.5t38 40.5v2q10 10 19.5 35t17.5 33q6 -8 2 -21.5t-11.5 -29t-13.5 -29.5t-2 -27q10 -20 27.5 -6t34.5 37 q4 -25 22 -25q16 0 33.5 8.5t34.5 18.5l16 21q0 -16 9 -24.5t34 1.5q10 4 23.5 13.5t23.5 21.5q23 0 37 14q-8 -16 -8 -26.5t4 -8.5q10 2 24.5 24.5t24.5 33.5q12 18 27.5 35.5t31.5 35.5q-10 -23 -20 -44t-21 -44q-6 -25 12.5 -23.5t35.5 17.5l24 23q0 -14 12 -21 q16 -6 32 6.5t26 28.5q-2 -18 4 -23.5t15 -2t21.5 12.5t22.5 19q0 -20 13.5 -21t33.5 21q12 12 20.5 24.5t16.5 22.5q0 10 -1 16.5t-11 -3.5t-15.5 -22.5t-15.5 -22.5q-10 -14 -19 -14.5t1 16.5q10 23 25.5 47t31.5 47l72 110q6 8 2 17.5t-11.5 15.5t-15.5 7t-10 -9 q-33 -51 -62.5 -105.5t-50.5 -109.5q-4 -4 -4 -6v-4q-8 -10 -17 -22.5t-24 -20.5q-4 0 -2 6t7.5 14t10.5 15l5 8q6 8 14 21.5t2 19.5q-6 16 -15 10t-14 -10q-12 -18 -20 -39t-25 -41q-10 -12 -15 -11t-6 7t1 15t6 18q25 41 59 63q4 2 14.5 5l21 6t16.5 7.5t2 10.5 q-8 10 -34 4t-40 -12q-20 -14 -38.5 -33t-29.5 -41q0 -4 -6 -10l-30 -43q-12 -10 -17.5 -12.5t-5.5 2.5t4 13.5t8 16.5q6 6 14.5 17.5t16.5 22.5t13 22.5t3 17.5q-10 23 -35.5 1t-50.5 -52l17 24q6 12 3 17.5t-10.5 5.5t-15.5 -2t-10 -4q-4 -4 -13 -25.5t-18 -44.5 q-10 -8 -15 -16.5t-17 -14.5q14 18 21 39t5 36t-13 21.5t-32 -1.5q-20 -10 -41.5 -36t-34.5 -50q-10 -10 -19 -26.5t-15 -21.5q12 20 16 38t4 34q-4 14 -3 30.5t-7 24.5q-8 12 -20.5 -6t-18.5 -28q-18 -29 -35.5 -62t-42.5 -55q-10 -8 -13 -8t-2 5t4 12t5 11q4 4 9 10.5 t9 14.5q6 8 11 18q6 12 -0.5 17.5t-14.5 9.5t-13 9t1 18q10 16 1 15t-17 -15q-2 -10 -6.5 -17.5t-8.5 -15.5l-22 -47q-2 0 -2 -2q-2 -2 -2 -4q-4 -4 -11.5 -14.5t-11.5 -16.5q-6 -4 -15.5 -13.5t-19.5 -15.5t-19 -9t-14 5q-2 8 1.5 16.5t7.5 16.5q10 0 22 4t15 6q2 4 2 0 q8 6 19 16.5t19.5 22.5t12.5 24.5t0 20.5q-10 16 -36 6t-42 -26q-20 -16 -33.5 -41t-16.5 -46.5zM475 -94q0 23 11.5 38t39.5 15q29 0 39 -18.5t10 -38.5v-8h-73q0 -8 6 -16.5t20 -8.5q8 0 13.5 5t5.5 7h28q-4 -16 -18 -25.5t-29 -9.5q-53 0 -53 60zM475 -285h31l16 -77 l15 77h30l15 -77l16 77h31l-33 -106h-27l-16 78l-18 -78h-29zM506 -86h43q-6 23 -23 23q-18 0 -20 -23zM506 649q2 6 10 18.5t17.5 25t18.5 20.5t15 4q10 -8 4 -18.5t-18 -20.5t-26.5 -18.5t-20.5 -10.5zM584 -43h14v29h31v-29h16v-20h-16v-58q0 -8 1 -9t9 -1l6 2v-23h-16 q-18 0 -24.5 4.5t-6.5 18.5v66h-14v20zM606 885l678 129q-57 59 -133 94t-166 35q-66 0 -124 -19.5t-108.5 -53.5t-88 -81t-58.5 -104zM625 543q51 -98 147 -159.5t213 -61.5q80 0 150.5 28.5t124 77.5t88 116.5t45.5 145.5zM629 -362h28v-29h-28v29zM684 -285h27v-16 q8 20 30 20q20 0 31 -18q6 18 27 18q14 0 22 -8q4 -4 9.5 -10t5.5 -18v-74h-25v63q0 20 -18 21q-18 0 -19 -21v-63h-29v74q0 4 -3 7t-13 3q-18 0 -18 -19v-65h-27v106zM686 639q0 6 3 13t9 7q8 0 10.5 6.5t2.5 12.5t-4.5 12t-8.5 6q4 8 11.5 16.5t15.5 20.5q8 -12 5 -38 t-19 -46q-14 -16 -19.5 -16t-5.5 6zM707 -43h14v8q0 29 31 29h16v-21h-8l-8 -2v-14h16v-20h-16v-89h-31v89h-14v20zM784 -43h27v-68q0 -18 20 -18h11q10 8 12 23v63h27v-109h-27v17q-8 -10 -18.5 -14.5t-14.5 -4.5q-37 0 -37 39v72zM784 670q0 4 2 8t5 12q2 4 5 9.5t3 7.5 q2 8 7 14t7 16q-2 -20 0 -36.5t18 -22.5q-12 -10 -29.5 -20.5t-17.5 12.5zM828.5 728q2.5 26 23.5 42q14 8 15 0t-3 -22.5t-11 -30t-11 -21.5q-16 6 -13.5 32zM854 -365q0 31 33 35l24 4q8 2 9 9q0 12 -17 12q-16 0 -16 -14h-29q0 14 6 22t17 12q10 4 22 4q27 0 36 -10 t9 -20v-60q0 -10 2 -12q0 -4 4 -4v-4h-28l-2 2v2q-2 0 -2 8l-21 -12q0 -2 -12 -2q-35 0 -35 28zM883 -362q0 -10 14 -11h4l6 2l8 4q4 4 5 13v14q-4 -4 -9 -4l-14 -2l-10 -6q-4 -4 -4 -10zM907 -6h27v-146h-27v146zM926 711q4 12 13 23t17 22zM956 -6h27v-146h-27v146z M963 -285h28l19 -77l14 77h29l16 -77l18 77h27l-29 -106h-30l-17 78l-16 -78h-31zM1055 -43h14v8q0 29 33 29h12v-21h-6q-6 0 -6 -1t-4 -5v-10h20v-20h-20v-89h-29v89h-14v20zM1128 -98q0 23 12.5 40t41.5 17q18 0 25.5 -4t13.5 -10q8 -12 11 -20.5t3 -22.5 q0 -23 -13.5 -39.5t-39.5 -16.5q-23 0 -38.5 13.5t-15.5 42.5zM1128 -285h29v-16q10 20 31 20q12 0 20 -6q10 -4 14.5 -14t4.5 -16v-74h-29v63q0 14 -4 17.5t-14 3.5q-12 0 -16.5 -7.5t-4.5 -17.5v-59h-31v106zM1155 -98q0 -10 4 -20.5t23 -10.5q16 0 20 10q4 4 4 21 q0 33 -24 32q-14 0 -20.5 -10t-6.5 -22zM1247 -363.5q0 7.5 27 7.5q0 -14 24 -15q16 0 17 9q0 6 -10 8l-25 6q-14 4 -22.5 10t-8.5 21q0 6 8.5 21t34.5 15q35 0 45 -20l4 -16h-30q0 6 -2 9t-15 3q-16 0 -16 -8q0 -6 8 -9l25 -6q14 -4 24 -10q8 -4 8 -18q0 -37 -47 -37h-10 q-16 0 -24.5 5t-11.5 11t-3 13.5zM1255 -43h27v-14q12 16 33 16q12 0 20 -4l13 -10q6 -12 6 -21v-76h-29v66q0 6 -2 13t-16 7q-12 0 -16.5 -4t-4.5 -20v-62h-31v109zM1343.5 796.5q-8.5 -32.5 2.5 -53.5q6 -12 17 -9t22.5 13.5t21.5 23.5t14 22q-2 -14 -2 -33t23 -6 q12 4 23.5 16t21.5 27q4 -20 18 -21q16 0 33.5 9.5t34.5 19.5l26 26q0 -18 11.5 -27t34.5 -3q47 18 77 67q0 2 3.5 8.5t4.5 11.5t0 7t-10 -4q-8 -4 -13 -14.5t-11 -20.5q-6 -6 -16.5 -14t-20.5 -15.5t-19.5 -9.5t-13.5 6q-2 8 1 15.5t5 17.5q10 0 27.5 6t13.5 6 q10 4 21.5 14.5t19.5 23t11.5 23.5t-3.5 19q-10 16 -34.5 6t-40.5 -26q-16 -12 -25.5 -29.5t-19.5 -36.5q-6 -10 -15.5 -25.5t-17.5 -19.5q27 37 20 74q-2 12 0 28.5t-6 24.5q-6 6 -11 4t-11.5 -9t-11.5 -15.5t-7 -12.5l-43 -67q-14 -16 -23.5 -36t-29.5 -34q-8 -6 -6 1 t7 18.5t11 21.5t6 12l52 97q8 14 21 34.5t9 34.5q-4 4 -16.5 11t-20.5 -9q-12 -25 -26.5 -52.5t-24.5 -55.5q-12 -29 -28.5 -61.5t-40.5 -57.5q-14 -16 -16.5 -10t0.5 19.5t8 29.5t8 20q12 31 27.5 62t35.5 59q8 10 7 20.5t-7 16.5t-14 5t-17 -15q-16 -29 -31.5 -60.5 t-27.5 -60.5q-10 -25 -18.5 -57.5zM1366 -43h18v29h25v-29h18v-20h-18v-58q0 -8 4 -9t8 -1l6 2v-23h-18q-25 0 -25 11v78h-18v20zM1366 -362h29v-29h-29v29zM1415 -340q0 23 10.5 41t36.5 18q23 0 36 -12t13 -31h-28q0 4 -3.5 10.5t-15.5 6.5t-16 -9.5t-4 -19.5q0 -23 3 -29 t17 -6q18 0 19 19h28q0 -6 -8 -23.5t-41 -17.5q-23 0 -35 11t-12 42zM1493 -121q0 18 10 23.5t21 9.5l26 4q10 0 11 8q0 12 -17 13q-6 0 -12 -2.5t-8 -14.5h-27q4 12 8 25.5t25 13.5h14q18 0 28.5 -5t12.5 -10t2 -12v-73q0 -4 8 -4v-7h-32v2v5q0 2 -1 4t-1 4 q-4 -6 -10.5 -10.5t-8.5 -4.5l-8 -2h-8t-19.5 7.5t-13.5 25.5zM1508 801q-1 4 2 11t12 9q16 2 12 18.5t-12 16.5l24 37q10 -14 7 -39t-21 -43q-10 -12 -16.5 -13t-7.5 3zM1522 -121q0 -12 14 -12h8q8 2 12.5 10t4.5 10v15q-6 -4 -13 -4l-12 -4q-4 0 -9 -4.5t-5 -10.5z M1524 -340q0 39 20.5 49t36.5 10q10 0 18.5 -4t22.5 -10q4 -6 8 -16.5t4 -28.5q0 -23 -13 -38t-40 -15q-35 0 -46 18.5t-11 34.5zM1554 -340q0 -12 5.5 -21.5t21.5 -9.5q14 1 18 11q4 4 4.5 10t0.5 10q0 18 -4.5 25.5t-18.5 7.5q-18 0 -22.5 -9.5t-4.5 -23.5zM1559 602 l4 -10l53 43l-21 2zM1569 690l26 -47l29 -2l117 92l-139 -4zM1602 -43h12v29h28v-29h21v-20h-21v-58q0 -10 13 -10l8 2v-23h-21q-16 0 -22 7.5t-6 15.5v66h-12v20zM1638 737l103 -4l41 31zM1645 870q2 6 9 18.5t16 25t18.5 19.5t15.5 3t3 -12.5t-10 -17.5t-15.5 -16 t-12.5 -9l-2 -2zM1655 -285h26v-16q10 20 31 20q12 0 18.5 -6t10.5 -12q2 4 10 11t21 7q10 0 19 -6t11 -14q6 -6 6 -16v-74h-28v63q0 20 -17 21q-18 0 -18 -21v-63h-27v63q0 8 -3 14.5t-13 6.5q-20 0 -21 -19v-65h-26v106z" />
<glyph unicode="2" d="M68 252l100 194l-41 160l94 21v184l105 20l-90 13l104 -10l53 8l23 22l-21 47l-137 43l139 -36l39 30l-10 47l-127 68l133 -57l45 22l-4 51l-117 84l121 -82l49 19l6 49l-106 102l109 -94l53 8l10 47l-86 115l92 -106h51l19 45l-70 125l78 -119l49 -8l27 43l-51 137 l57 -135l49 -15l33 39l-31 142l37 -138l43 -22l41 35l-8 141l18 -141l39 -29l41 29l16 141l-6 -141l37 -35l47 22l33 138l-25 -142l29 -39l49 15l58 135l-50 -137l27 -43l51 8l74 119l-68 -125l17 -45h51l96 106l-88 -115l12 -47l50 -8l108 94l-102 -102l2 -49l51 -19 l119 82l-115 -84l-4 -26l287 55v-184l149 30l-104 -196l53 -160l-276 -51l110 -37l-121 33l-34 -8l-29 -17l14 -49l129 -68l-135 60l-43 -21v-51l119 -88l-119 82l-51 -18l-2 -48l102 -104l-108 98l-50 -10l-12 -47l88 -115l-96 109h-51l-17 -47l68 -125l-74 121l-51 8 l-27 -41l50 -141l-58 135l-49 12l-29 -39l25 -141l-33 137l-47 27l-37 -35l6 -146l-16 146l-41 28l-39 -28l-18 -146l8 146l-41 35l-43 -27l-37 -137l31 141l-33 39l-49 -12l-57 -135l51 141l-27 41l-49 -8l-78 -121l70 125l-19 47h-51l-92 -109l86 115l-10 47l-53 10 l-109 -98l106 104l-2 23l-170 -35zM162 -285h31l16 -77l14 77h31l14 -77l19 77h28l-30 -106h-29l-18 78l-17 -78h-28zM221 465l127 -37l78 41l10 33zM295 543q4 -10 11 2t11 18q16 33 40 64.5t46 62.5q10 16 14.5 27.5t-5.5 19.5q-4 8 -14.5 11.5t-18.5 -11.5 q-16 -31 -34 -62.5t-30 -64.5q-4 -10 -16 -32.5t-4 -34.5zM309 670q0 -4 7.5 -3t14.5 5t12 11t3 13q-4 20 22.5 44t52 33t38 -5t-18.5 -72q-6 -10 -15 -22t-19 -21q-6 -8 -19.5 -13t-13.5 -13q-4 -6 1 -6t12 3t15.5 6t10.5 3q27 14 49 43q20 23 37.5 53.5t5.5 50.5 q-8 23 -37 21t-51 -10q-53 -23 -94 -74q-4 -10 -10.5 -24.5t-2.5 -22.5zM319 -285h29l19 -77l14 77h29l16 -77l16 77h31l-33 -106h-26l-19 78l-18 -78h-29zM324 -78q0 25 16 50.5t55 25.5h4q16 0 37 -15.5t21 -33.5h-31q0 10 -9 17t-22 7q-6 0 -17 -4t-16.5 -17t-5.5 -32 q0 -25 9.5 -36t23.5 -13h6q18 0 27.5 11.5t9.5 19.5h-37v26h62v-80h-21l-2 19q-12 -18 -26.5 -20.5t-20.5 -2.5q-14 0 -25.5 6.5t-19.5 16.5q-18 18 -18 55zM352 426l121 -37l4 51l-45 21zM420 907l20 -51l-4 -6l25 6l-21 45l47 31l-14 49l47 20l-6 52l49 16l4 51l51 8 l13 48h51l18 51l52 -6l26 43l49 -15l31 41l51 -24l33 34l43 -28l43 28l41 -34l41 24l33 -41l51 15l23 -43l55 6l16 -51h53l11 -48l53 -8v-51l51 -16v-4h17v16l-52 14l-2 54l-53 10l-10 51h-56l-20 51l-51 -8l-29 47l-49 -18l-35 43l-47 -25l-39 37l-45 -31l-45 31l-39 -37 l-49 25l-31 -43l-51 18l-25 -47l-55 8l-16 -51h-56l-12 -51l-51 -10l-6 -54l-51 -14l2 -51l-45 -23l12 -55zM455 479l45 -24l-2 -54l51 -16l6 -53l51 -10l12 -52h56l16 -47l55 8l25 -49l51 19l31 -41l49 22l39 -39l45 31l45 -31l39 39l47 -22l35 41l49 -19l29 49l51 -8 l20 47h56l10 52l53 10l2 53l52 16l-5 54l48 24l-11 49l45 31l-20 51l39 33l-27 49l25 29l-25 -4l-20 -21l28 -47l-41 -37l21 -47l-43 -30l12 -50l-47 -22l4 -51l-51 -15v-53l-53 -4l-11 -51h-53l-16 -49l-55 8l-23 -43l-51 16l-33 -41l-41 23l-41 -39l-43 31l-43 -31l-33 39 l-51 -23l-31 41l-49 -16l-26 43l-52 -8l-18 49h-51l-13 51l-51 4l-4 53l-49 15l6 51l-47 22l6 31l-18 -4zM460 619.5q-3 -21.5 7 -35t39 -4.5q23 8 44 26.5t38 40.5v2q10 10 19.5 35t17.5 33q6 -8 2 -21.5t-11.5 -29t-13.5 -29.5t-2 -27q10 -20 27.5 -6t34.5 37 q4 -25 22 -25q16 0 33.5 8.5t34.5 18.5l16 21q0 -16 9 -24.5t34 1.5q10 4 23.5 13.5t23.5 21.5q23 0 37 14q-8 -16 -8 -26.5t4 -8.5q10 2 24.5 24.5t24.5 33.5q12 18 27.5 35.5t31.5 35.5q-10 -23 -20 -44t-21 -44q-6 -25 12.5 -23.5t35.5 17.5l24 23q0 -14 12 -21 q16 -6 32 6.5t26 28.5q-2 -18 4 -23.5t15 -2t21.5 12.5t22.5 19q0 -20 13.5 -21t33.5 21q12 12 20.5 24.5t16.5 22.5q0 10 -1 16.5t-11 -3.5t-15.5 -22.5t-15.5 -22.5q-10 -14 -19 -14.5t1 16.5q10 23 25.5 47t31.5 47l72 110q6 8 2 17.5t-11.5 15.5t-15.5 7t-10 -9 q-33 -51 -62.5 -105.5t-50.5 -109.5q-4 -4 -4 -6v-4q-8 -10 -17 -22.5t-24 -20.5q-4 0 -2 6t7.5 14t10.5 15l5 8q6 8 14 21.5t2 19.5q-6 16 -15 10t-14 -10q-12 -18 -20 -39t-25 -41q-10 -12 -15 -11t-6 7t1 15t6 18q25 41 59 63q4 2 14.5 5l21 6t16.5 7.5t2 10.5 q-8 10 -34 4t-40 -12q-20 -14 -38.5 -33t-29.5 -41q0 -4 -6 -10l-30 -43q-12 -10 -17.5 -12.5t-5.5 2.5t4 13.5t8 16.5q6 6 14.5 17.5t16.5 22.5t13 22.5t3 17.5q-10 23 -35.5 1t-50.5 -52l17 24q6 12 3 17.5t-10.5 5.5t-15.5 -2t-10 -4q-4 -4 -13 -25.5t-18 -44.5 q-10 -8 -15 -16.5t-17 -14.5q14 18 21 39t5 36t-13 21.5t-32 -1.5q-20 -10 -41.5 -36t-34.5 -50q-10 -10 -19 -26.5t-15 -21.5q12 20 16 38t4 34q-4 14 -3 30.5t-7 24.5q-8 12 -20.5 -6t-18.5 -28q-18 -29 -35.5 -62t-42.5 -55q-10 -8 -13 -8t-2 5t4 12t5 11q4 4 9 10.5 t9 14.5q6 8 11 18q6 12 -0.5 17.5t-14.5 9.5t-13 9t1 18q10 16 1 15t-17 -15q-2 -10 -6.5 -17.5t-8.5 -15.5l-22 -47q-2 0 -2 -2q-2 -2 -2 -4q-4 -4 -11.5 -14.5t-11.5 -16.5q-6 -4 -15.5 -13.5t-19.5 -15.5t-19 -9t-14 5q-2 8 1.5 16.5t7.5 16.5q10 0 22 4t15 6q2 4 2 0 q8 6 19 16.5t19.5 22.5t12.5 24.5t0 20.5q-10 16 -36 6t-42 -26q-20 -16 -33.5 -41t-16.5 -46.5zM475 -94q0 23 11.5 38t39.5 15q29 0 39 -18.5t10 -38.5v-8h-73q0 -8 6 -16.5t20 -8.5q8 0 13.5 5t5.5 7h28q-4 -16 -18 -25.5t-29 -9.5q-53 0 -53 60zM475 -285h31l16 -77 l15 77h30l15 -77l16 77h31l-33 -106h-27l-16 78l-18 -78h-29zM506 -86h43q-6 23 -23 23q-18 0 -20 -23zM506 649q2 6 10 18.5t17.5 25t18.5 20.5t15 4q10 -8 4 -18.5t-18 -20.5t-26.5 -18.5t-20.5 -10.5zM584 -43h14v29h31v-29h16v-20h-16v-58q0 -8 1 -9t9 -1l6 2v-23h-16 q-18 0 -24.5 4.5t-6.5 18.5v66h-14v20zM606 885l678 129q-57 59 -133 94t-166 35q-66 0 -124 -19.5t-108.5 -53.5t-88 -81t-58.5 -104zM625 543q51 -98 147 -159.5t213 -61.5q80 0 150.5 28.5t124 77.5t88 116.5t45.5 145.5zM629 -362h28v-29h-28v29zM684 -285h27v-16 q8 20 30 20q20 0 31 -18q6 18 27 18q14 0 22 -8q4 -4 9.5 -10t5.5 -18v-74h-25v63q0 20 -18 21q-18 0 -19 -21v-63h-29v74q0 4 -3 7t-13 3q-18 0 -18 -19v-65h-27v106zM686 639q0 6 3 13t9 7q8 0 10.5 6.5t2.5 12.5t-4.5 12t-8.5 6q4 8 11.5 16.5t15.5 20.5q8 -12 5 -38 t-19 -46q-14 -16 -19.5 -16t-5.5 6zM707 -43h14v8q0 29 31 29h16v-21h-8l-8 -2v-14h16v-20h-16v-89h-31v89h-14v20zM784 -43h27v-68q0 -18 20 -18h11q10 8 12 23v63h27v-109h-27v17q-8 -10 -18.5 -14.5t-14.5 -4.5q-37 0 -37 39v72zM784 670q0 4 2 8t5 12q2 4 5 9.5t3 7.5 q2 8 7 14t7 16q-2 -20 0 -36.5t18 -22.5q-12 -10 -29.5 -20.5t-17.5 12.5zM828.5 728q2.5 26 23.5 42q14 8 15 0t-3 -22.5t-11 -30t-11 -21.5q-16 6 -13.5 32zM854 -365q0 31 33 35l24 4q8 2 9 9q0 12 -17 12q-16 0 -16 -14h-29q0 14 6 22t17 12q10 4 22 4q27 0 36 -10 t9 -20v-60q0 -10 2 -12q0 -4 4 -4v-4h-28l-2 2v2q-2 0 -2 8l-21 -12q0 -2 -12 -2q-35 0 -35 28zM883 -362q0 -10 14 -11h4l6 2l8 4q4 4 5 13v14q-4 -4 -9 -4l-14 -2l-10 -6q-4 -4 -4 -10zM907 -6h27v-146h-27v146zM926 711q4 12 13 23t17 22zM956 -6h27v-146h-27v146z M963 -285h28l19 -77l14 77h29l16 -77l18 77h27l-29 -106h-30l-17 78l-16 -78h-31zM1055 -43h14v8q0 29 33 29h12v-21h-6q-6 0 -6 -1t-4 -5v-10h20v-20h-20v-89h-29v89h-14v20zM1128 -98q0 23 12.5 40t41.5 17q18 0 25.5 -4t13.5 -10q8 -12 11 -20.5t3 -22.5 q0 -23 -13.5 -39.5t-39.5 -16.5q-23 0 -38.5 13.5t-15.5 42.5zM1128 -285h29v-16q10 20 31 20q12 0 20 -6q10 -4 14.5 -14t4.5 -16v-74h-29v63q0 14 -4 17.5t-14 3.5q-12 0 -16.5 -7.5t-4.5 -17.5v-59h-31v106zM1155 -98q0 -10 4 -20.5t23 -10.5q16 0 20 10q4 4 4 21 q0 33 -24 32q-14 0 -20.5 -10t-6.5 -22zM1247 -363.5q0 7.5 27 7.5q0 -14 24 -15q16 0 17 9q0 6 -10 8l-25 6q-14 4 -22.5 10t-8.5 21q0 6 8.5 21t34.5 15q35 0 45 -20l4 -16h-30q0 6 -2 9t-15 3q-16 0 -16 -8q0 -6 8 -9l25 -6q14 -4 24 -10q8 -4 8 -18q0 -37 -47 -37h-10 q-16 0 -24.5 5t-11.5 11t-3 13.5zM1255 -43h27v-14q12 16 33 16q12 0 20 -4l13 -10q6 -12 6 -21v-76h-29v66q0 6 -2 13t-16 7q-12 0 -16.5 -4t-4.5 -20v-62h-31v109zM1343.5 796.5q-8.5 -32.5 2.5 -53.5q6 -12 17 -9t22.5 13.5t21.5 23.5t14 22q-2 -14 -2 -33t23 -6 q12 4 23.5 16t21.5 27q4 -20 18 -21q16 0 33.5 9.5t34.5 19.5l26 26q0 -18 11.5 -27t34.5 -3q47 18 77 67q0 2 3.5 8.5t4.5 11.5t0 7t-10 -4q-8 -4 -13 -14.5t-11 -20.5q-6 -6 -16.5 -14t-20.5 -15.5t-19.5 -9.5t-13.5 6q-2 8 1 15.5t5 17.5q10 0 27.5 6t13.5 6 q10 4 21.5 14.5t19.5 23t11.5 23.5t-3.5 19q-10 16 -34.5 6t-40.5 -26q-16 -12 -25.5 -29.5t-19.5 -36.5q-6 -10 -15.5 -25.5t-17.5 -19.5q27 37 20 74q-2 12 0 28.5t-6 24.5q-6 6 -11 4t-11.5 -9t-11.5 -15.5t-7 -12.5l-43 -67q-14 -16 -23.5 -36t-29.5 -34q-8 -6 -6 1 t7 18.5t11 21.5t6 12l52 97q8 14 21 34.5t9 34.5q-4 4 -16.5 11t-20.5 -9q-12 -25 -26.5 -52.5t-24.5 -55.5q-12 -29 -28.5 -61.5t-40.5 -57.5q-14 -16 -16.5 -10t0.5 19.5t8 29.5t8 20q12 31 27.5 62t35.5 59q8 10 7 20.5t-7 16.5t-14 5t-17 -15q-16 -29 -31.5 -60.5 t-27.5 -60.5q-10 -25 -18.5 -57.5zM1366 -43h18v29h25v-29h18v-20h-18v-58q0 -8 4 -9t8 -1l6 2v-23h-18q-25 0 -25 11v78h-18v20zM1366 -362h29v-29h-29v29zM1415 -340q0 23 10.5 41t36.5 18q23 0 36 -12t13 -31h-28q0 4 -3.5 10.5t-15.5 6.5t-16 -9.5t-4 -19.5q0 -23 3 -29 t17 -6q18 0 19 19h28q0 -6 -8 -23.5t-41 -17.5q-23 0 -35 11t-12 42zM1493 -121q0 18 10 23.5t21 9.5l26 4q10 0 11 8q0 12 -17 13q-6 0 -12 -2.5t-8 -14.5h-27q4 12 8 25.5t25 13.5h14q18 0 28.5 -5t12.5 -10t2 -12v-73q0 -4 8 -4v-7h-32v2v5q0 2 -1 4t-1 4 q-4 -6 -10.5 -10.5t-8.5 -4.5l-8 -2h-8t-19.5 7.5t-13.5 25.5zM1508 801q-1 4 2 11t12 9q16 2 12 18.5t-12 16.5l24 37q10 -14 7 -39t-21 -43q-10 -12 -16.5 -13t-7.5 3zM1522 -121q0 -12 14 -12h8q8 2 12.5 10t4.5 10v15q-6 -4 -13 -4l-12 -4q-4 0 -9 -4.5t-5 -10.5z M1524 -340q0 39 20.5 49t36.5 10q10 0 18.5 -4t22.5 -10q4 -6 8 -16.5t4 -28.5q0 -23 -13 -38t-40 -15q-35 0 -46 18.5t-11 34.5zM1554 -340q0 -12 5.5 -21.5t21.5 -9.5q14 1 18 11q4 4 4.5 10t0.5 10q0 18 -4.5 25.5t-18.5 7.5q-18 0 -22.5 -9.5t-4.5 -23.5zM1559 602 l4 -10l53 43l-21 2zM1569 690l26 -47l29 -2l117 92l-139 -4zM1602 -43h12v29h28v-29h21v-20h-21v-58q0 -10 13 -10l8 2v-23h-21q-16 0 -22 7.5t-6 15.5v66h-12v20zM1638 737l103 -4l41 31zM1645 870q2 6 9 18.5t16 25t18.5 19.5t15.5 3t3 -12.5t-10 -17.5t-15.5 -16 t-12.5 -9l-2 -2zM1655 -285h26v-16q10 20 31 20q12 0 18.5 -6t10.5 -12q2 4 10 11t21 7q10 0 19 -6t11 -14q6 -6 6 -16v-74h-28v63q0 20 -17 21q-18 0 -18 -21v-63h-27v63q0 8 -3 14.5t-13 6.5q-20 0 -21 -19v-65h-26v106z" />
<glyph unicode="3" d="M68 252l100 194l-41 160l94 21v184l105 20l-90 13l104 -10l53 8l23 22l-21 47l-137 43l139 -36l39 30l-10 47l-127 68l133 -57l45 22l-4 51l-117 84l121 -82l49 19l6 49l-106 102l109 -94l53 8l10 47l-86 115l92 -106h51l19 45l-70 125l78 -119l49 -8l27 43l-51 137 l57 -135l49 -15l33 39l-31 142l37 -138l43 -22l41 35l-8 141l18 -141l39 -29l41 29l16 141l-6 -141l37 -35l47 22l33 138l-25 -142l29 -39l49 15l58 135l-50 -137l27 -43l51 8l74 119l-68 -125l17 -45h51l96 106l-88 -115l12 -47l50 -8l108 94l-102 -102l2 -49l51 -19 l119 82l-115 -84l-4 -26l287 55v-184l149 30l-104 -196l53 -160l-276 -51l110 -37l-121 33l-34 -8l-29 -17l14 -49l129 -68l-135 60l-43 -21v-51l119 -88l-119 82l-51 -18l-2 -48l102 -104l-108 98l-50 -10l-12 -47l88 -115l-96 109h-51l-17 -47l68 -125l-74 121l-51 8 l-27 -41l50 -141l-58 135l-49 12l-29 -39l25 -141l-33 137l-47 27l-37 -35l6 -146l-16 146l-41 28l-39 -28l-18 -146l8 146l-41 35l-43 -27l-37 -137l31 141l-33 39l-49 -12l-57 -135l51 141l-27 41l-49 -8l-78 -121l70 125l-19 47h-51l-92 -109l86 115l-10 47l-53 10 l-109 -98l106 104l-2 23l-170 -35zM162 -285h31l16 -77l14 77h31l14 -77l19 77h28l-30 -106h-29l-18 78l-17 -78h-28zM221 465l127 -37l78 41l10 33zM295 543q4 -10 11 2t11 18q16 33 40 64.5t46 62.5q10 16 14.5 27.5t-5.5 19.5q-4 8 -14.5 11.5t-18.5 -11.5 q-16 -31 -34 -62.5t-30 -64.5q-4 -10 -16 -32.5t-4 -34.5zM309 670q0 -4 7.5 -3t14.5 5t12 11t3 13q-4 20 22.5 44t52 33t38 -5t-18.5 -72q-6 -10 -15 -22t-19 -21q-6 -8 -19.5 -13t-13.5 -13q-4 -6 1 -6t12 3t15.5 6t10.5 3q27 14 49 43q20 23 37.5 53.5t5.5 50.5 q-8 23 -37 21t-51 -10q-53 -23 -94 -74q-4 -10 -10.5 -24.5t-2.5 -22.5zM319 -285h29l19 -77l14 77h29l16 -77l16 77h31l-33 -106h-26l-19 78l-18 -78h-29zM324 -78q0 25 16 50.5t55 25.5h4q16 0 37 -15.5t21 -33.5h-31q0 10 -9 17t-22 7q-6 0 -17 -4t-16.5 -17t-5.5 -32 q0 -25 9.5 -36t23.5 -13h6q18 0 27.5 11.5t9.5 19.5h-37v26h62v-80h-21l-2 19q-12 -18 -26.5 -20.5t-20.5 -2.5q-14 0 -25.5 6.5t-19.5 16.5q-18 18 -18 55zM352 426l121 -37l4 51l-45 21zM420 907l20 -51l-4 -6l25 6l-21 45l47 31l-14 49l47 20l-6 52l49 16l4 51l51 8 l13 48h51l18 51l52 -6l26 43l49 -15l31 41l51 -24l33 34l43 -28l43 28l41 -34l41 24l33 -41l51 15l23 -43l55 6l16 -51h53l11 -48l53 -8v-51l51 -16v-4h17v16l-52 14l-2 54l-53 10l-10 51h-56l-20 51l-51 -8l-29 47l-49 -18l-35 43l-47 -25l-39 37l-45 -31l-45 31l-39 -37 l-49 25l-31 -43l-51 18l-25 -47l-55 8l-16 -51h-56l-12 -51l-51 -10l-6 -54l-51 -14l2 -51l-45 -23l12 -55zM455 479l45 -24l-2 -54l51 -16l6 -53l51 -10l12 -52h56l16 -47l55 8l25 -49l51 19l31 -41l49 22l39 -39l45 31l45 -31l39 39l47 -22l35 41l49 -19l29 49l51 -8 l20 47h56l10 52l53 10l2 53l52 16l-5 54l48 24l-11 49l45 31l-20 51l39 33l-27 49l25 29l-25 -4l-20 -21l28 -47l-41 -37l21 -47l-43 -30l12 -50l-47 -22l4 -51l-51 -15v-53l-53 -4l-11 -51h-53l-16 -49l-55 8l-23 -43l-51 16l-33 -41l-41 23l-41 -39l-43 31l-43 -31l-33 39 l-51 -23l-31 41l-49 -16l-26 43l-52 -8l-18 49h-51l-13 51l-51 4l-4 53l-49 15l6 51l-47 22l6 31l-18 -4zM460 619.5q-3 -21.5 7 -35t39 -4.5q23 8 44 26.5t38 40.5v2q10 10 19.5 35t17.5 33q6 -8 2 -21.5t-11.5 -29t-13.5 -29.5t-2 -27q10 -20 27.5 -6t34.5 37 q4 -25 22 -25q16 0 33.5 8.5t34.5 18.5l16 21q0 -16 9 -24.5t34 1.5q10 4 23.5 13.5t23.5 21.5q23 0 37 14q-8 -16 -8 -26.5t4 -8.5q10 2 24.5 24.5t24.5 33.5q12 18 27.5 35.5t31.5 35.5q-10 -23 -20 -44t-21 -44q-6 -25 12.5 -23.5t35.5 17.5l24 23q0 -14 12 -21 q16 -6 32 6.5t26 28.5q-2 -18 4 -23.5t15 -2t21.5 12.5t22.5 19q0 -20 13.5 -21t33.5 21q12 12 20.5 24.5t16.5 22.5q0 10 -1 16.5t-11 -3.5t-15.5 -22.5t-15.5 -22.5q-10 -14 -19 -14.5t1 16.5q10 23 25.5 47t31.5 47l72 110q6 8 2 17.5t-11.5 15.5t-15.5 7t-10 -9 q-33 -51 -62.5 -105.5t-50.5 -109.5q-4 -4 -4 -6v-4q-8 -10 -17 -22.5t-24 -20.5q-4 0 -2 6t7.5 14t10.5 15l5 8q6 8 14 21.5t2 19.5q-6 16 -15 10t-14 -10q-12 -18 -20 -39t-25 -41q-10 -12 -15 -11t-6 7t1 15t6 18q25 41 59 63q4 2 14.5 5l21 6t16.5 7.5t2 10.5 q-8 10 -34 4t-40 -12q-20 -14 -38.5 -33t-29.5 -41q0 -4 -6 -10l-30 -43q-12 -10 -17.5 -12.5t-5.5 2.5t4 13.5t8 16.5q6 6 14.5 17.5t16.5 22.5t13 22.5t3 17.5q-10 23 -35.5 1t-50.5 -52l17 24q6 12 3 17.5t-10.5 5.5t-15.5 -2t-10 -4q-4 -4 -13 -25.5t-18 -44.5 q-10 -8 -15 -16.5t-17 -14.5q14 18 21 39t5 36t-13 21.5t-32 -1.5q-20 -10 -41.5 -36t-34.5 -50q-10 -10 -19 -26.5t-15 -21.5q12 20 16 38t4 34q-4 14 -3 30.5t-7 24.5q-8 12 -20.5 -6t-18.5 -28q-18 -29 -35.5 -62t-42.5 -55q-10 -8 -13 -8t-2 5t4 12t5 11q4 4 9 10.5 t9 14.5q6 8 11 18q6 12 -0.5 17.5t-14.5 9.5t-13 9t1 18q10 16 1 15t-17 -15q-2 -10 -6.5 -17.5t-8.5 -15.5l-22 -47q-2 0 -2 -2q-2 -2 -2 -4q-4 -4 -11.5 -14.5t-11.5 -16.5q-6 -4 -15.5 -13.5t-19.5 -15.5t-19 -9t-14 5q-2 8 1.5 16.5t7.5 16.5q10 0 22 4t15 6q2 4 2 0 q8 6 19 16.5t19.5 22.5t12.5 24.5t0 20.5q-10 16 -36 6t-42 -26q-20 -16 -33.5 -41t-16.5 -46.5zM475 -94q0 23 11.5 38t39.5 15q29 0 39 -18.5t10 -38.5v-8h-73q0 -8 6 -16.5t20 -8.5q8 0 13.5 5t5.5 7h28q-4 -16 -18 -25.5t-29 -9.5q-53 0 -53 60zM475 -285h31l16 -77 l15 77h30l15 -77l16 77h31l-33 -106h-27l-16 78l-18 -78h-29zM506 -86h43q-6 23 -23 23q-18 0 -20 -23zM506 649q2 6 10 18.5t17.5 25t18.5 20.5t15 4q10 -8 4 -18.5t-18 -20.5t-26.5 -18.5t-20.5 -10.5zM584 -43h14v29h31v-29h16v-20h-16v-58q0 -8 1 -9t9 -1l6 2v-23h-16 q-18 0 -24.5 4.5t-6.5 18.5v66h-14v20zM606 885l678 129q-57 59 -133 94t-166 35q-66 0 -124 -19.5t-108.5 -53.5t-88 -81t-58.5 -104zM625 543q51 -98 147 -159.5t213 -61.5q80 0 150.5 28.5t124 77.5t88 116.5t45.5 145.5zM629 -362h28v-29h-28v29zM684 -285h27v-16 q8 20 30 20q20 0 31 -18q6 18 27 18q14 0 22 -8q4 -4 9.5 -10t5.5 -18v-74h-25v63q0 20 -18 21q-18 0 -19 -21v-63h-29v74q0 4 -3 7t-13 3q-18 0 -18 -19v-65h-27v106zM686 639q0 6 3 13t9 7q8 0 10.5 6.5t2.5 12.5t-4.5 12t-8.5 6q4 8 11.5 16.5t15.5 20.5q8 -12 5 -38 t-19 -46q-14 -16 -19.5 -16t-5.5 6zM707 -43h14v8q0 29 31 29h16v-21h-8l-8 -2v-14h16v-20h-16v-89h-31v89h-14v20zM784 -43h27v-68q0 -18 20 -18h11q10 8 12 23v63h27v-109h-27v17q-8 -10 -18.5 -14.5t-14.5 -4.5q-37 0 -37 39v72zM784 670q0 4 2 8t5 12q2 4 5 9.5t3 7.5 q2 8 7 14t7 16q-2 -20 0 -36.5t18 -22.5q-12 -10 -29.5 -20.5t-17.5 12.5zM828.5 728q2.5 26 23.5 42q14 8 15 0t-3 -22.5t-11 -30t-11 -21.5q-16 6 -13.5 32zM854 -365q0 31 33 35l24 4q8 2 9 9q0 12 -17 12q-16 0 -16 -14h-29q0 14 6 22t17 12q10 4 22 4q27 0 36 -10 t9 -20v-60q0 -10 2 -12q0 -4 4 -4v-4h-28l-2 2v2q-2 0 -2 8l-21 -12q0 -2 -12 -2q-35 0 -35 28zM883 -362q0 -10 14 -11h4l6 2l8 4q4 4 5 13v14q-4 -4 -9 -4l-14 -2l-10 -6q-4 -4 -4 -10zM907 -6h27v-146h-27v146zM926 711q4 12 13 23t17 22zM956 -6h27v-146h-27v146z M963 -285h28l19 -77l14 77h29l16 -77l18 77h27l-29 -106h-30l-17 78l-16 -78h-31zM1055 -43h14v8q0 29 33 29h12v-21h-6q-6 0 -6 -1t-4 -5v-10h20v-20h-20v-89h-29v89h-14v20zM1128 -98q0 23 12.5 40t41.5 17q18 0 25.5 -4t13.5 -10q8 -12 11 -20.5t3 -22.5 q0 -23 -13.5 -39.5t-39.5 -16.5q-23 0 -38.5 13.5t-15.5 42.5zM1128 -285h29v-16q10 20 31 20q12 0 20 -6q10 -4 14.5 -14t4.5 -16v-74h-29v63q0 14 -4 17.5t-14 3.5q-12 0 -16.5 -7.5t-4.5 -17.5v-59h-31v106zM1155 -98q0 -10 4 -20.5t23 -10.5q16 0 20 10q4 4 4 21 q0 33 -24 32q-14 0 -20.5 -10t-6.5 -22zM1247 -363.5q0 7.5 27 7.5q0 -14 24 -15q16 0 17 9q0 6 -10 8l-25 6q-14 4 -22.5 10t-8.5 21q0 6 8.5 21t34.5 15q35 0 45 -20l4 -16h-30q0 6 -2 9t-15 3q-16 0 -16 -8q0 -6 8 -9l25 -6q14 -4 24 -10q8 -4 8 -18q0 -37 -47 -37h-10 q-16 0 -24.5 5t-11.5 11t-3 13.5zM1255 -43h27v-14q12 16 33 16q12 0 20 -4l13 -10q6 -12 6 -21v-76h-29v66q0 6 -2 13t-16 7q-12 0 -16.5 -4t-4.5 -20v-62h-31v109zM1343.5 796.5q-8.5 -32.5 2.5 -53.5q6 -12 17 -9t22.5 13.5t21.5 23.5t14 22q-2 -14 -2 -33t23 -6 q12 4 23.5 16t21.5 27q4 -20 18 -21q16 0 33.5 9.5t34.5 19.5l26 26q0 -18 11.5 -27t34.5 -3q47 18 77 67q0 2 3.5 8.5t4.5 11.5t0 7t-10 -4q-8 -4 -13 -14.5t-11 -20.5q-6 -6 -16.5 -14t-20.5 -15.5t-19.5 -9.5t-13.5 6q-2 8 1 15.5t5 17.5q10 0 27.5 6t13.5 6 q10 4 21.5 14.5t19.5 23t11.5 23.5t-3.5 19q-10 16 -34.5 6t-40.5 -26q-16 -12 -25.5 -29.5t-19.5 -36.5q-6 -10 -15.5 -25.5t-17.5 -19.5q27 37 20 74q-2 12 0 28.5t-6 24.5q-6 6 -11 4t-11.5 -9t-11.5 -15.5t-7 -12.5l-43 -67q-14 -16 -23.5 -36t-29.5 -34q-8 -6 -6 1 t7 18.5t11 21.5t6 12l52 97q8 14 21 34.5t9 34.5q-4 4 -16.5 11t-20.5 -9q-12 -25 -26.5 -52.5t-24.5 -55.5q-12 -29 -28.5 -61.5t-40.5 -57.5q-14 -16 -16.5 -10t0.5 19.5t8 29.5t8 20q12 31 27.5 62t35.5 59q8 10 7 20.5t-7 16.5t-14 5t-17 -15q-16 -29 -31.5 -60.5 t-27.5 -60.5q-10 -25 -18.5 -57.5zM1366 -43h18v29h25v-29h18v-20h-18v-58q0 -8 4 -9t8 -1l6 2v-23h-18q-25 0 -25 11v78h-18v20zM1366 -362h29v-29h-29v29zM1415 -340q0 23 10.5 41t36.5 18q23 0 36 -12t13 -31h-28q0 4 -3.5 10.5t-15.5 6.5t-16 -9.5t-4 -19.5q0 -23 3 -29 t17 -6q18 0 19 19h28q0 -6 -8 -23.5t-41 -17.5q-23 0 -35 11t-12 42zM1493 -121q0 18 10 23.5t21 9.5l26 4q10 0 11 8q0 12 -17 13q-6 0 -12 -2.5t-8 -14.5h-27q4 12 8 25.5t25 13.5h14q18 0 28.5 -5t12.5 -10t2 -12v-73q0 -4 8 -4v-7h-32v2v5q0 2 -1 4t-1 4 q-4 -6 -10.5 -10.5t-8.5 -4.5l-8 -2h-8t-19.5 7.5t-13.5 25.5zM1508 801q-1 4 2 11t12 9q16 2 12 18.5t-12 16.5l24 37q10 -14 7 -39t-21 -43q-10 -12 -16.5 -13t-7.5 3zM1522 -121q0 -12 14 -12h8q8 2 12.5 10t4.5 10v15q-6 -4 -13 -4l-12 -4q-4 0 -9 -4.5t-5 -10.5z M1524 -340q0 39 20.5 49t36.5 10q10 0 18.5 -4t22.5 -10q4 -6 8 -16.5t4 -28.5q0 -23 -13 -38t-40 -15q-35 0 -46 18.5t-11 34.5zM1554 -340q0 -12 5.5 -21.5t21.5 -9.5q14 1 18 11q4 4 4.5 10t0.5 10q0 18 -4.5 25.5t-18.5 7.5q-18 0 -22.5 -9.5t-4.5 -23.5zM1559 602 l4 -10l53 43l-21 2zM1569 690l26 -47l29 -2l117 92l-139 -4zM1602 -43h12v29h28v-29h21v-20h-21v-58q0 -10 13 -10l8 2v-23h-21q-16 0 -22 7.5t-6 15.5v66h-12v20zM1638 737l103 -4l41 31zM1645 870q2 6 9 18.5t16 25t18.5 19.5t15.5 3t3 -12.5t-10 -17.5t-15.5 -16 t-12.5 -9l-2 -2zM1655 -285h26v-16q10 20 31 20q12 0 18.5 -6t10.5 -12q2 4 10 11t21 7q10 0 19 -6t11 -14q6 -6 6 -16v-74h-28v63q0 20 -17 21q-18 0 -18 -21v-63h-27v63q0 8 -3 14.5t-13 6.5q-20 0 -21 -19v-65h-26v106z" />
<glyph unicode="4" d="M68 252l100 194l-41 160l94 21v184l105 20l-90 13l104 -10l53 8l23 22l-21 47l-137 43l139 -36l39 30l-10 47l-127 68l133 -57l45 22l-4 51l-117 84l121 -82l49 19l6 49l-106 102l109 -94l53 8l10 47l-86 115l92 -106h51l19 45l-70 125l78 -119l49 -8l27 43l-51 137 l57 -135l49 -15l33 39l-31 142l37 -138l43 -22l41 35l-8 141l18 -141l39 -29l41 29l16 141l-6 -141l37 -35l47 22l33 138l-25 -142l29 -39l49 15l58 135l-50 -137l27 -43l51 8l74 119l-68 -125l17 -45h51l96 106l-88 -115l12 -47l50 -8l108 94l-102 -102l2 -49l51 -19 l119 82l-115 -84l-4 -26l287 55v-184l149 30l-104 -196l53 -160l-276 -51l110 -37l-121 33l-34 -8l-29 -17l14 -49l129 -68l-135 60l-43 -21v-51l119 -88l-119 82l-51 -18l-2 -48l102 -104l-108 98l-50 -10l-12 -47l88 -115l-96 109h-51l-17 -47l68 -125l-74 121l-51 8 l-27 -41l50 -141l-58 135l-49 12l-29 -39l25 -141l-33 137l-47 27l-37 -35l6 -146l-16 146l-41 28l-39 -28l-18 -146l8 146l-41 35l-43 -27l-37 -137l31 141l-33 39l-49 -12l-57 -135l51 141l-27 41l-49 -8l-78 -121l70 125l-19 47h-51l-92 -109l86 115l-10 47l-53 10 l-109 -98l106 104l-2 23l-170 -35zM162 -285h31l16 -77l14 77h31l14 -77l19 77h28l-30 -106h-29l-18 78l-17 -78h-28zM221 465l127 -37l78 41l10 33zM295 543q4 -10 11 2t11 18q16 33 40 64.5t46 62.5q10 16 14.5 27.5t-5.5 19.5q-4 8 -14.5 11.5t-18.5 -11.5 q-16 -31 -34 -62.5t-30 -64.5q-4 -10 -16 -32.5t-4 -34.5zM309 670q0 -4 7.5 -3t14.5 5t12 11t3 13q-4 20 22.5 44t52 33t38 -5t-18.5 -72q-6 -10 -15 -22t-19 -21q-6 -8 -19.5 -13t-13.5 -13q-4 -6 1 -6t12 3t15.5 6t10.5 3q27 14 49 43q20 23 37.5 53.5t5.5 50.5 q-8 23 -37 21t-51 -10q-53 -23 -94 -74q-4 -10 -10.5 -24.5t-2.5 -22.5zM319 -285h29l19 -77l14 77h29l16 -77l16 77h31l-33 -106h-26l-19 78l-18 -78h-29zM324 -78q0 25 16 50.5t55 25.5h4q16 0 37 -15.5t21 -33.5h-31q0 10 -9 17t-22 7q-6 0 -17 -4t-16.5 -17t-5.5 -32 q0 -25 9.5 -36t23.5 -13h6q18 0 27.5 11.5t9.5 19.5h-37v26h62v-80h-21l-2 19q-12 -18 -26.5 -20.5t-20.5 -2.5q-14 0 -25.5 6.5t-19.5 16.5q-18 18 -18 55zM352 426l121 -37l4 51l-45 21zM420 907l20 -51l-4 -6l25 6l-21 45l47 31l-14 49l47 20l-6 52l49 16l4 51l51 8 l13 48h51l18 51l52 -6l26 43l49 -15l31 41l51 -24l33 34l43 -28l43 28l41 -34l41 24l33 -41l51 15l23 -43l55 6l16 -51h53l11 -48l53 -8v-51l51 -16v-4h17v16l-52 14l-2 54l-53 10l-10 51h-56l-20 51l-51 -8l-29 47l-49 -18l-35 43l-47 -25l-39 37l-45 -31l-45 31l-39 -37 l-49 25l-31 -43l-51 18l-25 -47l-55 8l-16 -51h-56l-12 -51l-51 -10l-6 -54l-51 -14l2 -51l-45 -23l12 -55zM455 479l45 -24l-2 -54l51 -16l6 -53l51 -10l12 -52h56l16 -47l55 8l25 -49l51 19l31 -41l49 22l39 -39l45 31l45 -31l39 39l47 -22l35 41l49 -19l29 49l51 -8 l20 47h56l10 52l53 10l2 53l52 16l-5 54l48 24l-11 49l45 31l-20 51l39 33l-27 49l25 29l-25 -4l-20 -21l28 -47l-41 -37l21 -47l-43 -30l12 -50l-47 -22l4 -51l-51 -15v-53l-53 -4l-11 -51h-53l-16 -49l-55 8l-23 -43l-51 16l-33 -41l-41 23l-41 -39l-43 31l-43 -31l-33 39 l-51 -23l-31 41l-49 -16l-26 43l-52 -8l-18 49h-51l-13 51l-51 4l-4 53l-49 15l6 51l-47 22l6 31l-18 -4zM460 619.5q-3 -21.5 7 -35t39 -4.5q23 8 44 26.5t38 40.5v2q10 10 19.5 35t17.5 33q6 -8 2 -21.5t-11.5 -29t-13.5 -29.5t-2 -27q10 -20 27.5 -6t34.5 37 q4 -25 22 -25q16 0 33.5 8.5t34.5 18.5l16 21q0 -16 9 -24.5t34 1.5q10 4 23.5 13.5t23.5 21.5q23 0 37 14q-8 -16 -8 -26.5t4 -8.5q10 2 24.5 24.5t24.5 33.5q12 18 27.5 35.5t31.5 35.5q-10 -23 -20 -44t-21 -44q-6 -25 12.5 -23.5t35.5 17.5l24 23q0 -14 12 -21 q16 -6 32 6.5t26 28.5q-2 -18 4 -23.5t15 -2t21.5 12.5t22.5 19q0 -20 13.5 -21t33.5 21q12 12 20.5 24.5t16.5 22.5q0 10 -1 16.5t-11 -3.5t-15.5 -22.5t-15.5 -22.5q-10 -14 -19 -14.5t1 16.5q10 23 25.5 47t31.5 47l72 110q6 8 2 17.5t-11.5 15.5t-15.5 7t-10 -9 q-33 -51 -62.5 -105.5t-50.5 -109.5q-4 -4 -4 -6v-4q-8 -10 -17 -22.5t-24 -20.5q-4 0 -2 6t7.5 14t10.5 15l5 8q6 8 14 21.5t2 19.5q-6 16 -15 10t-14 -10q-12 -18 -20 -39t-25 -41q-10 -12 -15 -11t-6 7t1 15t6 18q25 41 59 63q4 2 14.5 5l21 6t16.5 7.5t2 10.5 q-8 10 -34 4t-40 -12q-20 -14 -38.5 -33t-29.5 -41q0 -4 -6 -10l-30 -43q-12 -10 -17.5 -12.5t-5.5 2.5t4 13.5t8 16.5q6 6 14.5 17.5t16.5 22.5t13 22.5t3 17.5q-10 23 -35.5 1t-50.5 -52l17 24q6 12 3 17.5t-10.5 5.5t-15.5 -2t-10 -4q-4 -4 -13 -25.5t-18 -44.5 q-10 -8 -15 -16.5t-17 -14.5q14 18 21 39t5 36t-13 21.5t-32 -1.5q-20 -10 -41.5 -36t-34.5 -50q-10 -10 -19 -26.5t-15 -21.5q12 20 16 38t4 34q-4 14 -3 30.5t-7 24.5q-8 12 -20.5 -6t-18.5 -28q-18 -29 -35.5 -62t-42.5 -55q-10 -8 -13 -8t-2 5t4 12t5 11q4 4 9 10.5 t9 14.5q6 8 11 18q6 12 -0.5 17.5t-14.5 9.5t-13 9t1 18q10 16 1 15t-17 -15q-2 -10 -6.5 -17.5t-8.5 -15.5l-22 -47q-2 0 -2 -2q-2 -2 -2 -4q-4 -4 -11.5 -14.5t-11.5 -16.5q-6 -4 -15.5 -13.5t-19.5 -15.5t-19 -9t-14 5q-2 8 1.5 16.5t7.5 16.5q10 0 22 4t15 6q2 4 2 0 q8 6 19 16.5t19.5 22.5t12.5 24.5t0 20.5q-10 16 -36 6t-42 -26q-20 -16 -33.5 -41t-16.5 -46.5zM475 -94q0 23 11.5 38t39.5 15q29 0 39 -18.5t10 -38.5v-8h-73q0 -8 6 -16.5t20 -8.5q8 0 13.5 5t5.5 7h28q-4 -16 -18 -25.5t-29 -9.5q-53 0 -53 60zM475 -285h31l16 -77 l15 77h30l15 -77l16 77h31l-33 -106h-27l-16 78l-18 -78h-29zM506 -86h43q-6 23 -23 23q-18 0 -20 -23zM506 649q2 6 10 18.5t17.5 25t18.5 20.5t15 4q10 -8 4 -18.5t-18 -20.5t-26.5 -18.5t-20.5 -10.5zM584 -43h14v29h31v-29h16v-20h-16v-58q0 -8 1 -9t9 -1l6 2v-23h-16 q-18 0 -24.5 4.5t-6.5 18.5v66h-14v20zM606 885l678 129q-57 59 -133 94t-166 35q-66 0 -124 -19.5t-108.5 -53.5t-88 -81t-58.5 -104zM625 543q51 -98 147 -159.5t213 -61.5q80 0 150.5 28.5t124 77.5t88 116.5t45.5 145.5zM629 -362h28v-29h-28v29zM684 -285h27v-16 q8 20 30 20q20 0 31 -18q6 18 27 18q14 0 22 -8q4 -4 9.5 -10t5.5 -18v-74h-25v63q0 20 -18 21q-18 0 -19 -21v-63h-29v74q0 4 -3 7t-13 3q-18 0 -18 -19v-65h-27v106zM686 639q0 6 3 13t9 7q8 0 10.5 6.5t2.5 12.5t-4.5 12t-8.5 6q4 8 11.5 16.5t15.5 20.5q8 -12 5 -38 t-19 -46q-14 -16 -19.5 -16t-5.5 6zM707 -43h14v8q0 29 31 29h16v-21h-8l-8 -2v-14h16v-20h-16v-89h-31v89h-14v20zM784 -43h27v-68q0 -18 20 -18h11q10 8 12 23v63h27v-109h-27v17q-8 -10 -18.5 -14.5t-14.5 -4.5q-37 0 -37 39v72zM784 670q0 4 2 8t5 12q2 4 5 9.5t3 7.5 q2 8 7 14t7 16q-2 -20 0 -36.5t18 -22.5q-12 -10 -29.5 -20.5t-17.5 12.5zM828.5 728q2.5 26 23.5 42q14 8 15 0t-3 -22.5t-11 -30t-11 -21.5q-16 6 -13.5 32zM854 -365q0 31 33 35l24 4q8 2 9 9q0 12 -17 12q-16 0 -16 -14h-29q0 14 6 22t17 12q10 4 22 4q27 0 36 -10 t9 -20v-60q0 -10 2 -12q0 -4 4 -4v-4h-28l-2 2v2q-2 0 -2 8l-21 -12q0 -2 -12 -2q-35 0 -35 28zM883 -362q0 -10 14 -11h4l6 2l8 4q4 4 5 13v14q-4 -4 -9 -4l-14 -2l-10 -6q-4 -4 -4 -10zM907 -6h27v-146h-27v146zM926 711q4 12 13 23t17 22zM956 -6h27v-146h-27v146z M963 -285h28l19 -77l14 77h29l16 -77l18 77h27l-29 -106h-30l-17 78l-16 -78h-31zM1055 -43h14v8q0 29 33 29h12v-21h-6q-6 0 -6 -1t-4 -5v-10h20v-20h-20v-89h-29v89h-14v20zM1128 -98q0 23 12.5 40t41.5 17q18 0 25.5 -4t13.5 -10q8 -12 11 -20.5t3 -22.5 q0 -23 -13.5 -39.5t-39.5 -16.5q-23 0 -38.5 13.5t-15.5 42.5zM1128 -285h29v-16q10 20 31 20q12 0 20 -6q10 -4 14.5 -14t4.5 -16v-74h-29v63q0 14 -4 17.5t-14 3.5q-12 0 -16.5 -7.5t-4.5 -17.5v-59h-31v106zM1155 -98q0 -10 4 -20.5t23 -10.5q16 0 20 10q4 4 4 21 q0 33 -24 32q-14 0 -20.5 -10t-6.5 -22zM1247 -363.5q0 7.5 27 7.5q0 -14 24 -15q16 0 17 9q0 6 -10 8l-25 6q-14 4 -22.5 10t-8.5 21q0 6 8.5 21t34.5 15q35 0 45 -20l4 -16h-30q0 6 -2 9t-15 3q-16 0 -16 -8q0 -6 8 -9l25 -6q14 -4 24 -10q8 -4 8 -18q0 -37 -47 -37h-10 q-16 0 -24.5 5t-11.5 11t-3 13.5zM1255 -43h27v-14q12 16 33 16q12 0 20 -4l13 -10q6 -12 6 -21v-76h-29v66q0 6 -2 13t-16 7q-12 0 -16.5 -4t-4.5 -20v-62h-31v109zM1343.5 796.5q-8.5 -32.5 2.5 -53.5q6 -12 17 -9t22.5 13.5t21.5 23.5t14 22q-2 -14 -2 -33t23 -6 q12 4 23.5 16t21.5 27q4 -20 18 -21q16 0 33.5 9.5t34.5 19.5l26 26q0 -18 11.5 -27t34.5 -3q47 18 77 67q0 2 3.5 8.5t4.5 11.5t0 7t-10 -4q-8 -4 -13 -14.5t-11 -20.5q-6 -6 -16.5 -14t-20.5 -15.5t-19.5 -9.5t-13.5 6q-2 8 1 15.5t5 17.5q10 0 27.5 6t13.5 6 q10 4 21.5 14.5t19.5 23t11.5 23.5t-3.5 19q-10 16 -34.5 6t-40.5 -26q-16 -12 -25.5 -29.5t-19.5 -36.5q-6 -10 -15.5 -25.5t-17.5 -19.5q27 37 20 74q-2 12 0 28.5t-6 24.5q-6 6 -11 4t-11.5 -9t-11.5 -15.5t-7 -12.5l-43 -67q-14 -16 -23.5 -36t-29.5 -34q-8 -6 -6 1 t7 18.5t11 21.5t6 12l52 97q8 14 21 34.5t9 34.5q-4 4 -16.5 11t-20.5 -9q-12 -25 -26.5 -52.5t-24.5 -55.5q-12 -29 -28.5 -61.5t-40.5 -57.5q-14 -16 -16.5 -10t0.5 19.5t8 29.5t8 20q12 31 27.5 62t35.5 59q8 10 7 20.5t-7 16.5t-14 5t-17 -15q-16 -29 -31.5 -60.5 t-27.5 -60.5q-10 -25 -18.5 -57.5zM1366 -43h18v29h25v-29h18v-20h-18v-58q0 -8 4 -9t8 -1l6 2v-23h-18q-25 0 -25 11v78h-18v20zM1366 -362h29v-29h-29v29zM1415 -340q0 23 10.5 41t36.5 18q23 0 36 -12t13 -31h-28q0 4 -3.5 10.5t-15.5 6.5t-16 -9.5t-4 -19.5q0 -23 3 -29 t17 -6q18 0 19 19h28q0 -6 -8 -23.5t-41 -17.5q-23 0 -35 11t-12 42zM1493 -121q0 18 10 23.5t21 9.5l26 4q10 0 11 8q0 12 -17 13q-6 0 -12 -2.5t-8 -14.5h-27q4 12 8 25.5t25 13.5h14q18 0 28.5 -5t12.5 -10t2 -12v-73q0 -4 8 -4v-7h-32v2v5q0 2 -1 4t-1 4 q-4 -6 -10.5 -10.5t-8.5 -4.5l-8 -2h-8t-19.5 7.5t-13.5 25.5zM1508 801q-1 4 2 11t12 9q16 2 12 18.5t-12 16.5l24 37q10 -14 7 -39t-21 -43q-10 -12 -16.5 -13t-7.5 3zM1522 -121q0 -12 14 -12h8q8 2 12.5 10t4.5 10v15q-6 -4 -13 -4l-12 -4q-4 0 -9 -4.5t-5 -10.5z M1524 -340q0 39 20.5 49t36.5 10q10 0 18.5 -4t22.5 -10q4 -6 8 -16.5t4 -28.5q0 -23 -13 -38t-40 -15q-35 0 -46 18.5t-11 34.5zM1554 -340q0 -12 5.5 -21.5t21.5 -9.5q14 1 18 11q4 4 4.5 10t0.5 10q0 18 -4.5 25.5t-18.5 7.5q-18 0 -22.5 -9.5t-4.5 -23.5zM1559 602 l4 -10l53 43l-21 2zM1569 690l26 -47l29 -2l117 92l-139 -4zM1602 -43h12v29h28v-29h21v-20h-21v-58q0 -10 13 -10l8 2v-23h-21q-16 0 -22 7.5t-6 15.5v66h-12v20zM1638 737l103 -4l41 31zM1645 870q2 6 9 18.5t16 25t18.5 19.5t15.5 3t3 -12.5t-10 -17.5t-15.5 -16 t-12.5 -9l-2 -2zM1655 -285h26v-16q10 20 31 20q12 0 18.5 -6t10.5 -12q2 4 10 11t21 7q10 0 19 -6t11 -14q6 -6 6 -16v-74h-28v63q0 20 -17 21q-18 0 -18 -21v-63h-27v63q0 8 -3 14.5t-13 6.5q-20 0 -21 -19v-65h-26v106z" />
<glyph unicode="5" d="M68 252l100 194l-41 160l94 21v184l105 20l-90 13l104 -10l53 8l23 22l-21 47l-137 43l139 -36l39 30l-10 47l-127 68l133 -57l45 22l-4 51l-117 84l121 -82l49 19l6 49l-106 102l109 -94l53 8l10 47l-86 115l92 -106h51l19 45l-70 125l78 -119l49 -8l27 43l-51 137 l57 -135l49 -15l33 39l-31 142l37 -138l43 -22l41 35l-8 141l18 -141l39 -29l41 29l16 141l-6 -141l37 -35l47 22l33 138l-25 -142l29 -39l49 15l58 135l-50 -137l27 -43l51 8l74 119l-68 -125l17 -45h51l96 106l-88 -115l12 -47l50 -8l108 94l-102 -102l2 -49l51 -19 l119 82l-115 -84l-4 -26l287 55v-184l149 30l-104 -196l53 -160l-276 -51l110 -37l-121 33l-34 -8l-29 -17l14 -49l129 -68l-135 60l-43 -21v-51l119 -88l-119 82l-51 -18l-2 -48l102 -104l-108 98l-50 -10l-12 -47l88 -115l-96 109h-51l-17 -47l68 -125l-74 121l-51 8 l-27 -41l50 -141l-58 135l-49 12l-29 -39l25 -141l-33 137l-47 27l-37 -35l6 -146l-16 146l-41 28l-39 -28l-18 -146l8 146l-41 35l-43 -27l-37 -137l31 141l-33 39l-49 -12l-57 -135l51 141l-27 41l-49 -8l-78 -121l70 125l-19 47h-51l-92 -109l86 115l-10 47l-53 10 l-109 -98l106 104l-2 23l-170 -35zM162 -285h31l16 -77l14 77h31l14 -77l19 77h28l-30 -106h-29l-18 78l-17 -78h-28zM221 465l127 -37l78 41l10 33zM295 543q4 -10 11 2t11 18q16 33 40 64.5t46 62.5q10 16 14.5 27.5t-5.5 19.5q-4 8 -14.5 11.5t-18.5 -11.5 q-16 -31 -34 -62.5t-30 -64.5q-4 -10 -16 -32.5t-4 -34.5zM309 670q0 -4 7.5 -3t14.5 5t12 11t3 13q-4 20 22.5 44t52 33t38 -5t-18.5 -72q-6 -10 -15 -22t-19 -21q-6 -8 -19.5 -13t-13.5 -13q-4 -6 1 -6t12 3t15.5 6t10.5 3q27 14 49 43q20 23 37.5 53.5t5.5 50.5 q-8 23 -37 21t-51 -10q-53 -23 -94 -74q-4 -10 -10.5 -24.5t-2.5 -22.5zM319 -285h29l19 -77l14 77h29l16 -77l16 77h31l-33 -106h-26l-19 78l-18 -78h-29zM324 -78q0 25 16 50.5t55 25.5h4q16 0 37 -15.5t21 -33.5h-31q0 10 -9 17t-22 7q-6 0 -17 -4t-16.5 -17t-5.5 -32 q0 -25 9.5 -36t23.5 -13h6q18 0 27.5 11.5t9.5 19.5h-37v26h62v-80h-21l-2 19q-12 -18 -26.5 -20.5t-20.5 -2.5q-14 0 -25.5 6.5t-19.5 16.5q-18 18 -18 55zM352 426l121 -37l4 51l-45 21zM420 907l20 -51l-4 -6l25 6l-21 45l47 31l-14 49l47 20l-6 52l49 16l4 51l51 8 l13 48h51l18 51l52 -6l26 43l49 -15l31 41l51 -24l33 34l43 -28l43 28l41 -34l41 24l33 -41l51 15l23 -43l55 6l16 -51h53l11 -48l53 -8v-51l51 -16v-4h17v16l-52 14l-2 54l-53 10l-10 51h-56l-20 51l-51 -8l-29 47l-49 -18l-35 43l-47 -25l-39 37l-45 -31l-45 31l-39 -37 l-49 25l-31 -43l-51 18l-25 -47l-55 8l-16 -51h-56l-12 -51l-51 -10l-6 -54l-51 -14l2 -51l-45 -23l12 -55zM455 479l45 -24l-2 -54l51 -16l6 -53l51 -10l12 -52h56l16 -47l55 8l25 -49l51 19l31 -41l49 22l39 -39l45 31l45 -31l39 39l47 -22l35 41l49 -19l29 49l51 -8 l20 47h56l10 52l53 10l2 53l52 16l-5 54l48 24l-11 49l45 31l-20 51l39 33l-27 49l25 29l-25 -4l-20 -21l28 -47l-41 -37l21 -47l-43 -30l12 -50l-47 -22l4 -51l-51 -15v-53l-53 -4l-11 -51h-53l-16 -49l-55 8l-23 -43l-51 16l-33 -41l-41 23l-41 -39l-43 31l-43 -31l-33 39 l-51 -23l-31 41l-49 -16l-26 43l-52 -8l-18 49h-51l-13 51l-51 4l-4 53l-49 15l6 51l-47 22l6 31l-18 -4zM460 619.5q-3 -21.5 7 -35t39 -4.5q23 8 44 26.5t38 40.5v2q10 10 19.5 35t17.5 33q6 -8 2 -21.5t-11.5 -29t-13.5 -29.5t-2 -27q10 -20 27.5 -6t34.5 37 q4 -25 22 -25q16 0 33.5 8.5t34.5 18.5l16 21q0 -16 9 -24.5t34 1.5q10 4 23.5 13.5t23.5 21.5q23 0 37 14q-8 -16 -8 -26.5t4 -8.5q10 2 24.5 24.5t24.5 33.5q12 18 27.5 35.5t31.5 35.5q-10 -23 -20 -44t-21 -44q-6 -25 12.5 -23.5t35.5 17.5l24 23q0 -14 12 -21 q16 -6 32 6.5t26 28.5q-2 -18 4 -23.5t15 -2t21.5 12.5t22.5 19q0 -20 13.5 -21t33.5 21q12 12 20.5 24.5t16.5 22.5q0 10 -1 16.5t-11 -3.5t-15.5 -22.5t-15.5 -22.5q-10 -14 -19 -14.5t1 16.5q10 23 25.5 47t31.5 47l72 110q6 8 2 17.5t-11.5 15.5t-15.5 7t-10 -9 q-33 -51 -62.5 -105.5t-50.5 -109.5q-4 -4 -4 -6v-4q-8 -10 -17 -22.5t-24 -20.5q-4 0 -2 6t7.5 14t10.5 15l5 8q6 8 14 21.5t2 19.5q-6 16 -15 10t-14 -10q-12 -18 -20 -39t-25 -41q-10 -12 -15 -11t-6 7t1 15t6 18q25 41 59 63q4 2 14.5 5l21 6t16.5 7.5t2 10.5 q-8 10 -34 4t-40 -12q-20 -14 -38.5 -33t-29.5 -41q0 -4 -6 -10l-30 -43q-12 -10 -17.5 -12.5t-5.5 2.5t4 13.5t8 16.5q6 6 14.5 17.5t16.5 22.5t13 22.5t3 17.5q-10 23 -35.5 1t-50.5 -52l17 24q6 12 3 17.5t-10.5 5.5t-15.5 -2t-10 -4q-4 -4 -13 -25.5t-18 -44.5 q-10 -8 -15 -16.5t-17 -14.5q14 18 21 39t5 36t-13 21.5t-32 -1.5q-20 -10 -41.5 -36t-34.5 -50q-10 -10 -19 -26.5t-15 -21.5q12 20 16 38t4 34q-4 14 -3 30.5t-7 24.5q-8 12 -20.5 -6t-18.5 -28q-18 -29 -35.5 -62t-42.5 -55q-10 -8 -13 -8t-2 5t4 12t5 11q4 4 9 10.5 t9 14.5q6 8 11 18q6 12 -0.5 17.5t-14.5 9.5t-13 9t1 18q10 16 1 15t-17 -15q-2 -10 -6.5 -17.5t-8.5 -15.5l-22 -47q-2 0 -2 -2q-2 -2 -2 -4q-4 -4 -11.5 -14.5t-11.5 -16.5q-6 -4 -15.5 -13.5t-19.5 -15.5t-19 -9t-14 5q-2 8 1.5 16.5t7.5 16.5q10 0 22 4t15 6q2 4 2 0 q8 6 19 16.5t19.5 22.5t12.5 24.5t0 20.5q-10 16 -36 6t-42 -26q-20 -16 -33.5 -41t-16.5 -46.5zM475 -94q0 23 11.5 38t39.5 15q29 0 39 -18.5t10 -38.5v-8h-73q0 -8 6 -16.5t20 -8.5q8 0 13.5 5t5.5 7h28q-4 -16 -18 -25.5t-29 -9.5q-53 0 -53 60zM475 -285h31l16 -77 l15 77h30l15 -77l16 77h31l-33 -106h-27l-16 78l-18 -78h-29zM506 -86h43q-6 23 -23 23q-18 0 -20 -23zM506 649q2 6 10 18.5t17.5 25t18.5 20.5t15 4q10 -8 4 -18.5t-18 -20.5t-26.5 -18.5t-20.5 -10.5zM584 -43h14v29h31v-29h16v-20h-16v-58q0 -8 1 -9t9 -1l6 2v-23h-16 q-18 0 -24.5 4.5t-6.5 18.5v66h-14v20zM606 885l678 129q-57 59 -133 94t-166 35q-66 0 -124 -19.5t-108.5 -53.5t-88 -81t-58.5 -104zM625 543q51 -98 147 -159.5t213 -61.5q80 0 150.5 28.5t124 77.5t88 116.5t45.5 145.5zM629 -362h28v-29h-28v29zM684 -285h27v-16 q8 20 30 20q20 0 31 -18q6 18 27 18q14 0 22 -8q4 -4 9.5 -10t5.5 -18v-74h-25v63q0 20 -18 21q-18 0 -19 -21v-63h-29v74q0 4 -3 7t-13 3q-18 0 -18 -19v-65h-27v106zM686 639q0 6 3 13t9 7q8 0 10.5 6.5t2.5 12.5t-4.5 12t-8.5 6q4 8 11.5 16.5t15.5 20.5q8 -12 5 -38 t-19 -46q-14 -16 -19.5 -16t-5.5 6zM707 -43h14v8q0 29 31 29h16v-21h-8l-8 -2v-14h16v-20h-16v-89h-31v89h-14v20zM784 -43h27v-68q0 -18 20 -18h11q10 8 12 23v63h27v-109h-27v17q-8 -10 -18.5 -14.5t-14.5 -4.5q-37 0 -37 39v72zM784 670q0 4 2 8t5 12q2 4 5 9.5t3 7.5 q2 8 7 14t7 16q-2 -20 0 -36.5t18 -22.5q-12 -10 -29.5 -20.5t-17.5 12.5zM828.5 728q2.5 26 23.5 42q14 8 15 0t-3 -22.5t-11 -30t-11 -21.5q-16 6 -13.5 32zM854 -365q0 31 33 35l24 4q8 2 9 9q0 12 -17 12q-16 0 -16 -14h-29q0 14 6 22t17 12q10 4 22 4q27 0 36 -10 t9 -20v-60q0 -10 2 -12q0 -4 4 -4v-4h-28l-2 2v2q-2 0 -2 8l-21 -12q0 -2 -12 -2q-35 0 -35 28zM883 -362q0 -10 14 -11h4l6 2l8 4q4 4 5 13v14q-4 -4 -9 -4l-14 -2l-10 -6q-4 -4 -4 -10zM907 -6h27v-146h-27v146zM926 711q4 12 13 23t17 22zM956 -6h27v-146h-27v146z M963 -285h28l19 -77l14 77h29l16 -77l18 77h27l-29 -106h-30l-17 78l-16 -78h-31zM1055 -43h14v8q0 29 33 29h12v-21h-6q-6 0 -6 -1t-4 -5v-10h20v-20h-20v-89h-29v89h-14v20zM1128 -98q0 23 12.5 40t41.5 17q18 0 25.5 -4t13.5 -10q8 -12 11 -20.5t3 -22.5 q0 -23 -13.5 -39.5t-39.5 -16.5q-23 0 -38.5 13.5t-15.5 42.5zM1128 -285h29v-16q10 20 31 20q12 0 20 -6q10 -4 14.5 -14t4.5 -16v-74h-29v63q0 14 -4 17.5t-14 3.5q-12 0 -16.5 -7.5t-4.5 -17.5v-59h-31v106zM1155 -98q0 -10 4 -20.5t23 -10.5q16 0 20 10q4 4 4 21 q0 33 -24 32q-14 0 -20.5 -10t-6.5 -22zM1247 -363.5q0 7.5 27 7.5q0 -14 24 -15q16 0 17 9q0 6 -10 8l-25 6q-14 4 -22.5 10t-8.5 21q0 6 8.5 21t34.5 15q35 0 45 -20l4 -16h-30q0 6 -2 9t-15 3q-16 0 -16 -8q0 -6 8 -9l25 -6q14 -4 24 -10q8 -4 8 -18q0 -37 -47 -37h-10 q-16 0 -24.5 5t-11.5 11t-3 13.5zM1255 -43h27v-14q12 16 33 16q12 0 20 -4l13 -10q6 -12 6 -21v-76h-29v66q0 6 -2 13t-16 7q-12 0 -16.5 -4t-4.5 -20v-62h-31v109zM1343.5 796.5q-8.5 -32.5 2.5 -53.5q6 -12 17 -9t22.5 13.5t21.5 23.5t14 22q-2 -14 -2 -33t23 -6 q12 4 23.5 16t21.5 27q4 -20 18 -21q16 0 33.5 9.5t34.5 19.5l26 26q0 -18 11.5 -27t34.5 -3q47 18 77 67q0 2 3.5 8.5t4.5 11.5t0 7t-10 -4q-8 -4 -13 -14.5t-11 -20.5q-6 -6 -16.5 -14t-20.5 -15.5t-19.5 -9.5t-13.5 6q-2 8 1 15.5t5 17.5q10 0 27.5 6t13.5 6 q10 4 21.5 14.5t19.5 23t11.5 23.5t-3.5 19q-10 16 -34.5 6t-40.5 -26q-16 -12 -25.5 -29.5t-19.5 -36.5q-6 -10 -15.5 -25.5t-17.5 -19.5q27 37 20 74q-2 12 0 28.5t-6 24.5q-6 6 -11 4t-11.5 -9t-11.5 -15.5t-7 -12.5l-43 -67q-14 -16 -23.5 -36t-29.5 -34q-8 -6 -6 1 t7 18.5t11 21.5t6 12l52 97q8 14 21 34.5t9 34.5q-4 4 -16.5 11t-20.5 -9q-12 -25 -26.5 -52.5t-24.5 -55.5q-12 -29 -28.5 -61.5t-40.5 -57.5q-14 -16 -16.5 -10t0.5 19.5t8 29.5t8 20q12 31 27.5 62t35.5 59q8 10 7 20.5t-7 16.5t-14 5t-17 -15q-16 -29 -31.5 -60.5 t-27.5 -60.5q-10 -25 -18.5 -57.5zM1366 -43h18v29h25v-29h18v-20h-18v-58q0 -8 4 -9t8 -1l6 2v-23h-18q-25 0 -25 11v78h-18v20zM1366 -362h29v-29h-29v29zM1415 -340q0 23 10.5 41t36.5 18q23 0 36 -12t13 -31h-28q0 4 -3.5 10.5t-15.5 6.5t-16 -9.5t-4 -19.5q0 -23 3 -29 t17 -6q18 0 19 19h28q0 -6 -8 -23.5t-41 -17.5q-23 0 -35 11t-12 42zM1493 -121q0 18 10 23.5t21 9.5l26 4q10 0 11 8q0 12 -17 13q-6 0 -12 -2.5t-8 -14.5h-27q4 12 8 25.5t25 13.5h14q18 0 28.5 -5t12.5 -10t2 -12v-73q0 -4 8 -4v-7h-32v2v5q0 2 -1 4t-1 4 q-4 -6 -10.5 -10.5t-8.5 -4.5l-8 -2h-8t-19.5 7.5t-13.5 25.5zM1508 801q-1 4 2 11t12 9q16 2 12 18.5t-12 16.5l24 37q10 -14 7 -39t-21 -43q-10 -12 -16.5 -13t-7.5 3zM1522 -121q0 -12 14 -12h8q8 2 12.5 10t4.5 10v15q-6 -4 -13 -4l-12 -4q-4 0 -9 -4.5t-5 -10.5z M1524 -340q0 39 20.5 49t36.5 10q10 0 18.5 -4t22.5 -10q4 -6 8 -16.5t4 -28.5q0 -23 -13 -38t-40 -15q-35 0 -46 18.5t-11 34.5zM1554 -340q0 -12 5.5 -21.5t21.5 -9.5q14 1 18 11q4 4 4.5 10t0.5 10q0 18 -4.5 25.5t-18.5 7.5q-18 0 -22.5 -9.5t-4.5 -23.5zM1559 602 l4 -10l53 43l-21 2zM1569 690l26 -47l29 -2l117 92l-139 -4zM1602 -43h12v29h28v-29h21v-20h-21v-58q0 -10 13 -10l8 2v-23h-21q-16 0 -22 7.5t-6 15.5v66h-12v20zM1638 737l103 -4l41 31zM1645 870q2 6 9 18.5t16 25t18.5 19.5t15.5 3t3 -12.5t-10 -17.5t-15.5 -16 t-12.5 -9l-2 -2zM1655 -285h26v-16q10 20 31 20q12 0 18.5 -6t10.5 -12q2 4 10 11t21 7q10 0 19 -6t11 -14q6 -6 6 -16v-74h-28v63q0 20 -17 21q-18 0 -18 -21v-63h-27v63q0 8 -3 14.5t-13 6.5q-20 0 -21 -19v-65h-26v106z" />
<glyph unicode="6" d="M68 252l100 194l-41 160l94 21v184l105 20l-90 13l104 -10l53 8l23 22l-21 47l-137 43l139 -36l39 30l-10 47l-127 68l133 -57l45 22l-4 51l-117 84l121 -82l49 19l6 49l-106 102l109 -94l53 8l10 47l-86 115l92 -106h51l19 45l-70 125l78 -119l49 -8l27 43l-51 137 l57 -135l49 -15l33 39l-31 142l37 -138l43 -22l41 35l-8 141l18 -141l39 -29l41 29l16 141l-6 -141l37 -35l47 22l33 138l-25 -142l29 -39l49 15l58 135l-50 -137l27 -43l51 8l74 119l-68 -125l17 -45h51l96 106l-88 -115l12 -47l50 -8l108 94l-102 -102l2 -49l51 -19 l119 82l-115 -84l-4 -26l287 55v-184l149 30l-104 -196l53 -160l-276 -51l110 -37l-121 33l-34 -8l-29 -17l14 -49l129 -68l-135 60l-43 -21v-51l119 -88l-119 82l-51 -18l-2 -48l102 -104l-108 98l-50 -10l-12 -47l88 -115l-96 109h-51l-17 -47l68 -125l-74 121l-51 8 l-27 -41l50 -141l-58 135l-49 12l-29 -39l25 -141l-33 137l-47 27l-37 -35l6 -146l-16 146l-41 28l-39 -28l-18 -146l8 146l-41 35l-43 -27l-37 -137l31 141l-33 39l-49 -12l-57 -135l51 141l-27 41l-49 -8l-78 -121l70 125l-19 47h-51l-92 -109l86 115l-10 47l-53 10 l-109 -98l106 104l-2 23l-170 -35zM162 -285h31l16 -77l14 77h31l14 -77l19 77h28l-30 -106h-29l-18 78l-17 -78h-28zM221 465l127 -37l78 41l10 33zM295 543q4 -10 11 2t11 18q16 33 40 64.5t46 62.5q10 16 14.5 27.5t-5.5 19.5q-4 8 -14.5 11.5t-18.5 -11.5 q-16 -31 -34 -62.5t-30 -64.5q-4 -10 -16 -32.5t-4 -34.5zM309 670q0 -4 7.5 -3t14.5 5t12 11t3 13q-4 20 22.5 44t52 33t38 -5t-18.5 -72q-6 -10 -15 -22t-19 -21q-6 -8 -19.5 -13t-13.5 -13q-4 -6 1 -6t12 3t15.5 6t10.5 3q27 14 49 43q20 23 37.5 53.5t5.5 50.5 q-8 23 -37 21t-51 -10q-53 -23 -94 -74q-4 -10 -10.5 -24.5t-2.5 -22.5zM319 -285h29l19 -77l14 77h29l16 -77l16 77h31l-33 -106h-26l-19 78l-18 -78h-29zM324 -78q0 25 16 50.5t55 25.5h4q16 0 37 -15.5t21 -33.5h-31q0 10 -9 17t-22 7q-6 0 -17 -4t-16.5 -17t-5.5 -32 q0 -25 9.5 -36t23.5 -13h6q18 0 27.5 11.5t9.5 19.5h-37v26h62v-80h-21l-2 19q-12 -18 -26.5 -20.5t-20.5 -2.5q-14 0 -25.5 6.5t-19.5 16.5q-18 18 -18 55zM352 426l121 -37l4 51l-45 21zM420 907l20 -51l-4 -6l25 6l-21 45l47 31l-14 49l47 20l-6 52l49 16l4 51l51 8 l13 48h51l18 51l52 -6l26 43l49 -15l31 41l51 -24l33 34l43 -28l43 28l41 -34l41 24l33 -41l51 15l23 -43l55 6l16 -51h53l11 -48l53 -8v-51l51 -16v-4h17v16l-52 14l-2 54l-53 10l-10 51h-56l-20 51l-51 -8l-29 47l-49 -18l-35 43l-47 -25l-39 37l-45 -31l-45 31l-39 -37 l-49 25l-31 -43l-51 18l-25 -47l-55 8l-16 -51h-56l-12 -51l-51 -10l-6 -54l-51 -14l2 -51l-45 -23l12 -55zM455 479l45 -24l-2 -54l51 -16l6 -53l51 -10l12 -52h56l16 -47l55 8l25 -49l51 19l31 -41l49 22l39 -39l45 31l45 -31l39 39l47 -22l35 41l49 -19l29 49l51 -8 l20 47h56l10 52l53 10l2 53l52 16l-5 54l48 24l-11 49l45 31l-20 51l39 33l-27 49l25 29l-25 -4l-20 -21l28 -47l-41 -37l21 -47l-43 -30l12 -50l-47 -22l4 -51l-51 -15v-53l-53 -4l-11 -51h-53l-16 -49l-55 8l-23 -43l-51 16l-33 -41l-41 23l-41 -39l-43 31l-43 -31l-33 39 l-51 -23l-31 41l-49 -16l-26 43l-52 -8l-18 49h-51l-13 51l-51 4l-4 53l-49 15l6 51l-47 22l6 31l-18 -4zM460 619.5q-3 -21.5 7 -35t39 -4.5q23 8 44 26.5t38 40.5v2q10 10 19.5 35t17.5 33q6 -8 2 -21.5t-11.5 -29t-13.5 -29.5t-2 -27q10 -20 27.5 -6t34.5 37 q4 -25 22 -25q16 0 33.5 8.5t34.5 18.5l16 21q0 -16 9 -24.5t34 1.5q10 4 23.5 13.5t23.5 21.5q23 0 37 14q-8 -16 -8 -26.5t4 -8.5q10 2 24.5 24.5t24.5 33.5q12 18 27.5 35.5t31.5 35.5q-10 -23 -20 -44t-21 -44q-6 -25 12.5 -23.5t35.5 17.5l24 23q0 -14 12 -21 q16 -6 32 6.5t26 28.5q-2 -18 4 -23.5t15 -2t21.5 12.5t22.5 19q0 -20 13.5 -21t33.5 21q12 12 20.5 24.5t16.5 22.5q0 10 -1 16.5t-11 -3.5t-15.5 -22.5t-15.5 -22.5q-10 -14 -19 -14.5t1 16.5q10 23 25.5 47t31.5 47l72 110q6 8 2 17.5t-11.5 15.5t-15.5 7t-10 -9 q-33 -51 -62.5 -105.5t-50.5 -109.5q-4 -4 -4 -6v-4q-8 -10 -17 -22.5t-24 -20.5q-4 0 -2 6t7.5 14t10.5 15l5 8q6 8 14 21.5t2 19.5q-6 16 -15 10t-14 -10q-12 -18 -20 -39t-25 -41q-10 -12 -15 -11t-6 7t1 15t6 18q25 41 59 63q4 2 14.5 5l21 6t16.5 7.5t2 10.5 q-8 10 -34 4t-40 -12q-20 -14 -38.5 -33t-29.5 -41q0 -4 -6 -10l-30 -43q-12 -10 -17.5 -12.5t-5.5 2.5t4 13.5t8 16.5q6 6 14.5 17.5t16.5 22.5t13 22.5t3 17.5q-10 23 -35.5 1t-50.5 -52l17 24q6 12 3 17.5t-10.5 5.5t-15.5 -2t-10 -4q-4 -4 -13 -25.5t-18 -44.5 q-10 -8 -15 -16.5t-17 -14.5q14 18 21 39t5 36t-13 21.5t-32 -1.5q-20 -10 -41.5 -36t-34.5 -50q-10 -10 -19 -26.5t-15 -21.5q12 20 16 38t4 34q-4 14 -3 30.5t-7 24.5q-8 12 -20.5 -6t-18.5 -28q-18 -29 -35.5 -62t-42.5 -55q-10 -8 -13 -8t-2 5t4 12t5 11q4 4 9 10.5 t9 14.5q6 8 11 18q6 12 -0.5 17.5t-14.5 9.5t-13 9t1 18q10 16 1 15t-17 -15q-2 -10 -6.5 -17.5t-8.5 -15.5l-22 -47q-2 0 -2 -2q-2 -2 -2 -4q-4 -4 -11.5 -14.5t-11.5 -16.5q-6 -4 -15.5 -13.5t-19.5 -15.5t-19 -9t-14 5q-2 8 1.5 16.5t7.5 16.5q10 0 22 4t15 6q2 4 2 0 q8 6 19 16.5t19.5 22.5t12.5 24.5t0 20.5q-10 16 -36 6t-42 -26q-20 -16 -33.5 -41t-16.5 -46.5zM475 -94q0 23 11.5 38t39.5 15q29 0 39 -18.5t10 -38.5v-8h-73q0 -8 6 -16.5t20 -8.5q8 0 13.5 5t5.5 7h28q-4 -16 -18 -25.5t-29 -9.5q-53 0 -53 60zM475 -285h31l16 -77 l15 77h30l15 -77l16 77h31l-33 -106h-27l-16 78l-18 -78h-29zM506 -86h43q-6 23 -23 23q-18 0 -20 -23zM506 649q2 6 10 18.5t17.5 25t18.5 20.5t15 4q10 -8 4 -18.5t-18 -20.5t-26.5 -18.5t-20.5 -10.5zM584 -43h14v29h31v-29h16v-20h-16v-58q0 -8 1 -9t9 -1l6 2v-23h-16 q-18 0 -24.5 4.5t-6.5 18.5v66h-14v20zM606 885l678 129q-57 59 -133 94t-166 35q-66 0 -124 -19.5t-108.5 -53.5t-88 -81t-58.5 -104zM625 543q51 -98 147 -159.5t213 -61.5q80 0 150.5 28.5t124 77.5t88 116.5t45.5 145.5zM629 -362h28v-29h-28v29zM684 -285h27v-16 q8 20 30 20q20 0 31 -18q6 18 27 18q14 0 22 -8q4 -4 9.5 -10t5.5 -18v-74h-25v63q0 20 -18 21q-18 0 -19 -21v-63h-29v74q0 4 -3 7t-13 3q-18 0 -18 -19v-65h-27v106zM686 639q0 6 3 13t9 7q8 0 10.5 6.5t2.5 12.5t-4.5 12t-8.5 6q4 8 11.5 16.5t15.5 20.5q8 -12 5 -38 t-19 -46q-14 -16 -19.5 -16t-5.5 6zM707 -43h14v8q0 29 31 29h16v-21h-8l-8 -2v-14h16v-20h-16v-89h-31v89h-14v20zM784 -43h27v-68q0 -18 20 -18h11q10 8 12 23v63h27v-109h-27v17q-8 -10 -18.5 -14.5t-14.5 -4.5q-37 0 -37 39v72zM784 670q0 4 2 8t5 12q2 4 5 9.5t3 7.5 q2 8 7 14t7 16q-2 -20 0 -36.5t18 -22.5q-12 -10 -29.5 -20.5t-17.5 12.5zM828.5 728q2.5 26 23.5 42q14 8 15 0t-3 -22.5t-11 -30t-11 -21.5q-16 6 -13.5 32zM854 -365q0 31 33 35l24 4q8 2 9 9q0 12 -17 12q-16 0 -16 -14h-29q0 14 6 22t17 12q10 4 22 4q27 0 36 -10 t9 -20v-60q0 -10 2 -12q0 -4 4 -4v-4h-28l-2 2v2q-2 0 -2 8l-21 -12q0 -2 -12 -2q-35 0 -35 28zM883 -362q0 -10 14 -11h4l6 2l8 4q4 4 5 13v14q-4 -4 -9 -4l-14 -2l-10 -6q-4 -4 -4 -10zM907 -6h27v-146h-27v146zM926 711q4 12 13 23t17 22zM956 -6h27v-146h-27v146z M963 -285h28l19 -77l14 77h29l16 -77l18 77h27l-29 -106h-30l-17 78l-16 -78h-31zM1055 -43h14v8q0 29 33 29h12v-21h-6q-6 0 -6 -1t-4 -5v-10h20v-20h-20v-89h-29v89h-14v20zM1128 -98q0 23 12.5 40t41.5 17q18 0 25.5 -4t13.5 -10q8 -12 11 -20.5t3 -22.5 q0 -23 -13.5 -39.5t-39.5 -16.5q-23 0 -38.5 13.5t-15.5 42.5zM1128 -285h29v-16q10 20 31 20q12 0 20 -6q10 -4 14.5 -14t4.5 -16v-74h-29v63q0 14 -4 17.5t-14 3.5q-12 0 -16.5 -7.5t-4.5 -17.5v-59h-31v106zM1155 -98q0 -10 4 -20.5t23 -10.5q16 0 20 10q4 4 4 21 q0 33 -24 32q-14 0 -20.5 -10t-6.5 -22zM1247 -363.5q0 7.5 27 7.5q0 -14 24 -15q16 0 17 9q0 6 -10 8l-25 6q-14 4 -22.5 10t-8.5 21q0 6 8.5 21t34.5 15q35 0 45 -20l4 -16h-30q0 6 -2 9t-15 3q-16 0 -16 -8q0 -6 8 -9l25 -6q14 -4 24 -10q8 -4 8 -18q0 -37 -47 -37h-10 q-16 0 -24.5 5t-11.5 11t-3 13.5zM1255 -43h27v-14q12 16 33 16q12 0 20 -4l13 -10q6 -12 6 -21v-76h-29v66q0 6 -2 13t-16 7q-12 0 -16.5 -4t-4.5 -20v-62h-31v109zM1343.5 796.5q-8.5 -32.5 2.5 -53.5q6 -12 17 -9t22.5 13.5t21.5 23.5t14 22q-2 -14 -2 -33t23 -6 q12 4 23.5 16t21.5 27q4 -20 18 -21q16 0 33.5 9.5t34.5 19.5l26 26q0 -18 11.5 -27t34.5 -3q47 18 77 67q0 2 3.5 8.5t4.5 11.5t0 7t-10 -4q-8 -4 -13 -14.5t-11 -20.5q-6 -6 -16.5 -14t-20.5 -15.5t-19.5 -9.5t-13.5 6q-2 8 1 15.5t5 17.5q10 0 27.5 6t13.5 6 q10 4 21.5 14.5t19.5 23t11.5 23.5t-3.5 19q-10 16 -34.5 6t-40.5 -26q-16 -12 -25.5 -29.5t-19.5 -36.5q-6 -10 -15.5 -25.5t-17.5 -19.5q27 37 20 74q-2 12 0 28.5t-6 24.5q-6 6 -11 4t-11.5 -9t-11.5 -15.5t-7 -12.5l-43 -67q-14 -16 -23.5 -36t-29.5 -34q-8 -6 -6 1 t7 18.5t11 21.5t6 12l52 97q8 14 21 34.5t9 34.5q-4 4 -16.5 11t-20.5 -9q-12 -25 -26.5 -52.5t-24.5 -55.5q-12 -29 -28.5 -61.5t-40.5 -57.5q-14 -16 -16.5 -10t0.5 19.5t8 29.5t8 20q12 31 27.5 62t35.5 59q8 10 7 20.5t-7 16.5t-14 5t-17 -15q-16 -29 -31.5 -60.5 t-27.5 -60.5q-10 -25 -18.5 -57.5zM1366 -43h18v29h25v-29h18v-20h-18v-58q0 -8 4 -9t8 -1l6 2v-23h-18q-25 0 -25 11v78h-18v20zM1366 -362h29v-29h-29v29zM1415 -340q0 23 10.5 41t36.5 18q23 0 36 -12t13 -31h-28q0 4 -3.5 10.5t-15.5 6.5t-16 -9.5t-4 -19.5q0 -23 3 -29 t17 -6q18 0 19 19h28q0 -6 -8 -23.5t-41 -17.5q-23 0 -35 11t-12 42zM1493 -121q0 18 10 23.5t21 9.5l26 4q10 0 11 8q0 12 -17 13q-6 0 -12 -2.5t-8 -14.5h-27q4 12 8 25.5t25 13.5h14q18 0 28.5 -5t12.5 -10t2 -12v-73q0 -4 8 -4v-7h-32v2v5q0 2 -1 4t-1 4 q-4 -6 -10.5 -10.5t-8.5 -4.5l-8 -2h-8t-19.5 7.5t-13.5 25.5zM1508 801q-1 4 2 11t12 9q16 2 12 18.5t-12 16.5l24 37q10 -14 7 -39t-21 -43q-10 -12 -16.5 -13t-7.5 3zM1522 -121q0 -12 14 -12h8q8 2 12.5 10t4.5 10v15q-6 -4 -13 -4l-12 -4q-4 0 -9 -4.5t-5 -10.5z M1524 -340q0 39 20.5 49t36.5 10q10 0 18.5 -4t22.5 -10q4 -6 8 -16.5t4 -28.5q0 -23 -13 -38t-40 -15q-35 0 -46 18.5t-11 34.5zM1554 -340q0 -12 5.5 -21.5t21.5 -9.5q14 1 18 11q4 4 4.5 10t0.5 10q0 18 -4.5 25.5t-18.5 7.5q-18 0 -22.5 -9.5t-4.5 -23.5zM1559 602 l4 -10l53 43l-21 2zM1569 690l26 -47l29 -2l117 92l-139 -4zM1602 -43h12v29h28v-29h21v-20h-21v-58q0 -10 13 -10l8 2v-23h-21q-16 0 -22 7.5t-6 15.5v66h-12v20zM1638 737l103 -4l41 31zM1645 870q2 6 9 18.5t16 25t18.5 19.5t15.5 3t3 -12.5t-10 -17.5t-15.5 -16 t-12.5 -9l-2 -2zM1655 -285h26v-16q10 20 31 20q12 0 18.5 -6t10.5 -12q2 4 10 11t21 7q10 0 19 -6t11 -14q6 -6 6 -16v-74h-28v63q0 20 -17 21q-18 0 -18 -21v-63h-27v63q0 8 -3 14.5t-13 6.5q-20 0 -21 -19v-65h-26v106z" />
<glyph unicode="7" d="M68 252l100 194l-41 160l94 21v184l105 20l-90 13l104 -10l53 8l23 22l-21 47l-137 43l139 -36l39 30l-10 47l-127 68l133 -57l45 22l-4 51l-117 84l121 -82l49 19l6 49l-106 102l109 -94l53 8l10 47l-86 115l92 -106h51l19 45l-70 125l78 -119l49 -8l27 43l-51 137 l57 -135l49 -15l33 39l-31 142l37 -138l43 -22l41 35l-8 141l18 -141l39 -29l41 29l16 141l-6 -141l37 -35l47 22l33 138l-25 -142l29 -39l49 15l58 135l-50 -137l27 -43l51 8l74 119l-68 -125l17 -45h51l96 106l-88 -115l12 -47l50 -8l108 94l-102 -102l2 -49l51 -19 l119 82l-115 -84l-4 -26l287 55v-184l149 30l-104 -196l53 -160l-276 -51l110 -37l-121 33l-34 -8l-29 -17l14 -49l129 -68l-135 60l-43 -21v-51l119 -88l-119 82l-51 -18l-2 -48l102 -104l-108 98l-50 -10l-12 -47l88 -115l-96 109h-51l-17 -47l68 -125l-74 121l-51 8 l-27 -41l50 -141l-58 135l-49 12l-29 -39l25 -141l-33 137l-47 27l-37 -35l6 -146l-16 146l-41 28l-39 -28l-18 -146l8 146l-41 35l-43 -27l-37 -137l31 141l-33 39l-49 -12l-57 -135l51 141l-27 41l-49 -8l-78 -121l70 125l-19 47h-51l-92 -109l86 115l-10 47l-53 10 l-109 -98l106 104l-2 23l-170 -35zM162 -285h31l16 -77l14 77h31l14 -77l19 77h28l-30 -106h-29l-18 78l-17 -78h-28zM221 465l127 -37l78 41l10 33zM295 543q4 -10 11 2t11 18q16 33 40 64.5t46 62.5q10 16 14.5 27.5t-5.5 19.5q-4 8 -14.5 11.5t-18.5 -11.5 q-16 -31 -34 -62.5t-30 -64.5q-4 -10 -16 -32.5t-4 -34.5zM309 670q0 -4 7.5 -3t14.5 5t12 11t3 13q-4 20 22.5 44t52 33t38 -5t-18.5 -72q-6 -10 -15 -22t-19 -21q-6 -8 -19.5 -13t-13.5 -13q-4 -6 1 -6t12 3t15.5 6t10.5 3q27 14 49 43q20 23 37.5 53.5t5.5 50.5 q-8 23 -37 21t-51 -10q-53 -23 -94 -74q-4 -10 -10.5 -24.5t-2.5 -22.5zM319 -285h29l19 -77l14 77h29l16 -77l16 77h31l-33 -106h-26l-19 78l-18 -78h-29zM324 -78q0 25 16 50.5t55 25.5h4q16 0 37 -15.5t21 -33.5h-31q0 10 -9 17t-22 7q-6 0 -17 -4t-16.5 -17t-5.5 -32 q0 -25 9.5 -36t23.5 -13h6q18 0 27.5 11.5t9.5 19.5h-37v26h62v-80h-21l-2 19q-12 -18 -26.5 -20.5t-20.5 -2.5q-14 0 -25.5 6.5t-19.5 16.5q-18 18 -18 55zM352 426l121 -37l4 51l-45 21zM420 907l20 -51l-4 -6l25 6l-21 45l47 31l-14 49l47 20l-6 52l49 16l4 51l51 8 l13 48h51l18 51l52 -6l26 43l49 -15l31 41l51 -24l33 34l43 -28l43 28l41 -34l41 24l33 -41l51 15l23 -43l55 6l16 -51h53l11 -48l53 -8v-51l51 -16v-4h17v16l-52 14l-2 54l-53 10l-10 51h-56l-20 51l-51 -8l-29 47l-49 -18l-35 43l-47 -25l-39 37l-45 -31l-45 31l-39 -37 l-49 25l-31 -43l-51 18l-25 -47l-55 8l-16 -51h-56l-12 -51l-51 -10l-6 -54l-51 -14l2 -51l-45 -23l12 -55zM455 479l45 -24l-2 -54l51 -16l6 -53l51 -10l12 -52h56l16 -47l55 8l25 -49l51 19l31 -41l49 22l39 -39l45 31l45 -31l39 39l47 -22l35 41l49 -19l29 49l51 -8 l20 47h56l10 52l53 10l2 53l52 16l-5 54l48 24l-11 49l45 31l-20 51l39 33l-27 49l25 29l-25 -4l-20 -21l28 -47l-41 -37l21 -47l-43 -30l12 -50l-47 -22l4 -51l-51 -15v-53l-53 -4l-11 -51h-53l-16 -49l-55 8l-23 -43l-51 16l-33 -41l-41 23l-41 -39l-43 31l-43 -31l-33 39 l-51 -23l-31 41l-49 -16l-26 43l-52 -8l-18 49h-51l-13 51l-51 4l-4 53l-49 15l6 51l-47 22l6 31l-18 -4zM460 619.5q-3 -21.5 7 -35t39 -4.5q23 8 44 26.5t38 40.5v2q10 10 19.5 35t17.5 33q6 -8 2 -21.5t-11.5 -29t-13.5 -29.5t-2 -27q10 -20 27.5 -6t34.5 37 q4 -25 22 -25q16 0 33.5 8.5t34.5 18.5l16 21q0 -16 9 -24.5t34 1.5q10 4 23.5 13.5t23.5 21.5q23 0 37 14q-8 -16 -8 -26.5t4 -8.5q10 2 24.5 24.5t24.5 33.5q12 18 27.5 35.5t31.5 35.5q-10 -23 -20 -44t-21 -44q-6 -25 12.5 -23.5t35.5 17.5l24 23q0 -14 12 -21 q16 -6 32 6.5t26 28.5q-2 -18 4 -23.5t15 -2t21.5 12.5t22.5 19q0 -20 13.5 -21t33.5 21q12 12 20.5 24.5t16.5 22.5q0 10 -1 16.5t-11 -3.5t-15.5 -22.5t-15.5 -22.5q-10 -14 -19 -14.5t1 16.5q10 23 25.5 47t31.5 47l72 110q6 8 2 17.5t-11.5 15.5t-15.5 7t-10 -9 q-33 -51 -62.5 -105.5t-50.5 -109.5q-4 -4 -4 -6v-4q-8 -10 -17 -22.5t-24 -20.5q-4 0 -2 6t7.5 14t10.5 15l5 8q6 8 14 21.5t2 19.5q-6 16 -15 10t-14 -10q-12 -18 -20 -39t-25 -41q-10 -12 -15 -11t-6 7t1 15t6 18q25 41 59 63q4 2 14.5 5l21 6t16.5 7.5t2 10.5 q-8 10 -34 4t-40 -12q-20 -14 -38.5 -33t-29.5 -41q0 -4 -6 -10l-30 -43q-12 -10 -17.5 -12.5t-5.5 2.5t4 13.5t8 16.5q6 6 14.5 17.5t16.5 22.5t13 22.5t3 17.5q-10 23 -35.5 1t-50.5 -52l17 24q6 12 3 17.5t-10.5 5.5t-15.5 -2t-10 -4q-4 -4 -13 -25.5t-18 -44.5 q-10 -8 -15 -16.5t-17 -14.5q14 18 21 39t5 36t-13 21.5t-32 -1.5q-20 -10 -41.5 -36t-34.5 -50q-10 -10 -19 -26.5t-15 -21.5q12 20 16 38t4 34q-4 14 -3 30.5t-7 24.5q-8 12 -20.5 -6t-18.5 -28q-18 -29 -35.5 -62t-42.5 -55q-10 -8 -13 -8t-2 5t4 12t5 11q4 4 9 10.5 t9 14.5q6 8 11 18q6 12 -0.5 17.5t-14.5 9.5t-13 9t1 18q10 16 1 15t-17 -15q-2 -10 -6.5 -17.5t-8.5 -15.5l-22 -47q-2 0 -2 -2q-2 -2 -2 -4q-4 -4 -11.5 -14.5t-11.5 -16.5q-6 -4 -15.5 -13.5t-19.5 -15.5t-19 -9t-14 5q-2 8 1.5 16.5t7.5 16.5q10 0 22 4t15 6q2 4 2 0 q8 6 19 16.5t19.5 22.5t12.5 24.5t0 20.5q-10 16 -36 6t-42 -26q-20 -16 -33.5 -41t-16.5 -46.5zM475 -94q0 23 11.5 38t39.5 15q29 0 39 -18.5t10 -38.5v-8h-73q0 -8 6 -16.5t20 -8.5q8 0 13.5 5t5.5 7h28q-4 -16 -18 -25.5t-29 -9.5q-53 0 -53 60zM475 -285h31l16 -77 l15 77h30l15 -77l16 77h31l-33 -106h-27l-16 78l-18 -78h-29zM506 -86h43q-6 23 -23 23q-18 0 -20 -23zM506 649q2 6 10 18.5t17.5 25t18.5 20.5t15 4q10 -8 4 -18.5t-18 -20.5t-26.5 -18.5t-20.5 -10.5zM584 -43h14v29h31v-29h16v-20h-16v-58q0 -8 1 -9t9 -1l6 2v-23h-16 q-18 0 -24.5 4.5t-6.5 18.5v66h-14v20zM606 885l678 129q-57 59 -133 94t-166 35q-66 0 -124 -19.5t-108.5 -53.5t-88 -81t-58.5 -104zM625 543q51 -98 147 -159.5t213 -61.5q80 0 150.5 28.5t124 77.5t88 116.5t45.5 145.5zM629 -362h28v-29h-28v29zM684 -285h27v-16 q8 20 30 20q20 0 31 -18q6 18 27 18q14 0 22 -8q4 -4 9.5 -10t5.5 -18v-74h-25v63q0 20 -18 21q-18 0 -19 -21v-63h-29v74q0 4 -3 7t-13 3q-18 0 -18 -19v-65h-27v106zM686 639q0 6 3 13t9 7q8 0 10.5 6.5t2.5 12.5t-4.5 12t-8.5 6q4 8 11.5 16.5t15.5 20.5q8 -12 5 -38 t-19 -46q-14 -16 -19.5 -16t-5.5 6zM707 -43h14v8q0 29 31 29h16v-21h-8l-8 -2v-14h16v-20h-16v-89h-31v89h-14v20zM784 -43h27v-68q0 -18 20 -18h11q10 8 12 23v63h27v-109h-27v17q-8 -10 -18.5 -14.5t-14.5 -4.5q-37 0 -37 39v72zM784 670q0 4 2 8t5 12q2 4 5 9.5t3 7.5 q2 8 7 14t7 16q-2 -20 0 -36.5t18 -22.5q-12 -10 -29.5 -20.5t-17.5 12.5zM828.5 728q2.5 26 23.5 42q14 8 15 0t-3 -22.5t-11 -30t-11 -21.5q-16 6 -13.5 32zM854 -365q0 31 33 35l24 4q8 2 9 9q0 12 -17 12q-16 0 -16 -14h-29q0 14 6 22t17 12q10 4 22 4q27 0 36 -10 t9 -20v-60q0 -10 2 -12q0 -4 4 -4v-4h-28l-2 2v2q-2 0 -2 8l-21 -12q0 -2 -12 -2q-35 0 -35 28zM883 -362q0 -10 14 -11h4l6 2l8 4q4 4 5 13v14q-4 -4 -9 -4l-14 -2l-10 -6q-4 -4 -4 -10zM907 -6h27v-146h-27v146zM926 711q4 12 13 23t17 22zM956 -6h27v-146h-27v146z M963 -285h28l19 -77l14 77h29l16 -77l18 77h27l-29 -106h-30l-17 78l-16 -78h-31zM1055 -43h14v8q0 29 33 29h12v-21h-6q-6 0 -6 -1t-4 -5v-10h20v-20h-20v-89h-29v89h-14v20zM1128 -98q0 23 12.5 40t41.5 17q18 0 25.5 -4t13.5 -10q8 -12 11 -20.5t3 -22.5 q0 -23 -13.5 -39.5t-39.5 -16.5q-23 0 -38.5 13.5t-15.5 42.5zM1128 -285h29v-16q10 20 31 20q12 0 20 -6q10 -4 14.5 -14t4.5 -16v-74h-29v63q0 14 -4 17.5t-14 3.5q-12 0 -16.5 -7.5t-4.5 -17.5v-59h-31v106zM1155 -98q0 -10 4 -20.5t23 -10.5q16 0 20 10q4 4 4 21 q0 33 -24 32q-14 0 -20.5 -10t-6.5 -22zM1247 -363.5q0 7.5 27 7.5q0 -14 24 -15q16 0 17 9q0 6 -10 8l-25 6q-14 4 -22.5 10t-8.5 21q0 6 8.5 21t34.5 15q35 0 45 -20l4 -16h-30q0 6 -2 9t-15 3q-16 0 -16 -8q0 -6 8 -9l25 -6q14 -4 24 -10q8 -4 8 -18q0 -37 -47 -37h-10 q-16 0 -24.5 5t-11.5 11t-3 13.5zM1255 -43h27v-14q12 16 33 16q12 0 20 -4l13 -10q6 -12 6 -21v-76h-29v66q0 6 -2 13t-16 7q-12 0 -16.5 -4t-4.5 -20v-62h-31v109zM1343.5 796.5q-8.5 -32.5 2.5 -53.5q6 -12 17 -9t22.5 13.5t21.5 23.5t14 22q-2 -14 -2 -33t23 -6 q12 4 23.5 16t21.5 27q4 -20 18 -21q16 0 33.5 9.5t34.5 19.5l26 26q0 -18 11.5 -27t34.5 -3q47 18 77 67q0 2 3.5 8.5t4.5 11.5t0 7t-10 -4q-8 -4 -13 -14.5t-11 -20.5q-6 -6 -16.5 -14t-20.5 -15.5t-19.5 -9.5t-13.5 6q-2 8 1 15.5t5 17.5q10 0 27.5 6t13.5 6 q10 4 21.5 14.5t19.5 23t11.5 23.5t-3.5 19q-10 16 -34.5 6t-40.5 -26q-16 -12 -25.5 -29.5t-19.5 -36.5q-6 -10 -15.5 -25.5t-17.5 -19.5q27 37 20 74q-2 12 0 28.5t-6 24.5q-6 6 -11 4t-11.5 -9t-11.5 -15.5t-7 -12.5l-43 -67q-14 -16 -23.5 -36t-29.5 -34q-8 -6 -6 1 t7 18.5t11 21.5t6 12l52 97q8 14 21 34.5t9 34.5q-4 4 -16.5 11t-20.5 -9q-12 -25 -26.5 -52.5t-24.5 -55.5q-12 -29 -28.5 -61.5t-40.5 -57.5q-14 -16 -16.5 -10t0.5 19.5t8 29.5t8 20q12 31 27.5 62t35.5 59q8 10 7 20.5t-7 16.5t-14 5t-17 -15q-16 -29 -31.5 -60.5 t-27.5 -60.5q-10 -25 -18.5 -57.5zM1366 -43h18v29h25v-29h18v-20h-18v-58q0 -8 4 -9t8 -1l6 2v-23h-18q-25 0 -25 11v78h-18v20zM1366 -362h29v-29h-29v29zM1415 -340q0 23 10.5 41t36.5 18q23 0 36 -12t13 -31h-28q0 4 -3.5 10.5t-15.5 6.5t-16 -9.5t-4 -19.5q0 -23 3 -29 t17 -6q18 0 19 19h28q0 -6 -8 -23.5t-41 -17.5q-23 0 -35 11t-12 42zM1493 -121q0 18 10 23.5t21 9.5l26 4q10 0 11 8q0 12 -17 13q-6 0 -12 -2.5t-8 -14.5h-27q4 12 8 25.5t25 13.5h14q18 0 28.5 -5t12.5 -10t2 -12v-73q0 -4 8 -4v-7h-32v2v5q0 2 -1 4t-1 4 q-4 -6 -10.5 -10.5t-8.5 -4.5l-8 -2h-8t-19.5 7.5t-13.5 25.5zM1508 801q-1 4 2 11t12 9q16 2 12 18.5t-12 16.5l24 37q10 -14 7 -39t-21 -43q-10 -12 -16.5 -13t-7.5 3zM1522 -121q0 -12 14 -12h8q8 2 12.5 10t4.5 10v15q-6 -4 -13 -4l-12 -4q-4 0 -9 -4.5t-5 -10.5z M1524 -340q0 39 20.5 49t36.5 10q10 0 18.5 -4t22.5 -10q4 -6 8 -16.5t4 -28.5q0 -23 -13 -38t-40 -15q-35 0 -46 18.5t-11 34.5zM1554 -340q0 -12 5.5 -21.5t21.5 -9.5q14 1 18 11q4 4 4.5 10t0.5 10q0 18 -4.5 25.5t-18.5 7.5q-18 0 -22.5 -9.5t-4.5 -23.5zM1559 602 l4 -10l53 43l-21 2zM1569 690l26 -47l29 -2l117 92l-139 -4zM1602 -43h12v29h28v-29h21v-20h-21v-58q0 -10 13 -10l8 2v-23h-21q-16 0 -22 7.5t-6 15.5v66h-12v20zM1638 737l103 -4l41 31zM1645 870q2 6 9 18.5t16 25t18.5 19.5t15.5 3t3 -12.5t-10 -17.5t-15.5 -16 t-12.5 -9l-2 -2zM1655 -285h26v-16q10 20 31 20q12 0 18.5 -6t10.5 -12q2 4 10 11t21 7q10 0 19 -6t11 -14q6 -6 6 -16v-74h-28v63q0 20 -17 21q-18 0 -18 -21v-63h-27v63q0 8 -3 14.5t-13 6.5q-20 0 -21 -19v-65h-26v106z" />
<glyph unicode="8" d="M68 252l100 194l-41 160l94 21v184l105 20l-90 13l104 -10l53 8l23 22l-21 47l-137 43l139 -36l39 30l-10 47l-127 68l133 -57l45 22l-4 51l-117 84l121 -82l49 19l6 49l-106 102l109 -94l53 8l10 47l-86 115l92 -106h51l19 45l-70 125l78 -119l49 -8l27 43l-51 137 l57 -135l49 -15l33 39l-31 142l37 -138l43 -22l41 35l-8 141l18 -141l39 -29l41 29l16 141l-6 -141l37 -35l47 22l33 138l-25 -142l29 -39l49 15l58 135l-50 -137l27 -43l51 8l74 119l-68 -125l17 -45h51l96 106l-88 -115l12 -47l50 -8l108 94l-102 -102l2 -49l51 -19 l119 82l-115 -84l-4 -26l287 55v-184l149 30l-104 -196l53 -160l-276 -51l110 -37l-121 33l-34 -8l-29 -17l14 -49l129 -68l-135 60l-43 -21v-51l119 -88l-119 82l-51 -18l-2 -48l102 -104l-108 98l-50 -10l-12 -47l88 -115l-96 109h-51l-17 -47l68 -125l-74 121l-51 8 l-27 -41l50 -141l-58 135l-49 12l-29 -39l25 -141l-33 137l-47 27l-37 -35l6 -146l-16 146l-41 28l-39 -28l-18 -146l8 146l-41 35l-43 -27l-37 -137l31 141l-33 39l-49 -12l-57 -135l51 141l-27 41l-49 -8l-78 -121l70 125l-19 47h-51l-92 -109l86 115l-10 47l-53 10 l-109 -98l106 104l-2 23l-170 -35zM162 -285h31l16 -77l14 77h31l14 -77l19 77h28l-30 -106h-29l-18 78l-17 -78h-28zM221 465l127 -37l78 41l10 33zM295 543q4 -10 11 2t11 18q16 33 40 64.5t46 62.5q10 16 14.5 27.5t-5.5 19.5q-4 8 -14.5 11.5t-18.5 -11.5 q-16 -31 -34 -62.5t-30 -64.5q-4 -10 -16 -32.5t-4 -34.5zM309 670q0 -4 7.5 -3t14.5 5t12 11t3 13q-4 20 22.5 44t52 33t38 -5t-18.5 -72q-6 -10 -15 -22t-19 -21q-6 -8 -19.5 -13t-13.5 -13q-4 -6 1 -6t12 3t15.5 6t10.5 3q27 14 49 43q20 23 37.5 53.5t5.5 50.5 q-8 23 -37 21t-51 -10q-53 -23 -94 -74q-4 -10 -10.5 -24.5t-2.5 -22.5zM319 -285h29l19 -77l14 77h29l16 -77l16 77h31l-33 -106h-26l-19 78l-18 -78h-29zM324 -78q0 25 16 50.5t55 25.5h4q16 0 37 -15.5t21 -33.5h-31q0 10 -9 17t-22 7q-6 0 -17 -4t-16.5 -17t-5.5 -32 q0 -25 9.5 -36t23.5 -13h6q18 0 27.5 11.5t9.5 19.5h-37v26h62v-80h-21l-2 19q-12 -18 -26.5 -20.5t-20.5 -2.5q-14 0 -25.5 6.5t-19.5 16.5q-18 18 -18 55zM352 426l121 -37l4 51l-45 21zM420 907l20 -51l-4 -6l25 6l-21 45l47 31l-14 49l47 20l-6 52l49 16l4 51l51 8 l13 48h51l18 51l52 -6l26 43l49 -15l31 41l51 -24l33 34l43 -28l43 28l41 -34l41 24l33 -41l51 15l23 -43l55 6l16 -51h53l11 -48l53 -8v-51l51 -16v-4h17v16l-52 14l-2 54l-53 10l-10 51h-56l-20 51l-51 -8l-29 47l-49 -18l-35 43l-47 -25l-39 37l-45 -31l-45 31l-39 -37 l-49 25l-31 -43l-51 18l-25 -47l-55 8l-16 -51h-56l-12 -51l-51 -10l-6 -54l-51 -14l2 -51l-45 -23l12 -55zM455 479l45 -24l-2 -54l51 -16l6 -53l51 -10l12 -52h56l16 -47l55 8l25 -49l51 19l31 -41l49 22l39 -39l45 31l45 -31l39 39l47 -22l35 41l49 -19l29 49l51 -8 l20 47h56l10 52l53 10l2 53l52 16l-5 54l48 24l-11 49l45 31l-20 51l39 33l-27 49l25 29l-25 -4l-20 -21l28 -47l-41 -37l21 -47l-43 -30l12 -50l-47 -22l4 -51l-51 -15v-53l-53 -4l-11 -51h-53l-16 -49l-55 8l-23 -43l-51 16l-33 -41l-41 23l-41 -39l-43 31l-43 -31l-33 39 l-51 -23l-31 41l-49 -16l-26 43l-52 -8l-18 49h-51l-13 51l-51 4l-4 53l-49 15l6 51l-47 22l6 31l-18 -4zM460 619.5q-3 -21.5 7 -35t39 -4.5q23 8 44 26.5t38 40.5v2q10 10 19.5 35t17.5 33q6 -8 2 -21.5t-11.5 -29t-13.5 -29.5t-2 -27q10 -20 27.5 -6t34.5 37 q4 -25 22 -25q16 0 33.5 8.5t34.5 18.5l16 21q0 -16 9 -24.5t34 1.5q10 4 23.5 13.5t23.5 21.5q23 0 37 14q-8 -16 -8 -26.5t4 -8.5q10 2 24.5 24.5t24.5 33.5q12 18 27.5 35.5t31.5 35.5q-10 -23 -20 -44t-21 -44q-6 -25 12.5 -23.5t35.5 17.5l24 23q0 -14 12 -21 q16 -6 32 6.5t26 28.5q-2 -18 4 -23.5t15 -2t21.5 12.5t22.5 19q0 -20 13.5 -21t33.5 21q12 12 20.5 24.5t16.5 22.5q0 10 -1 16.5t-11 -3.5t-15.5 -22.5t-15.5 -22.5q-10 -14 -19 -14.5t1 16.5q10 23 25.5 47t31.5 47l72 110q6 8 2 17.5t-11.5 15.5t-15.5 7t-10 -9 q-33 -51 -62.5 -105.5t-50.5 -109.5q-4 -4 -4 -6v-4q-8 -10 -17 -22.5t-24 -20.5q-4 0 -2 6t7.5 14t10.5 15l5 8q6 8 14 21.5t2 19.5q-6 16 -15 10t-14 -10q-12 -18 -20 -39t-25 -41q-10 -12 -15 -11t-6 7t1 15t6 18q25 41 59 63q4 2 14.5 5l21 6t16.5 7.5t2 10.5 q-8 10 -34 4t-40 -12q-20 -14 -38.5 -33t-29.5 -41q0 -4 -6 -10l-30 -43q-12 -10 -17.5 -12.5t-5.5 2.5t4 13.5t8 16.5q6 6 14.5 17.5t16.5 22.5t13 22.5t3 17.5q-10 23 -35.5 1t-50.5 -52l17 24q6 12 3 17.5t-10.5 5.5t-15.5 -2t-10 -4q-4 -4 -13 -25.5t-18 -44.5 q-10 -8 -15 -16.5t-17 -14.5q14 18 21 39t5 36t-13 21.5t-32 -1.5q-20 -10 -41.5 -36t-34.5 -50q-10 -10 -19 -26.5t-15 -21.5q12 20 16 38t4 34q-4 14 -3 30.5t-7 24.5q-8 12 -20.5 -6t-18.5 -28q-18 -29 -35.5 -62t-42.5 -55q-10 -8 -13 -8t-2 5t4 12t5 11q4 4 9 10.5 t9 14.5q6 8 11 18q6 12 -0.5 17.5t-14.5 9.5t-13 9t1 18q10 16 1 15t-17 -15q-2 -10 -6.5 -17.5t-8.5 -15.5l-22 -47q-2 0 -2 -2q-2 -2 -2 -4q-4 -4 -11.5 -14.5t-11.5 -16.5q-6 -4 -15.5 -13.5t-19.5 -15.5t-19 -9t-14 5q-2 8 1.5 16.5t7.5 16.5q10 0 22 4t15 6q2 4 2 0 q8 6 19 16.5t19.5 22.5t12.5 24.5t0 20.5q-10 16 -36 6t-42 -26q-20 -16 -33.5 -41t-16.5 -46.5zM475 -94q0 23 11.5 38t39.5 15q29 0 39 -18.5t10 -38.5v-8h-73q0 -8 6 -16.5t20 -8.5q8 0 13.5 5t5.5 7h28q-4 -16 -18 -25.5t-29 -9.5q-53 0 -53 60zM475 -285h31l16 -77 l15 77h30l15 -77l16 77h31l-33 -106h-27l-16 78l-18 -78h-29zM506 -86h43q-6 23 -23 23q-18 0 -20 -23zM506 649q2 6 10 18.5t17.5 25t18.5 20.5t15 4q10 -8 4 -18.5t-18 -20.5t-26.5 -18.5t-20.5 -10.5zM584 -43h14v29h31v-29h16v-20h-16v-58q0 -8 1 -9t9 -1l6 2v-23h-16 q-18 0 -24.5 4.5t-6.5 18.5v66h-14v20zM606 885l678 129q-57 59 -133 94t-166 35q-66 0 -124 -19.5t-108.5 -53.5t-88 -81t-58.5 -104zM625 543q51 -98 147 -159.5t213 -61.5q80 0 150.5 28.5t124 77.5t88 116.5t45.5 145.5zM629 -362h28v-29h-28v29zM684 -285h27v-16 q8 20 30 20q20 0 31 -18q6 18 27 18q14 0 22 -8q4 -4 9.5 -10t5.5 -18v-74h-25v63q0 20 -18 21q-18 0 -19 -21v-63h-29v74q0 4 -3 7t-13 3q-18 0 -18 -19v-65h-27v106zM686 639q0 6 3 13t9 7q8 0 10.5 6.5t2.5 12.5t-4.5 12t-8.5 6q4 8 11.5 16.5t15.5 20.5q8 -12 5 -38 t-19 -46q-14 -16 -19.5 -16t-5.5 6zM707 -43h14v8q0 29 31 29h16v-21h-8l-8 -2v-14h16v-20h-16v-89h-31v89h-14v20zM784 -43h27v-68q0 -18 20 -18h11q10 8 12 23v63h27v-109h-27v17q-8 -10 -18.5 -14.5t-14.5 -4.5q-37 0 -37 39v72zM784 670q0 4 2 8t5 12q2 4 5 9.5t3 7.5 q2 8 7 14t7 16q-2 -20 0 -36.5t18 -22.5q-12 -10 -29.5 -20.5t-17.5 12.5zM828.5 728q2.5 26 23.5 42q14 8 15 0t-3 -22.5t-11 -30t-11 -21.5q-16 6 -13.5 32zM854 -365q0 31 33 35l24 4q8 2 9 9q0 12 -17 12q-16 0 -16 -14h-29q0 14 6 22t17 12q10 4 22 4q27 0 36 -10 t9 -20v-60q0 -10 2 -12q0 -4 4 -4v-4h-28l-2 2v2q-2 0 -2 8l-21 -12q0 -2 -12 -2q-35 0 -35 28zM883 -362q0 -10 14 -11h4l6 2l8 4q4 4 5 13v14q-4 -4 -9 -4l-14 -2l-10 -6q-4 -4 -4 -10zM907 -6h27v-146h-27v146zM926 711q4 12 13 23t17 22zM956 -6h27v-146h-27v146z M963 -285h28l19 -77l14 77h29l16 -77l18 77h27l-29 -106h-30l-17 78l-16 -78h-31zM1055 -43h14v8q0 29 33 29h12v-21h-6q-6 0 -6 -1t-4 -5v-10h20v-20h-20v-89h-29v89h-14v20zM1128 -98q0 23 12.5 40t41.5 17q18 0 25.5 -4t13.5 -10q8 -12 11 -20.5t3 -22.5 q0 -23 -13.5 -39.5t-39.5 -16.5q-23 0 -38.5 13.5t-15.5 42.5zM1128 -285h29v-16q10 20 31 20q12 0 20 -6q10 -4 14.5 -14t4.5 -16v-74h-29v63q0 14 -4 17.5t-14 3.5q-12 0 -16.5 -7.5t-4.5 -17.5v-59h-31v106zM1155 -98q0 -10 4 -20.5t23 -10.5q16 0 20 10q4 4 4 21 q0 33 -24 32q-14 0 -20.5 -10t-6.5 -22zM1247 -363.5q0 7.5 27 7.5q0 -14 24 -15q16 0 17 9q0 6 -10 8l-25 6q-14 4 -22.5 10t-8.5 21q0 6 8.5 21t34.5 15q35 0 45 -20l4 -16h-30q0 6 -2 9t-15 3q-16 0 -16 -8q0 -6 8 -9l25 -6q14 -4 24 -10q8 -4 8 -18q0 -37 -47 -37h-10 q-16 0 -24.5 5t-11.5 11t-3 13.5zM1255 -43h27v-14q12 16 33 16q12 0 20 -4l13 -10q6 -12 6 -21v-76h-29v66q0 6 -2 13t-16 7q-12 0 -16.5 -4t-4.5 -20v-62h-31v109zM1343.5 796.5q-8.5 -32.5 2.5 -53.5q6 -12 17 -9t22.5 13.5t21.5 23.5t14 22q-2 -14 -2 -33t23 -6 q12 4 23.5 16t21.5 27q4 -20 18 -21q16 0 33.5 9.5t34.5 19.5l26 26q0 -18 11.5 -27t34.5 -3q47 18 77 67q0 2 3.5 8.5t4.5 11.5t0 7t-10 -4q-8 -4 -13 -14.5t-11 -20.5q-6 -6 -16.5 -14t-20.5 -15.5t-19.5 -9.5t-13.5 6q-2 8 1 15.5t5 17.5q10 0 27.5 6t13.5 6 q10 4 21.5 14.5t19.5 23t11.5 23.5t-3.5 19q-10 16 -34.5 6t-40.5 -26q-16 -12 -25.5 -29.5t-19.5 -36.5q-6 -10 -15.5 -25.5t-17.5 -19.5q27 37 20 74q-2 12 0 28.5t-6 24.5q-6 6 -11 4t-11.5 -9t-11.5 -15.5t-7 -12.5l-43 -67q-14 -16 -23.5 -36t-29.5 -34q-8 -6 -6 1 t7 18.5t11 21.5t6 12l52 97q8 14 21 34.5t9 34.5q-4 4 -16.5 11t-20.5 -9q-12 -25 -26.5 -52.5t-24.5 -55.5q-12 -29 -28.5 -61.5t-40.5 -57.5q-14 -16 -16.5 -10t0.5 19.5t8 29.5t8 20q12 31 27.5 62t35.5 59q8 10 7 20.5t-7 16.5t-14 5t-17 -15q-16 -29 -31.5 -60.5 t-27.5 -60.5q-10 -25 -18.5 -57.5zM1366 -43h18v29h25v-29h18v-20h-18v-58q0 -8 4 -9t8 -1l6 2v-23h-18q-25 0 -25 11v78h-18v20zM1366 -362h29v-29h-29v29zM1415 -340q0 23 10.5 41t36.5 18q23 0 36 -12t13 -31h-28q0 4 -3.5 10.5t-15.5 6.5t-16 -9.5t-4 -19.5q0 -23 3 -29 t17 -6q18 0 19 19h28q0 -6 -8 -23.5t-41 -17.5q-23 0 -35 11t-12 42zM1493 -121q0 18 10 23.5t21 9.5l26 4q10 0 11 8q0 12 -17 13q-6 0 -12 -2.5t-8 -14.5h-27q4 12 8 25.5t25 13.5h14q18 0 28.5 -5t12.5 -10t2 -12v-73q0 -4 8 -4v-7h-32v2v5q0 2 -1 4t-1 4 q-4 -6 -10.5 -10.5t-8.5 -4.5l-8 -2h-8t-19.5 7.5t-13.5 25.5zM1508 801q-1 4 2 11t12 9q16 2 12 18.5t-12 16.5l24 37q10 -14 7 -39t-21 -43q-10 -12 -16.5 -13t-7.5 3zM1522 -121q0 -12 14 -12h8q8 2 12.5 10t4.5 10v15q-6 -4 -13 -4l-12 -4q-4 0 -9 -4.5t-5 -10.5z M1524 -340q0 39 20.5 49t36.5 10q10 0 18.5 -4t22.5 -10q4 -6 8 -16.5t4 -28.5q0 -23 -13 -38t-40 -15q-35 0 -46 18.5t-11 34.5zM1554 -340q0 -12 5.5 -21.5t21.5 -9.5q14 1 18 11q4 4 4.5 10t0.5 10q0 18 -4.5 25.5t-18.5 7.5q-18 0 -22.5 -9.5t-4.5 -23.5zM1559 602 l4 -10l53 43l-21 2zM1569 690l26 -47l29 -2l117 92l-139 -4zM1602 -43h12v29h28v-29h21v-20h-21v-58q0 -10 13 -10l8 2v-23h-21q-16 0 -22 7.5t-6 15.5v66h-12v20zM1638 737l103 -4l41 31zM1645 870q2 6 9 18.5t16 25t18.5 19.5t15.5 3t3 -12.5t-10 -17.5t-15.5 -16 t-12.5 -9l-2 -2zM1655 -285h26v-16q10 20 31 20q12 0 18.5 -6t10.5 -12q2 4 10 11t21 7q10 0 19 -6t11 -14q6 -6 6 -16v-74h-28v63q0 20 -17 21q-18 0 -18 -21v-63h-27v63q0 8 -3 14.5t-13 6.5q-20 0 -21 -19v-65h-26v106z" />
<glyph unicode="9" d="M68 252l100 194l-41 160l94 21v184l105 20l-90 13l104 -10l53 8l23 22l-21 47l-137 43l139 -36l39 30l-10 47l-127 68l133 -57l45 22l-4 51l-117 84l121 -82l49 19l6 49l-106 102l109 -94l53 8l10 47l-86 115l92 -106h51l19 45l-70 125l78 -119l49 -8l27 43l-51 137 l57 -135l49 -15l33 39l-31 142l37 -138l43 -22l41 35l-8 141l18 -141l39 -29l41 29l16 141l-6 -141l37 -35l47 22l33 138l-25 -142l29 -39l49 15l58 135l-50 -137l27 -43l51 8l74 119l-68 -125l17 -45h51l96 106l-88 -115l12 -47l50 -8l108 94l-102 -102l2 -49l51 -19 l119 82l-115 -84l-4 -26l287 55v-184l149 30l-104 -196l53 -160l-276 -51l110 -37l-121 33l-34 -8l-29 -17l14 -49l129 -68l-135 60l-43 -21v-51l119 -88l-119 82l-51 -18l-2 -48l102 -104l-108 98l-50 -10l-12 -47l88 -115l-96 109h-51l-17 -47l68 -125l-74 121l-51 8 l-27 -41l50 -141l-58 135l-49 12l-29 -39l25 -141l-33 137l-47 27l-37 -35l6 -146l-16 146l-41 28l-39 -28l-18 -146l8 146l-41 35l-43 -27l-37 -137l31 141l-33 39l-49 -12l-57 -135l51 141l-27 41l-49 -8l-78 -121l70 125l-19 47h-51l-92 -109l86 115l-10 47l-53 10 l-109 -98l106 104l-2 23l-170 -35zM162 -285h31l16 -77l14 77h31l14 -77l19 77h28l-30 -106h-29l-18 78l-17 -78h-28zM221 465l127 -37l78 41l10 33zM295 543q4 -10 11 2t11 18q16 33 40 64.5t46 62.5q10 16 14.5 27.5t-5.5 19.5q-4 8 -14.5 11.5t-18.5 -11.5 q-16 -31 -34 -62.5t-30 -64.5q-4 -10 -16 -32.5t-4 -34.5zM309 670q0 -4 7.5 -3t14.5 5t12 11t3 13q-4 20 22.5 44t52 33t38 -5t-18.5 -72q-6 -10 -15 -22t-19 -21q-6 -8 -19.5 -13t-13.5 -13q-4 -6 1 -6t12 3t15.5 6t10.5 3q27 14 49 43q20 23 37.5 53.5t5.5 50.5 q-8 23 -37 21t-51 -10q-53 -23 -94 -74q-4 -10 -10.5 -24.5t-2.5 -22.5zM319 -285h29l19 -77l14 77h29l16 -77l16 77h31l-33 -106h-26l-19 78l-18 -78h-29zM324 -78q0 25 16 50.5t55 25.5h4q16 0 37 -15.5t21 -33.5h-31q0 10 -9 17t-22 7q-6 0 -17 -4t-16.5 -17t-5.5 -32 q0 -25 9.5 -36t23.5 -13h6q18 0 27.5 11.5t9.5 19.5h-37v26h62v-80h-21l-2 19q-12 -18 -26.5 -20.5t-20.5 -2.5q-14 0 -25.5 6.5t-19.5 16.5q-18 18 -18 55zM352 426l121 -37l4 51l-45 21zM420 907l20 -51l-4 -6l25 6l-21 45l47 31l-14 49l47 20l-6 52l49 16l4 51l51 8 l13 48h51l18 51l52 -6l26 43l49 -15l31 41l51 -24l33 34l43 -28l43 28l41 -34l41 24l33 -41l51 15l23 -43l55 6l16 -51h53l11 -48l53 -8v-51l51 -16v-4h17v16l-52 14l-2 54l-53 10l-10 51h-56l-20 51l-51 -8l-29 47l-49 -18l-35 43l-47 -25l-39 37l-45 -31l-45 31l-39 -37 l-49 25l-31 -43l-51 18l-25 -47l-55 8l-16 -51h-56l-12 -51l-51 -10l-6 -54l-51 -14l2 -51l-45 -23l12 -55zM455 479l45 -24l-2 -54l51 -16l6 -53l51 -10l12 -52h56l16 -47l55 8l25 -49l51 19l31 -41l49 22l39 -39l45 31l45 -31l39 39l47 -22l35 41l49 -19l29 49l51 -8 l20 47h56l10 52l53 10l2 53l52 16l-5 54l48 24l-11 49l45 31l-20 51l39 33l-27 49l25 29l-25 -4l-20 -21l28 -47l-41 -37l21 -47l-43 -30l12 -50l-47 -22l4 -51l-51 -15v-53l-53 -4l-11 -51h-53l-16 -49l-55 8l-23 -43l-51 16l-33 -41l-41 23l-41 -39l-43 31l-43 -31l-33 39 l-51 -23l-31 41l-49 -16l-26 43l-52 -8l-18 49h-51l-13 51l-51 4l-4 53l-49 15l6 51l-47 22l6 31l-18 -4zM460 619.5q-3 -21.5 7 -35t39 -4.5q23 8 44 26.5t38 40.5v2q10 10 19.5 35t17.5 33q6 -8 2 -21.5t-11.5 -29t-13.5 -29.5t-2 -27q10 -20 27.5 -6t34.5 37 q4 -25 22 -25q16 0 33.5 8.5t34.5 18.5l16 21q0 -16 9 -24.5t34 1.5q10 4 23.5 13.5t23.5 21.5q23 0 37 14q-8 -16 -8 -26.5t4 -8.5q10 2 24.5 24.5t24.5 33.5q12 18 27.5 35.5t31.5 35.5q-10 -23 -20 -44t-21 -44q-6 -25 12.5 -23.5t35.5 17.5l24 23q0 -14 12 -21 q16 -6 32 6.5t26 28.5q-2 -18 4 -23.5t15 -2t21.5 12.5t22.5 19q0 -20 13.5 -21t33.5 21q12 12 20.5 24.5t16.5 22.5q0 10 -1 16.5t-11 -3.5t-15.5 -22.5t-15.5 -22.5q-10 -14 -19 -14.5t1 16.5q10 23 25.5 47t31.5 47l72 110q6 8 2 17.5t-11.5 15.5t-15.5 7t-10 -9 q-33 -51 -62.5 -105.5t-50.5 -109.5q-4 -4 -4 -6v-4q-8 -10 -17 -22.5t-24 -20.5q-4 0 -2 6t7.5 14t10.5 15l5 8q6 8 14 21.5t2 19.5q-6 16 -15 10t-14 -10q-12 -18 -20 -39t-25 -41q-10 -12 -15 -11t-6 7t1 15t6 18q25 41 59 63q4 2 14.5 5l21 6t16.5 7.5t2 10.5 q-8 10 -34 4t-40 -12q-20 -14 -38.5 -33t-29.5 -41q0 -4 -6 -10l-30 -43q-12 -10 -17.5 -12.5t-5.5 2.5t4 13.5t8 16.5q6 6 14.5 17.5t16.5 22.5t13 22.5t3 17.5q-10 23 -35.5 1t-50.5 -52l17 24q6 12 3 17.5t-10.5 5.5t-15.5 -2t-10 -4q-4 -4 -13 -25.5t-18 -44.5 q-10 -8 -15 -16.5t-17 -14.5q14 18 21 39t5 36t-13 21.5t-32 -1.5q-20 -10 -41.5 -36t-34.5 -50q-10 -10 -19 -26.5t-15 -21.5q12 20 16 38t4 34q-4 14 -3 30.5t-7 24.5q-8 12 -20.5 -6t-18.5 -28q-18 -29 -35.5 -62t-42.5 -55q-10 -8 -13 -8t-2 5t4 12t5 11q4 4 9 10.5 t9 14.5q6 8 11 18q6 12 -0.5 17.5t-14.5 9.5t-13 9t1 18q10 16 1 15t-17 -15q-2 -10 -6.5 -17.5t-8.5 -15.5l-22 -47q-2 0 -2 -2q-2 -2 -2 -4q-4 -4 -11.5 -14.5t-11.5 -16.5q-6 -4 -15.5 -13.5t-19.5 -15.5t-19 -9t-14 5q-2 8 1.5 16.5t7.5 16.5q10 0 22 4t15 6q2 4 2 0 q8 6 19 16.5t19.5 22.5t12.5 24.5t0 20.5q-10 16 -36 6t-42 -26q-20 -16 -33.5 -41t-16.5 -46.5zM475 -94q0 23 11.5 38t39.5 15q29 0 39 -18.5t10 -38.5v-8h-73q0 -8 6 -16.5t20 -8.5q8 0 13.5 5t5.5 7h28q-4 -16 -18 -25.5t-29 -9.5q-53 0 -53 60zM475 -285h31l16 -77 l15 77h30l15 -77l16 77h31l-33 -106h-27l-16 78l-18 -78h-29zM506 -86h43q-6 23 -23 23q-18 0 -20 -23zM506 649q2 6 10 18.5t17.5 25t18.5 20.5t15 4q10 -8 4 -18.5t-18 -20.5t-26.5 -18.5t-20.5 -10.5zM584 -43h14v29h31v-29h16v-20h-16v-58q0 -8 1 -9t9 -1l6 2v-23h-16 q-18 0 -24.5 4.5t-6.5 18.5v66h-14v20zM606 885l678 129q-57 59 -133 94t-166 35q-66 0 -124 -19.5t-108.5 -53.5t-88 -81t-58.5 -104zM625 543q51 -98 147 -159.5t213 -61.5q80 0 150.5 28.5t124 77.5t88 116.5t45.5 145.5zM629 -362h28v-29h-28v29zM684 -285h27v-16 q8 20 30 20q20 0 31 -18q6 18 27 18q14 0 22 -8q4 -4 9.5 -10t5.5 -18v-74h-25v63q0 20 -18 21q-18 0 -19 -21v-63h-29v74q0 4 -3 7t-13 3q-18 0 -18 -19v-65h-27v106zM686 639q0 6 3 13t9 7q8 0 10.5 6.5t2.5 12.5t-4.5 12t-8.5 6q4 8 11.5 16.5t15.5 20.5q8 -12 5 -38 t-19 -46q-14 -16 -19.5 -16t-5.5 6zM707 -43h14v8q0 29 31 29h16v-21h-8l-8 -2v-14h16v-20h-16v-89h-31v89h-14v20zM784 -43h27v-68q0 -18 20 -18h11q10 8 12 23v63h27v-109h-27v17q-8 -10 -18.5 -14.5t-14.5 -4.5q-37 0 -37 39v72zM784 670q0 4 2 8t5 12q2 4 5 9.5t3 7.5 q2 8 7 14t7 16q-2 -20 0 -36.5t18 -22.5q-12 -10 -29.5 -20.5t-17.5 12.5zM828.5 728q2.5 26 23.5 42q14 8 15 0t-3 -22.5t-11 -30t-11 -21.5q-16 6 -13.5 32zM854 -365q0 31 33 35l24 4q8 2 9 9q0 12 -17 12q-16 0 -16 -14h-29q0 14 6 22t17 12q10 4 22 4q27 0 36 -10 t9 -20v-60q0 -10 2 -12q0 -4 4 -4v-4h-28l-2 2v2q-2 0 -2 8l-21 -12q0 -2 -12 -2q-35 0 -35 28zM883 -362q0 -10 14 -11h4l6 2l8 4q4 4 5 13v14q-4 -4 -9 -4l-14 -2l-10 -6q-4 -4 -4 -10zM907 -6h27v-146h-27v146zM926 711q4 12 13 23t17 22zM956 -6h27v-146h-27v146z M963 -285h28l19 -77l14 77h29l16 -77l18 77h27l-29 -106h-30l-17 78l-16 -78h-31zM1055 -43h14v8q0 29 33 29h12v-21h-6q-6 0 -6 -1t-4 -5v-10h20v-20h-20v-89h-29v89h-14v20zM1128 -98q0 23 12.5 40t41.5 17q18 0 25.5 -4t13.5 -10q8 -12 11 -20.5t3 -22.5 q0 -23 -13.5 -39.5t-39.5 -16.5q-23 0 -38.5 13.5t-15.5 42.5zM1128 -285h29v-16q10 20 31 20q12 0 20 -6q10 -4 14.5 -14t4.5 -16v-74h-29v63q0 14 -4 17.5t-14 3.5q-12 0 -16.5 -7.5t-4.5 -17.5v-59h-31v106zM1155 -98q0 -10 4 -20.5t23 -10.5q16 0 20 10q4 4 4 21 q0 33 -24 32q-14 0 -20.5 -10t-6.5 -22zM1247 -363.5q0 7.5 27 7.5q0 -14 24 -15q16 0 17 9q0 6 -10 8l-25 6q-14 4 -22.5 10t-8.5 21q0 6 8.5 21t34.5 15q35 0 45 -20l4 -16h-30q0 6 -2 9t-15 3q-16 0 -16 -8q0 -6 8 -9l25 -6q14 -4 24 -10q8 -4 8 -18q0 -37 -47 -37h-10 q-16 0 -24.5 5t-11.5 11t-3 13.5zM1255 -43h27v-14q12 16 33 16q12 0 20 -4l13 -10q6 -12 6 -21v-76h-29v66q0 6 -2 13t-16 7q-12 0 -16.5 -4t-4.5 -20v-62h-31v109zM1343.5 796.5q-8.5 -32.5 2.5 -53.5q6 -12 17 -9t22.5 13.5t21.5 23.5t14 22q-2 -14 -2 -33t23 -6 q12 4 23.5 16t21.5 27q4 -20 18 -21q16 0 33.5 9.5t34.5 19.5l26 26q0 -18 11.5 -27t34.5 -3q47 18 77 67q0 2 3.5 8.5t4.5 11.5t0 7t-10 -4q-8 -4 -13 -14.5t-11 -20.5q-6 -6 -16.5 -14t-20.5 -15.5t-19.5 -9.5t-13.5 6q-2 8 1 15.5t5 17.5q10 0 27.5 6t13.5 6 q10 4 21.5 14.5t19.5 23t11.5 23.5t-3.5 19q-10 16 -34.5 6t-40.5 -26q-16 -12 -25.5 -29.5t-19.5 -36.5q-6 -10 -15.5 -25.5t-17.5 -19.5q27 37 20 74q-2 12 0 28.5t-6 24.5q-6 6 -11 4t-11.5 -9t-11.5 -15.5t-7 -12.5l-43 -67q-14 -16 -23.5 -36t-29.5 -34q-8 -6 -6 1 t7 18.5t11 21.5t6 12l52 97q8 14 21 34.5t9 34.5q-4 4 -16.5 11t-20.5 -9q-12 -25 -26.5 -52.5t-24.5 -55.5q-12 -29 -28.5 -61.5t-40.5 -57.5q-14 -16 -16.5 -10t0.5 19.5t8 29.5t8 20q12 31 27.5 62t35.5 59q8 10 7 20.5t-7 16.5t-14 5t-17 -15q-16 -29 -31.5 -60.5 t-27.5 -60.5q-10 -25 -18.5 -57.5zM1366 -43h18v29h25v-29h18v-20h-18v-58q0 -8 4 -9t8 -1l6 2v-23h-18q-25 0 -25 11v78h-18v20zM1366 -362h29v-29h-29v29zM1415 -340q0 23 10.5 41t36.5 18q23 0 36 -12t13 -31h-28q0 4 -3.5 10.5t-15.5 6.5t-16 -9.5t-4 -19.5q0 -23 3 -29 t17 -6q18 0 19 19h28q0 -6 -8 -23.5t-41 -17.5q-23 0 -35 11t-12 42zM1493 -121q0 18 10 23.5t21 9.5l26 4q10 0 11 8q0 12 -17 13q-6 0 -12 -2.5t-8 -14.5h-27q4 12 8 25.5t25 13.5h14q18 0 28.5 -5t12.5 -10t2 -12v-73q0 -4 8 -4v-7h-32v2v5q0 2 -1 4t-1 4 q-4 -6 -10.5 -10.5t-8.5 -4.5l-8 -2h-8t-19.5 7.5t-13.5 25.5zM1508 801q-1 4 2 11t12 9q16 2 12 18.5t-12 16.5l24 37q10 -14 7 -39t-21 -43q-10 -12 -16.5 -13t-7.5 3zM1522 -121q0 -12 14 -12h8q8 2 12.5 10t4.5 10v15q-6 -4 -13 -4l-12 -4q-4 0 -9 -4.5t-5 -10.5z M1524 -340q0 39 20.5 49t36.5 10q10 0 18.5 -4t22.5 -10q4 -6 8 -16.5t4 -28.5q0 -23 -13 -38t-40 -15q-35 0 -46 18.5t-11 34.5zM1554 -340q0 -12 5.5 -21.5t21.5 -9.5q14 1 18 11q4 4 4.5 10t0.5 10q0 18 -4.5 25.5t-18.5 7.5q-18 0 -22.5 -9.5t-4.5 -23.5zM1559 602 l4 -10l53 43l-21 2zM1569 690l26 -47l29 -2l117 92l-139 -4zM1602 -43h12v29h28v-29h21v-20h-21v-58q0 -10 13 -10l8 2v-23h-21q-16 0 -22 7.5t-6 15.5v66h-12v20zM1638 737l103 -4l41 31zM1645 870q2 6 9 18.5t16 25t18.5 19.5t15.5 3t3 -12.5t-10 -17.5t-15.5 -16 t-12.5 -9l-2 -2zM1655 -285h26v-16q10 20 31 20q12 0 18.5 -6t10.5 -12q2 4 10 11t21 7q10 0 19 -6t11 -14q6 -6 6 -16v-74h-28v63q0 20 -17 21q-18 0 -18 -21v-63h-27v63q0 8 -3 14.5t-13 6.5q-20 0 -21 -19v-65h-26v106z" />
<glyph unicode=":" horiz-adv-x="446" d="M-94 8q51 102 86 158.5t79 83t110.5 32t180.5 5.5q-43 -76 -75.5 -126t-60 -81t-56.5 -46.5t-65.5 -20.5t-83.5 -5h-115zM152 500q51 102 85.5 158.5t78.5 83t111 31.5t181 5q-43 -76 -75.5 -126t-60.5 -80.5t-56.5 -46t-65.5 -20.5t-83.5 -5h-114.5z" />
<glyph unicode=";" horiz-adv-x="446" d="M-197 -184q43 25 78 78t72 118.5t79 133t95 118.5t124 77t167 7q-66 -115 -132.5 -212t-140 -167.5t-158 -111.5t-184.5 -41zM152 500q51 102 85.5 158.5t78.5 83t111 31.5t181 5q-43 -76 -75.5 -126t-60.5 -80.5t-56.5 -46t-65.5 -20.5t-83.5 -5h-114.5z" />
<glyph unicode="&#x3c;" horiz-adv-x="651" d="M78 444l18 72l570 303l20 -67l-399 -340l176 -351l-43 -18z" />
<glyph unicode="=" horiz-adv-x="686" d="M70 260l47 100h401l-39 -100h-409zM172 469l47 100h402l-39 -100h-410z" />
<glyph unicode="&#x3e;" horiz-adv-x="651" d="M78 111l399 340l-176 350l43 18l342 -401l-18 -72l-570 -303z" />
<glyph unicode="?" horiz-adv-x="880" d="M-94 8q51 102 86 158.5t79 83t110.5 32t180.5 5.5q-43 -76 -75.5 -126t-60 -81t-56.5 -46.5t-65.5 -20.5t-83.5 -5h-115zM274 403q25 92 84.5 159t134 126.5t155.5 116.5t147 131q61 68 93 134.5t32 119.5t-32 88t-97 43q-59 10 -106.5 -8.5t-79.5 -51t-47 -74.5t-10 -79 t32.5 -63.5t81.5 -28.5q6 -35 -13.5 -66.5t-55.5 -51t-82 -23t-91 19.5q-66 31 -93.5 81t-22.5 105.5t41 109.5t94.5 96t138 65.5t174.5 15.5q160 -14 250 -65.5t124.5 -122t22.5 -150.5t-55 -149q-33 -53 -98.5 -99.5t-144.5 -87.5t-163 -76.5t-155.5 -71.5t-121 -71 t-59.5 -72h-78z" />
<glyph unicode="@" horiz-adv-x="1288" d="M45 141.5q-6 110.5 33 233.5q37 125 121 236.5t196.5 194.5t242.5 131t263 48q127 0 208 -47t116 -129t23.5 -192.5t-68.5 -235.5q-10 -20 -42 -78.5t-82 -122t-118 -117t-147 -61.5l53 96q35 0 74.5 28t77.5 70t71 92t51 93q55 125 67.5 227.5t-17 176t-101.5 114.5 t-184 41q-111 0 -228.5 -46t-221 -124t-182.5 -180.5t-112 -214.5q-35 -111 -31.5 -210t44.5 -174t118.5 -119t192.5 -44q45 0 90 8t90 27l23 -45q-117 -47 -226 -47q-121 0 -208 48t-134 130t-53 192.5zM229 177q2 81 41 174t107.5 174t164 134.5t210.5 53.5 q66 0 106.5 -25.5t67.5 -54.5q29 -37 47 -80l-29 -12q-14 33 -33 57q-16 23 -37.5 41t-48.5 18q-47 0 -100 -43t-101.5 -108.5t-88 -141t-61 -141t-18.5 -108.5t38 -43q14 0 35.5 18.5t45 49t48 69.5t47.5 80q53 96 114 219q-8 -29 -24.5 -79t-40 -107.5t-55 -117 t-72.5 -106.5t-90 -77.5t-107 -30.5q-88 0 -128 53t-38 134zM612 111.5q6 52.5 35 116t58 122.5t57.5 115.5t50.5 103.5l51 103l285 41q-25 -45 -51 -103q-25 -49 -56.5 -116.5t-72.5 -149.5q-41 -80 -66.5 -133t-36 -85t-7.5 -45t20 -13q31 0 71.5 41t77.5 92q43 59 90 135 q-41 -98 -96 -174q-25 -33 -53.5 -63.5t-63.5 -55.5t-76 -39t-86 -14q-84 0 -110.5 34.5t-20.5 87z" />
<glyph unicode="A" horiz-adv-x="1073" d="M1 58q3 94 55.5 229t137.5 283.5t197.5 296t237.5 265t256 190.5t252 73q189 -1 227 -93q10 -25 11 -58q0 -93 -77 -255q-16 -33 -45.5 -91t-66.5 -131t-79 -155t-85 -161q-98 -188 -215 -406l-324 -45q43 78 90 168q41 76 91.5 173t103.5 200h-285q-59 -115 -108 -221.5 t-85 -189.5t-53.5 -135t-11.5 -58q-68 -26 -115 -26q-37 1 -60 17q-49 35 -49 120v10zM514 600h283q63 119 116.5 224.5t87.5 170.5q92 187 128 269q18 41 18 61q0 21 -19 21q-63 0 -140 -66t-157.5 -171t-161.5 -238.5t-155 -270.5z" />
<glyph unicode="B" horiz-adv-x="1388" d="M8 189q22 83 85 154t154 116q84 41 173 41h16q-27 -20 -62.5 -72.5t-63.5 -117.5q-26 -66 -38 -137q-4 -24 -5 -46q-1 -44 15 -82q22 -57 88 -95t191 -38q92 0 176 52t149.5 130t106.5 169t46 169q1 9 1 18q0 66 -34 112q-38 52 -127 52q-16 0 -33 7.5t-20 14.5t12.5 14 t60.5 7q193 0 296 -58t128 -146q9 -31 9 -63q0 -62 -30 -128q-46 -102 -153 -190t-265.5 -146.5t-357.5 -58.5q-219 0 -338 48q-118 47 -160 119q-28 47 -28 100q1 27 8 55zM324 855q-1 8 0 17q0 72 42 155q46 93 147 173t259 134.5t377 54.5q207 0 321.5 -56.5 t149.5 -142.5q17 -42 17 -87q0 -47 -19 -97q-37 -98 -135.5 -184.5t-251 -142.5t-344.5 -56q-45 0 -54.5 7t0 14t31 14.5t37.5 7.5q78 0 158 50t145.5 127t107.5 165q43 90 43 168q0 74 -46 124q-47 50 -160 50q-125 0 -221.5 -44t-167 -112t-117.5 -148.5t-73 -155.5 q-25 -76 -32 -134q-3 -24 -3 -41q0 -25 6 -37h-14q-89 0 -141 47q-56 51 -62 130zM336 78l565 1157l322 45l-566 -1157z" />
<glyph unicode="C" horiz-adv-x="811" d="M5 440q13 125 61.5 255t129 255t184 222.5t225.5 157t255 59.5q111 0 167 -61q57 -62 65 -152q2 -17 1 -33q0 -75 -30 -157q-37 -101 -109 -182t-178 -124q-65 -26 -139 -26q-46 0 -96 10q57 47 109 114.5t94 143t72 150.5q30 74 43 134q10 46 10 79q0 11 -1 19 q-4 38 -28 37q-47 0 -107.5 -55t-125 -146t-126 -208t-110.5 -238t-82 -237.5t-36 -207.5v-16q1 -81 27 -131q30 -56 103 -55q70 0 150.5 32t166.5 93t172 148.5t164 197.5q-84 -141 -175 -239.5t-181 -160t-173 -89t-151 -27.5q-139 0 -220 60q-80 59 -112 156 q-22 69 -23 151q0 34 4 71z" />
<glyph unicode="D" horiz-adv-x="1470" d="M2 202q6 77 58.5 142.5t143.5 109.5t210 46q-94 -98 -135 -198q-32 -77 -32 -142q0 -19 3 -37q12 -80 76.5 -129t179.5 -49q96 0 197.5 60.5t196.5 159.5t178 225t144.5 258t95.5 259q30 112 30 203v24q-4 100 -52.5 160t-148.5 60q-162 0 -277.5 -73t-188.5 -177 q-73 -106 -105 -222q-26 -98 -26 -175q0 -15 1 -29q-121 8 -175 64q-49 52 -49 122v14q5 78 66.5 167.5t169 166t259 127t337.5 50.5q166 0 264.5 -63.5t140.5 -167.5q32 -81 32 -179q0 -29 -2 -59q-12 -134 -70 -273t-156 -272t-229 -237.5t-291 -168t-340 -63.5 q-186 0 -299 44t-163 110q-45 58 -45 126q0 8 1 16zM348 78l563 1157l322 45l-563 -1157z" />
<glyph unicode="E" horiz-adv-x="1054" d="M6 322q16 90 78.5 173t170 147.5t257.5 90.5q-39 53 -51 123q-6 32 -6 65q0 39 8 79q14 74 54 144t104.5 126.5t152.5 91.5t199 35t179 -47t98 -118q23 -56 24 -117q0 -17 -2 -34q-8 -80 -52 -146.5t-123 -104.5q-60 -29 -138 -30q-24 0 -50 3q49 61 72 153q21 83 21 160 v17q-2 86 -29 146t-76 60q-33 0 -61.5 -29.5t-50 -78.5t-35.5 -111q-13 -60 -14 -124q0 -5 -1 -10q0 -58 12 -112q12 -58 41 -102q-84 -18 -170 -78.5t-159.5 -141.5t-128 -169t-72.5 -163q-8 -33 -8 -61q0 -35 12 -62q22 -48 103 -48q80 0 140 37t103 93.5t70 124.5t38 134 q9 51 9 96q0 12 -1 23q-3 53 -19 78q147 0 221 -48t86 -120q3 -16 3 -32q0 -58 -36 -123q-45 -83 -133 -154.5t-215 -119.5t-281 -48q-133 0 -215 48q-81 48 -113 122q-21 48 -21 103q-1 28 5 59z" />
<glyph unicode="F" horiz-adv-x="837" d="M0 0l592 1225l323 43l-608 -1268h-307zM71 855v16q0 72 41 156q46 93 147 173t259 134.5t377 54.5q207 0 317 -42q111 -41 149 -105q23 -39 23 -82q0 -27 -10 -56q-24 -74 -89.5 -137.5t-160 -105.5t-196.5 -42q72 76 119 168t52 173v15q0 71 -42 121q-47 54 -164 54 q-125 0 -221.5 -44t-167 -112t-116.5 -148.5t-72 -155.5q-25 -76 -32 -134q-3 -24 -2 -41q0 -25 5 -37h-14q-89 0 -141 47q-56 51 -61 130zM145 541l27 59h670l-19 -59h-678z" />
<glyph unicode="G" horiz-adv-x="882" d="M6 218q-5 31 -5 65q0 72 21 157q29 125 93.5 255t158 255t207 222.5t240.5 157t260 59.5q113 0 169 -53.5t66 -130.5q2 -16 2 -33q0 -63 -28 -131q-35 -87 -106.5 -154.5t-175.5 -102.5q-60 -19 -128 -19q-52 0 -108 11q86 70 156.5 167t112.5 185.5t49 150.5q1 9 1 17 q0 45 -33 45q-47 0 -112.5 -55t-137 -146t-145.5 -208t-138.5 -238t-112.5 -237.5t-70 -207.5q-15 -60 -15 -105q0 -23 3 -42q12 -55 65 -55q37 0 83 55.5t90 131t82 151.5t60 119q20 37 29.5 26.5t-0.5 -34.5q-25 -57 -62.5 -141.5t-86 -163t-104.5 -134t-118 -55.5 q-123 0 -185.5 59.5t-76.5 156.5zM276 -164l381 774l285 41l-379 -774z" />
<glyph unicode="H" horiz-adv-x="1107" d="M0 0l659 1354l324 43l-661 -1352zM66 865q-1 8 0 17q0 72 42 155q46 93 147 173t259 134.5t377 54.5h47.5t44.5 -2l-127 -43q-31 6 -70 6q-125 0 -213 -44t-147 -111.5t-92 -148.5t-47.5 -156t-14.5 -133t11 -79h-14q-89 0 -141 47q-56 51 -62 130zM373 541l28 59h668 l-18 -59h-678zM545 0l659 1354l324 43l-682 -1397h-301z" />
<glyph unicode="I" horiz-adv-x="598" d="M0 0l666 1354l321 43l-680 -1397h-307zM194 934q-6 21 -6 44q0 32 10 70q18 66 76 128.5t154 111.5t238 66l26 -31q-49 -8 -93 -38t-81 -73t-65.5 -93t-47 -99t-28.5 -91t-10 -67q-35 -12 -64 -12t-51 12q-44 23 -58 72z" />
<glyph unicode="J" horiz-adv-x="1021" d="M0 28v7q0 84 43 179q45 99 122 175t178 113q52 19 107 19q52 0 107 -17q-35 -33 -80 -93.5t-90 -132t-84 -147.5t-62.5 -138.5t-24.5 -101t30 -38.5q20 0 50 20.5t72 72.5t95 139t121 222q33 68 72.5 148t81.5 166t85 174t84 170q94 190 193 389l321 43 q-111 -227 -211 -439q-43 -90 -89 -184t-90 -184t-83 -169t-69 -138q-123 -242 -282 -352.5t-359 -110.5q-123 0 -179.5 60.5t-58.5 147.5zM480 1006q3 51 38 104q41 63 95.5 105t126 69t160.5 42t200 28l33 -41q-100 -18 -183 -74q-35 -25 -70.5 -60.5t-66.5 -85 t-54.5 -114t-35.5 -148.5q-84 0 -138.5 24t-80.5 63q-24 34 -24 78v10z" />
<glyph unicode="K" horiz-adv-x="1050" d="M0 0l662 1354l321 43l-659 -1352zM66 865q-1 8 0 17q0 72 42 155q46 93 147 173t259 134.5t377 54.5h47.5t44.5 -2l-127 -43q-31 6 -70 6q-125 0 -213 -44t-147 -111.5t-92 -148.5t-47.5 -156t-14.5 -133t11 -79h-14q-89 0 -141 47q-56 51 -62 130zM485 723l306 18 q123 0 180 -31.5t71 -83.5q5 -20 4 -42q0 -36 -14 -78q-22 -66 -57 -135.5t-72 -136t-55 -118.5q-10 -30 -9 -54q0 -16 5 -30q13 -32 76 -32q-162 0 -236 30t-90 82q-6 20 -6 42q0 34 16 74q26 64 61 133t66 133q25 53 25 97q0 9 -1 19q-7 52 -66.5 82.5t-203.5 30.5z M494 745q141 0 228 28t141.5 74t86 104.5t61 120t67.5 119.5t105.5 104t173 74t271.5 28q-70 0 -117 -30t-81.5 -78t-62.5 -110.5t-60.5 -127t-74.5 -126t-104.5 -109.5t-151.5 -77.5t-216 -29.5l-137 8z" />
<glyph unicode="L" horiz-adv-x="1380" d="M4 215q8 39 33.5 74t73 58.5t117.5 30.5q21 2 46 2q56 0 127 -11q119 -18 231.5 -78t216 -134.5t198 -152.5t173 -134t140.5 -78q23 -8 43 -8q34 0 61 23q-117 -104 -211 -138q-63 -23 -119 -23q-28 0 -52 6q-76 16 -138.5 71.5t-117 130t-103.5 156.5t-100.5 150.5 t-105.5 113.5t-120 45t-103.5 -39.5t-47.5 -89.5q-4 -18 -3 -34q0 -30 11 -55q18 -40 65 -40q20 0 49 16.5t69 62.5t92.5 129t119.5 218l217 449q123 240 282 350.5t359 110.5q92 0 145 -40q52 -39 68 -103q9 -34 9 -73q-1 -34 -7 -71q-14 -80 -52 -161t-96 -154.5 t-129 -125t-153 -71.5q-36 -9 -72 -9q-47 0 -94 15q35 33 85.5 101.5t101.5 152.5t98 174t78 164t36 121t-26 47q-20 0 -50 -20.5t-72 -71.5t-95 -139.5t-121 -221.5l-217 -448q-61 -121 -130 -202t-147.5 -131t-167.5 -73.5t-190 -27.5q-21 -1 -41 -1q-70 0 -118 11 q-62 14 -97 40.5t-46 61.5q-6 20 -6 42q0 16 3 32z" />
<glyph unicode="M" horiz-adv-x="1529" d="M0 0l659 1354l324 43l-682 -1397h-301zM66 865q-1 8 0 17q0 72 42 155q46 93 147 173t259 134.5t377 54.5h47.5t44.5 -2l-127 -43q-31 6 -70 6q-125 0 -213 -44t-147 -111.5t-92 -148.5t-47.5 -156t-14.5 -133t11 -79h-14q-89 0 -141 47q-56 51 -62 130zM451 0 q111 213 211 406q43 82 87 166.5t84.5 163.5t75.5 145.5t58 113.5q95 184 125 260q14 34 13 53q0 23 -20 23q-37 0 -80.5 -42t-89 -103.5t-86.5 -132t-73 -127.5q-27 -45 -48.5 -72t-37.5 -41q-20 -18 -37 -25q80 170 164 304q37 57 77.5 111t83.5 97t88.5 70t90.5 27 q94 0 148 -21q55 -20 69 -67q6 -18 5 -42q1 -36 -13 -83q-22 -78 -80 -195q-16 -33 -46 -91t-68 -131t-80 -155t-85 -161q-98 -188 -213 -406zM930 0q111 213 211 406q43 82 87 166.5t85 163.5t75.5 145.5t57.5 113.5q92 184 124 260q15 35 15 54q0 22 -20 22q-39 0 -83 -42 t-88 -103.5t-86 -132t-75 -127.5q-25 -45 -47.5 -72t-38.5 -41q-20 -18 -37 -25q80 170 164 304q37 57 78 111t85 97t89 70t90 27q94 0 148.5 -20.5t68.5 -67.5q5 -18 5 -39q0 -37 -14 -86q-24 -78 -81 -195q-16 -33 -46 -91t-68 -131t-80 -155t-85 -161q-98 -188 -213 -406 z" />
<glyph unicode="N" horiz-adv-x="1144" d="M0 0l659 1354l324 43l-682 -1397h-301zM66 865q-1 8 0 17q0 72 42 155q46 93 147 173t259 134.5t377 54.5h47.5t44.5 -2l-127 -43q-31 6 -70 6q-125 0 -213 -44t-147 -111.5t-92 -148.5t-47.5 -156t-14.5 -133t11 -79h-14q-89 0 -141 47q-56 51 -62 130zM551 0 q111 213 211 406q43 82 87 166.5t85 163.5t75.5 145.5t57.5 113.5q47 92 72.5 155.5t35 103.5t3 58.5t-24.5 18.5q-39 0 -94 -42t-111.5 -103.5t-109 -132t-84.5 -127.5q-27 -45 -48.5 -72t-37.5 -41q-20 -18 -37 -25q6 10 33.5 59.5t70.5 117t98.5 143.5t117 140.5 t126 106.5t127.5 42q94 0 154 -21q60 -20 80 -67q11 -25 11 -60q-1 -29 -9 -65q-18 -78 -74 -195q-16 -33 -46 -91t-68 -131t-80 -155t-85 -161q-98 -188 -213 -406z" />
<glyph unicode="O" horiz-adv-x="950" d="M4 236q-3 29 -3 59q-1 85 23 189q32 142 109 296q78 160 157 274.5t166 188.5t185 110t215 36q113 0 176.5 -55.5t77.5 -153.5q4 -30 4 -63q0 -77 -22 -171q-32 -135 -109 -295q-74 -158 -152.5 -278.5t-169 -202.5t-196 -124t-229.5 -42q-104 0 -162 63t-70 169zM208 87 q11 -38 48 -38q72 0 174 158t262 489q162 332 190 488q8 42 8 74q0 83 -56 83q-37 0 -77 -29.5t-89.5 -100t-111.5 -190.5t-144 -298q-84 -178 -132.5 -306t-65.5 -210q-10 -50 -10 -83q0 -22 4 -37z" />
<glyph unicode="P" horiz-adv-x="1054" d="M0 0l604 1235l322 45l-621 -1280h-305zM28 855v16q0 72 41 156q46 93 147 173t259 134.5t377 54.5q156 0 254 -41t148.5 -110t54.5 -155v-18q0 -78 -31 -159q-35 -91 -105.5 -177t-171 -154.5t-226.5 -109.5t-271 -41q-45 0 -54.5 7t1 14.5t31 14.5t36.5 7q78 0 165 65.5 t162 164t127 212t64 211.5q3 22 2 42q0 70 -32 122q-41 66 -154 66q-125 0 -221 -44t-167 -112t-118 -148.5t-72 -155.5q-26 -76 -33 -134q-3 -24 -2 -41q0 -25 5 -37h-14q-90 0 -142 47q-56 51 -60 130z" />
<glyph unicode="Q" horiz-adv-x="905" d="M10 296q-9 46 -9 98t9 110q17 117 63 237.5t119.5 237.5t168 208t207 146.5t239.5 55.5q111 0 170 -55.5t77 -146.5q7 -41 7 -87q0 -56 -11 -121q-22 -117 -73 -237.5t-129 -237.5t-175.5 -208t-209 -146.5t-230.5 -55.5q-98 0 -152 55.5t-71 146.5zM213 192 q4 -51 39 -51t85 51.5t106.5 136.5t114.5 192.5t109.5 220t90.5 220t60 192.5q16 67 16 113q0 12 -2 23q-5 51 -44 51t-89 -51t-106 -136t-112.5 -192.5t-106.5 -220t-88 -220t-58 -192.5q-16 -71 -16 -118q0 -10 1 -19zM236 559q90 -43 150 -120t101 -166t69 -180 t55.5 -162.5t60.5 -111.5q25 -31 61 -31q11 0 23 3q-115 -35 -195 -35q-13 0 -26 1q-86 7 -135.5 47t-71 105.5t-27.5 142.5q-4 51 -4 104q0 27 1 54q2 61 2 116v36q-1 70 -14 123.5t-50 73.5z" />
<glyph unicode="R" horiz-adv-x="1044" d="M0 0l604 1235l322 45l-621 -1280h-305zM28 855v16q0 72 41 156q46 93 147 173t259 134.5t377 54.5q207 0 321.5 -56.5t149.5 -142.5q17 -42 17 -87q0 -47 -19 -97q-37 -98 -135.5 -184.5t-251 -142.5t-344.5 -56q-45 0 -54.5 7t0 14t31 14.5t37.5 7.5q78 0 158 50 t145.5 127t107.5 165q43 90 43 168q0 74 -46 124q-47 50 -160 50q-125 0 -221 -44t-167 -112t-118 -148.5t-72 -155.5q-26 -76 -33 -134q-3 -24 -2 -41q0 -25 5 -37h-14q-90 0 -142 47q-56 51 -60 130zM430 631l303 18q125 0 185 -27q62 -28 80 -74q10 -26 10 -56 q0 -22 -6 -48q-14 -58 -42 -119t-58 -119.5t-42 -104.5q-5 -20 -5 -37q1 -20 9 -36q16 -28 78 -28q-131 0 -204 18q-74 18 -109 48q-36 31 -36 75q1 38 15 81q16 46 40 93t43.5 93.5t23.5 86.5q1 6 1 11q0 34 -22 60q-24 30 -86.5 47.5t-177.5 17.5z" />
<glyph unicode="S" horiz-adv-x="905" d="M3 522q7 94 42 178t93 140q60 54 140 72q24 5 50 6q61 0 133 -29q-111 -147 -156 -298q-43 -145 -43 -263v-10q2 -122 42 -200.5t102 -78.5q20 0 43.5 21.5t45 72.5t36 135t14.5 211q0 86 -16.5 194.5t-16.5 262.5q0 113 33 200t91 144t140 87t182 30q123 0 192 -55 q70 -56 90 -136q10 -39 10 -80q0 -43 -12 -88q-22 -88 -78 -154q-56 -68 -140 -96q-34 -12 -72 -11q-55 0 -117 24q27 10 57 55t56.5 107.5t47.5 132.5q20 70 26 130q2 19 2 37q0 36 -8 62q-12 39 -47 39q-18 0 -47 -18.5t-55.5 -67.5t-45 -135t-18.5 -219q0 -66 6 -119 t13 -105.5t13.5 -109.5t6.5 -131q0 -102 -29 -188.5t-84 -148t-134 -95t-177 -33.5q-115 0 -196 47t-131 123q-51 76 -71 170q-15 70 -15 140q0 24 2 48z" />
<glyph unicode="T" horiz-adv-x="632" d="M0 0l662 1354l321 43l-682 -1397h-301zM32 892q3 50 38 103q41 63 95 105.5t125.5 69t161 42t199.5 27.5l33 -41q-100 -18 -182 -74q-35 -25 -71 -60.5t-66.5 -84.5t-54 -113.5t-36.5 -148.5q-84 0 -138 23.5t-80 62.5q-24 35 -24 79v10zM774 1184l10 57h498l-27 -57 h-481z" />
<glyph unicode="U" horiz-adv-x="968" d="M-7 865v16q0 72 41 156q46 93 147.5 173t259 134.5t376.5 54.5h47.5t44.5 -2l-127 -43q-31 6 -69 6q-125 0 -213 -44t-147.5 -111.5t-92.5 -148.5t-47 -156t-14 -133t10 -79h-14q-89 0 -141 47q-56 51 -61 130zM6 88q-5 18 -5 41q-1 37 13 85q22 79 80 194q16 33 46 91 t68 130.5t80 155.5t85 163q98 188 213 406l323 43q-115 -213 -213 -406q-43 -82 -87 -168t-84 -163.5t-74.5 -145.5t-57.5 -113q-95 -183 -125 -259q-14 -35 -13 -54q0 -22 19 -22q37 0 81 40.5t89 102t86 132.5t74 130q25 45 47.5 71.5t38.5 43.5q20 18 37 24 q-80 -172 -164 -305q-37 -57 -78 -112.5t-85 -98.5t-89 -68.5t-88 -25.5q-96 0 -149.5 20.5t-67.5 67.5zM480 88q-7 19 -7 44q-1 36 15 82q26 79 83 194q16 33 46 91t68 130.5t81 155.5t84 163q98 188 211 406l323 43q-113 -213 -210 -406q-43 -82 -87.5 -168t-85 -163.5 t-75.5 -145.5t-58 -113q-47 -92 -82.5 -165.5t-55.5 -125.5q-18 -48 -18 -76q0 -4 1 -6q2 -28 32 -28q-121 0 -184 20.5t-81 67.5z" />
<glyph unicode="V" horiz-adv-x="1013" d="M-22 865q-1 8 0 17q0 72 42 155q46 93 147 173t259 134.5t377 54.5h47t45 -2l-127 -43q-31 6 -70 6q-125 0 -213 -44t-147 -111.5t-92 -148.5t-47.5 -156t-14.5 -133t11 -79h-14q-89 0 -141 47q-56 51 -62 130zM12 94q-9 24 -9 56q0 94 77 258q14 33 44 91l67.5 130.5 t79.5 155.5t85 163q98 188 215 406l324 43q-113 -213 -213 -406q-43 -82 -87 -168t-85 -163.5t-76 -145.5t-57 -113q-92 -184 -130 -268q-19 -43 -19 -64q0 -20 18 -20q53 0 119.5 56.5t137 147.5t144.5 209t141.5 241.5t126 243.5t100.5 215q41 94 63 156q17 48 17 63 q0 4 -1 5q66 25 111 25q35 -1 57 -15q51 -34 51 -123t-46 -218t-125 -270.5t-185.5 -282t-225.5 -252t-246 -181t-247 -69.5q-190 0 -226 94z" />
<glyph unicode="W" horiz-adv-x="1429" d="M-7 865v16q0 72 41 156q46 93 147.5 173t259 134.5t376.5 54.5h47.5t44.5 -2l-127 -43q-31 6 -69 6q-125 0 -213 -44t-147.5 -111.5t-92.5 -148.5t-47 -156t-14 -133t10 -79h-14q-89 0 -141 47q-56 51 -61 130zM6 88q-5 18 -5 41q-1 37 13 85q22 79 80 194q16 33 46 91 t68 130.5t80 155.5t85 163q98 188 213 406l323 43q-113 -213 -213 -406q-43 -82 -87 -168t-85 -163.5t-75.5 -145.5t-57.5 -113q-91 -183 -123 -259q-15 -36 -15 -54q0 -22 19 -22q39 0 83 40.5t88 102t86 132.5t75 130q25 45 47.5 71.5t38.5 43.5q20 18 37 24 q-80 -172 -164 -305q-37 -57 -78 -112.5t-85 -98.5t-89 -68.5t-88 -25.5q-96 0 -149.5 20.5t-67.5 67.5zM505 94q-9 24 -9 56q0 94 77 258q14 33 44 91t68 130.5t80 155.5t85 163q98 188 215 406l321 43q-115 -213 -212 -406q-43 -82 -87.5 -168t-84 -163.5t-74.5 -145.5 t-58 -113q-92 -184 -130 -268q-19 -43 -19 -64q0 -20 18 -20q39 0 93.5 55.5t119 145.5t133 206.5t134 238.5t123 240t99.5 211q43 94 65 154q18 48 17 61q0 4 -1 5q72 27 119 27q34 1 56 -13q50 -32 50 -115v-7q-2 -88 -50 -214t-129 -266.5t-184.5 -279t-216 -250 t-225.5 -180t-211 -68.5q-190 0 -226 94z" />
<glyph unicode="X" horiz-adv-x="1005" d="M5 168q13 78 58.5 167t119 178t166.5 162t205 118t232 45q190 0 227 -94q10 -25 9 -57q0 -94 -76 -257q-33 -68 -64.5 -135.5t-58.5 -122.5q-31 -66 -59 -125l-324 -43q25 57 58 125q29 59 65.5 137t83.5 170q92 184 130 268q19 43 19 64q0 20 -18 20q-70 0 -136.5 -55 t-122.5 -138t-101 -180.5t-76 -183.5t-44 -147q-8 -38 -8 -56q0 -11 3 -14q-93 -36 -154 -36q-15 0 -29 2q-66 12 -92 61q-17 32 -17 78q0 23 4 49zM546 904q-8 27 -8 59.5t8 69.5q16 75 62 163q18 37 33.5 65.5t26.5 51.5q12 23 20 43l320 30q-16 -31 -33 -63 q-14 -29 -32.5 -63.5t-37.5 -69.5q-86 -162 -127 -257q-22 -50 -22 -74q0 -21 18 -21q72 0 127 37.5t97 96t70 127t43 129t19.5 104.5t-4.5 54q116 45 188 45q1 -1 2 -1q74 0 108 -34q33 -32 32 -85v-7q-2 -58 -34.5 -125t-93 -136.5t-145.5 -126t-190.5 -92.5t-226.5 -36 q-96 0 -150 31t-70 85z" />
<glyph unicode="Y" horiz-adv-x="1013" d="M2 60q6 67 36 133.5t81 126t116.5 100.5t143.5 55q27 5 55 5q52 0 107 -17q-35 -33 -78 -90.5t-86 -125t-79 -138t-56.5 -128t-20.5 -93t33 -35.5q18 0 48 20.5t72 72.5t95 139t121 222q33 68 72.5 148t81.5 166t85 174t84 170q94 190 193 389l324 43 q-109 -227 -211 -439q-43 -90 -90.5 -184t-91.5 -184t-83 -169t-69 -138q-123 -242 -283 -352.5t-358 -110.5q-92 0 -147.5 32.5t-78.5 85.5q-17 43 -17 94q0 13 1 28zM48 865v16q0 72 41 156q46 93 147.5 173t259 134.5t376.5 54.5h47.5t45.5 -2l-127 -43q-31 6 -70 6 q-125 0 -213 -44t-147.5 -111.5t-92 -148.5t-47 -156t-14.5 -133t10 -79h-14q-90 0 -142 47q-55 51 -60 130zM350 649q-5 18 -5 42q0 36 13 83q23 78 80 195q33 66 68 134t65 124q35 66 70 127l324 43q-31 -57 -68 -125q-31 -59 -72 -138t-88 -171q-94 -184 -125 -260 q-15 -35 -15 -54q0 -22 19 -22q39 0 83 41t88 102t86 132t75 130q25 45 47.5 70.5t38.5 42.5q20 16 37 24q-80 -172 -164 -305q-37 -57 -78 -111.5t-85 -97.5t-89 -68.5t-90 -25.5q-96 0 -148 20.5t-67 67.5z" />
<glyph unicode="Z" horiz-adv-x="923" d="M4 188q14 34 68.5 81.5t147.5 116.5t225.5 172.5t302.5 247.5t376 345q-83 -30 -169 -30h-6q-89 1 -170 5q-29 1 -57 1q-48 0 -92 -4q-68 -7 -110 -52q68 154 142.5 222.5t152.5 84.5q35 7 69 6l87 -10q78 -20 149 -42q72 -22 136 -28q8 -1 16 0q54 0 98 37 q-43 -68 -117.5 -148.5t-167 -168.5t-195 -177t-202.5 -173q-236 -197 -510 -402q19 2 40 2q38 0 83 -7q70 -11 145.5 -26.5t153.5 -29.5t149.5 -14t132 18t99.5 70q-92 -147 -172 -224q-81 -77 -149 -103q-45 -17 -87 -17q-23 1 -43 5q-62 14 -116 44t-104 70t-98 67 t-95 30h-6q-44 0 -91 -38q-20 24 -20 47q0 11 4 22z" />
<glyph unicode="[" horiz-adv-x="598" d="M18 -266l422 1403h185l-420 -1403h-187zM74 -195h442v-71h-442v71zM487 1065v72h422v-72h-422z" />
<glyph unicode="\" horiz-adv-x="669" d="M0 1378h100l559 -1378h-102z" />
<glyph unicode="]" horiz-adv-x="606" d="M-221 -195h422v-71h-422v71zM63 -266l420 1403h187l-422 -1403h-185zM172 1065v72h442v-72h-442z" />
<glyph unicode="^" horiz-adv-x="718" d="M131 776l395 305h72l162 -317l-58 -39l-241 168l-299 -154z" />
<glyph unicode="_" horiz-adv-x="686" d="M-170 -170l47 100h647l-39 -100h-655z" />
<glyph unicode="`" horiz-adv-x="851" d="M70 1174q47 72 105 90t122.5 5.5t130.5 -46t126 -67.5t111.5 -57.5t86.5 -15.5q-57 -61 -138.5 -72.5t-172.5 8t-187 62.5t-184 93z" />
<glyph unicode="a" horiz-adv-x="911" d="M-4 214q2 91 46 196.5t122 196.5t186.5 151.5t237.5 60.5q72 0 121 -27.5t77 -62.5q35 -39 52 -90l-33 -12q-14 37 -37 65q-18 25 -44 45.5t-54 20.5q-53 0 -112.5 -49.5t-115 -123t-100.5 -159.5q-44 -86 -68 -160q-22 -68 -22 -115v-7q2 -50 43 -50q18 0 41.5 21.5 t49.5 55.5t53.5 78t54.5 91q61 109 129 246q-8 -33 -25.5 -88.5t-45.5 -121t-63.5 -132t-82 -120.5t-101.5 -88t-121 -34q-100 0 -145 60q-43 58 -43 144v8zM428 140q8 60 41 132t66 138q31 66 62.5 130t57.5 117q31 61 58 117l323 45q-27 -51 -57 -117 q-29 -55 -64.5 -130.5t-83.5 -168.5q-47 -92 -74.5 -152.5t-39.5 -96t-8 -50t22 -14.5q35 0 82 47t88 105q49 68 100 151q-45 -111 -108 -196q-27 -37 -59.5 -72t-72.5 -62.5t-86 -44t-97 -16.5q-96 0 -127 39q-25 31 -25 75q0 12 2 24z" />
<glyph unicode="b" horiz-adv-x="946" d="M-127 0l651 1331l324 45l-651 -1331zM74 178l32 15q14 -37 37 -66q20 -25 50 -44.5t73 -19.5q51 0 108.5 48.5t110 119t95.5 154.5q42 85 66 155q23 68 23 115q0 52 -36 52q-23 0 -51.5 -24t-60.5 -62.5t-64.5 -88t-63.5 -100.5q-72 -121 -147 -272q4 20 20 61 q14 35 41 94.5t74 155.5q33 63 70.5 125.5t84 112t101.5 80t125 30.5q94 -1 136 -61q39 -56 39 -139v-12q-3 -91 -47 -196.5t-121 -196.5t-181.5 -151.5t-227.5 -60.5q-94 0 -150 26.5t-87 61.5q-37 37 -49 88z" />
<glyph unicode="c" horiz-adv-x="768" d="M1 211q-2 16 -2 32q0 77 36 165q43 106 129 198t209 152.5t274 60.5q102 0 154.5 -40t62.5 -96q3 -15 3 -31q1 -42 -19 -90q-26 -64 -82 -112q-55 -50 -136 -72q-37 -10 -77 -10q-48 0 -102 15q51 49 95 117.5t71.5 132t34.5 108.5t-13 45q-29 0 -82 -55t-110.5 -139 t-107.5 -180q-49 -97 -73 -181q-15 -54 -16 -96q0 -23 5 -43q13 -55 87 -55q137 0 255 78t228 207q-41 -63 -99 -122t-129 -104t-151.5 -71.5t-166.5 -26.5q-133 0 -201 60.5t-77 152.5z" />
<glyph unicode="d" horiz-adv-x="913" d="M-2 214q2 91 45 196.5t121 196.5t186.5 151.5t237.5 60.5q72 0 120 -27.5t76 -62.5q35 -39 54 -90l-33 -12q-16 37 -39 65q-18 25 -43 45.5t-53 20.5q-53 0 -112.5 -49.5t-115 -123t-99.5 -159.5q-45 -86 -69 -160q-22 -65 -21 -111v-11q3 -50 44 -50q16 0 39.5 21.5 t50.5 55.5t54.5 78t54.5 91q61 109 129 246q-8 -33 -26.5 -88.5t-45.5 -121t-62.5 -132t-82 -120.5t-101.5 -88t-121 -34q-100 0 -145 60q-43 58 -43 144v8zM430 140q8 60 41 132t64 138q16 33 43.5 90t62.5 127.5t75 150.5l79 158q90 184 196 395l322 45 q-102 -207 -195 -395q-39 -80 -80 -163t-78.5 -159.5t-70.5 -143t-55 -112.5q-47 -92 -76 -152.5t-41 -96t-8 -50t22 -14.5q35 0 82 47t88 105q49 68 100 151q-45 -111 -106 -196q-27 -37 -59.5 -72t-72.5 -62.5t-86 -44t-97 -16.5q-96 0 -127 39q-25 31 -25 75q0 12 2 24z " />
<glyph unicode="e" horiz-adv-x="768" d="M1 211q-2 16 -2 32q0 77 36 165q43 106 129 198t209 152.5t274 60.5q102 0 155.5 -39t61.5 -98q1 -11 1 -22q1 -50 -29 -109q-36 -72 -116.5 -138.5t-199.5 -117.5t-276 -72q-27 10 -15.5 20.5t25.5 12.5q55 6 111.5 48t105.5 101.5t90 126t64.5 123t28.5 94t-17 37.5 q-29 0 -82 -55t-110.5 -139t-107.5 -180q-49 -97 -73 -181q-15 -54 -16 -96q0 -23 5 -43q13 -55 87 -55q139 0 255 78t226 207q-39 -63 -97 -122t-129 -104t-150.5 -71.5t-165.5 -26.5q-133 0 -201 60.5t-77 152.5z" />
<glyph unicode="f" horiz-adv-x="423" d="M-293 -348q94 197 193 397q41 86 87 180.5t93 189.5t93 189t89 180q84 170 159 276.5t153.5 166t166.5 81t199 21.5q100 0 154.5 -34.5t67.5 -84.5q5 -17 5 -36q0 -33 -15 -68q-24 -55 -77 -96t-132 -58q-31 -7 -65 -7q-53 0 -112 16q51 49 92 107t63.5 108.5t25.5 85 t-17 34.5t-55 -25.5t-81 -82.5t-103.5 -152.5t-125.5 -232.5q-35 -70 -74.5 -155t-84 -176t-89.5 -184t-88 -179q-98 -203 -200 -418zM178 819l45 80h510l-43 -80h-512z" />
<glyph unicode="g" horiz-adv-x="849" d="M-246 -131q19 68 74 114t144 59q20 3 42 3q74 0 168 -35q-55 -25 -100 -89t-72.5 -129.5t-31.5 -117.5q-1 -6 -1 -12q0 -39 25 -39q20 0 56 25.5t82 84t103.5 153t125.5 233.5q66 139 125 258t102 209q51 104 92 192l322 45q-35 -74 -84 -174q-43 -86 -105.5 -214 t-148.5 -300q-86 -170 -161 -276.5t-152.5 -166t-166 -81t-198.5 -21.5q-102 0 -161.5 44t-78.5 106q-9 30 -9 62.5t9 66.5zM1 278v11q0 76 36 165q39 95 111.5 176t177 135t233.5 54q72 0 121 -27.5t78 -62.5q35 -39 51 -90l-33 -12q-14 37 -37 65q-18 25 -43.5 45.5 t-54.5 20.5q-53 0 -109.5 -43t-106.5 -106.5t-89 -139.5t-58 -139q-15 -49 -15 -86q0 -11 1 -21q6 -43 47 -43q16 0 38 17.5t45.5 46t47 64.5t45.5 75q53 88 107 203q-12 -49 -39 -132t-73 -165t-114.5 -141.5t-166.5 -59.5q-100 0 -148.5 54.5t-51.5 135.5z" />
<glyph unicode="h" horiz-adv-x="899" d="M-129 0l651 1331l322 45l-649 -1331zM244 160q4 20 20 61q14 35 41 94.5t74 155.5q33 63 69.5 125.5t83 112t102.5 80t126 30.5q142 1 168 -101q5 -19 4 -41q0 -100 -96 -274q-94 -173 -126 -243q-15 -33 -15 -50q0 -20 20 -20q35 0 82 47t90 105q51 68 102 151 q-45 -111 -106 -196q-27 -37 -59.5 -72t-72.5 -62.5t-86.5 -44t-97.5 -16.5q-63 0 -96 18q-33 20 -43 50q-6 18 -6 39q0 15 3 32q7 41 25.5 86t42 92.5t46.5 90.5q33 63 60.5 118.5t41.5 94.5t13 61.5t-25 22.5q-23 0 -51.5 -24t-59.5 -62.5t-63.5 -88t-63.5 -100.5 q-72 -121 -147 -272z" />
<glyph unicode="i" horiz-adv-x="450" d="M-36 140q7 60 40 132t66 138t63.5 130t56.5 117q29 61 58 117l323 45q-25 -51 -55 -117q-27 -55 -64.5 -130.5t-84.5 -168.5q-47 -92 -75 -152.5t-40 -96t-8 -50t22 -14.5q35 0 82 47t88 105q49 68 101 151q-45 -111 -107 -196q-27 -37 -59.5 -72t-72.5 -62.5t-86 -44 t-97 -16.5q-96 0 -127 39q-25 32 -25 77q0 11 1 22zM348 975q41 80 69.5 134t56.5 87t58.5 51.5t73.5 28.5t103.5 15t146.5 16q-37 -74 -62.5 -122t-50 -80t-54.5 -49.5t-74 -29.5t-108.5 -23.5t-158.5 -27.5z" />
<glyph unicode="j" horiz-adv-x="423" d="M-680 -276q-9 26 -9 53q0 29 11 58q19 56 72 93t138 39h6q83 0 192 -53q-47 -10 -89 -56t-69 -98.5t-31 -94.5t25 -42q20 0 55 25.5t82 84t104 153t125 233.5q66 139 125.5 258t102.5 209q51 104 92 192l321 45q-35 -74 -84 -174q-43 -86 -105 -214t-148 -300 q-86 -170 -161 -276.5t-154 -166t-167 -81t-198 -21.5q-102 0 -160 39t-76 95zM354 975q41 80 70 134t56.5 87t58 51.5t73.5 28.5t103.5 15t146.5 16q-37 -74 -62.5 -122t-50 -80t-54 -49.5t-73.5 -29.5t-109 -23.5t-159 -27.5z" />
<glyph unicode="k" horiz-adv-x="870" d="M-127 0l651 1331l322 45l-672 -1376h-301zM158 61q27 55 74 130t104 141.5t121 114t125 47.5q100 0 139 -30q40 -31 40 -79q-1 -43 -23 -93q-24 -52 -45 -97t-30 -75t21 -30q35 0 82 47t90 105q51 68 102 151q-45 -111 -106 -196q-27 -37 -59.5 -72t-72.5 -62.5t-86 -44 t-97 -16.5q-84 0 -116 28q-33 28 -33 72q0 40 20 86q20 48 38.5 88.5t24.5 68.5t-20 28q-43 0 -79 -35t-65 -76q-33 -49 -57 -110q-40 -59 -70 -83q-24 -19 -24 -13q0 2 2 5zM270 319q195 137 291 234.5t125 157.5q18 38 18 60q0 14 -8 22q62 20 120 23h19q45 0 75 -12 q36 -16 46 -52q2 -9 2 -18q0 -31 -22 -75q-25 -49 -73 -80.5t-109.5 -56t-128 -45t-128 -48.5t-113.5 -66t-81 -97q-10 8 -18 17q-7 8 -13 17q-4 6 -4 12q0 3 2 7z" />
<glyph unicode="l" horiz-adv-x="450" d="M-37 140q8 60 41 132t66 138q14 33 42.5 90t63.5 127.5t74 150.5t78 158q90 184 196 395l324 45q-102 -207 -195 -395q-39 -80 -80 -163t-79.5 -159.5t-71.5 -143t-55 -112.5q-47 -92 -75 -152.5t-40 -96t-8 -50t22 -14.5q35 0 82 47t88 105q49 68 101 151 q-45 -111 -109 -196q-27 -37 -59.5 -72t-72.5 -62.5t-86 -44t-97 -16.5q-96 0 -127 39q-25 31 -25 75q0 12 2 24z" />
<glyph unicode="m" horiz-adv-x="1277" d="M-129 0l381 774l321 45l-401 -819h-301zM258 176q18 55 37 107q16 43 32.5 87t30.5 68q25 43 56.5 107.5t78 126t110 104.5t149.5 43q94 0 124 -39q25 -32 25 -77q0 -10 -1 -22q-7 -60 -39.5 -131.5t-65.5 -137.5q-33 -68 -68 -140.5t-65 -132.5q-37 -70 -70 -139h-301 q25 51 57 117q29 55 66 132t84 169t74.5 148.5t38 87t5 42t-23.5 11.5q-16 0 -40 -22.5t-50.5 -60.5t-55 -86.5t-55.5 -97.5q-63 -117 -133 -264zM672 160q0 14 10 51q10 31 33.5 88t70.5 154q33 63 66 128.5t73 119t91 86t121 32.5q143 1 169 -101q4 -18 4 -40 q0 -100 -98 -275q-92 -169 -124 -241q-15 -33 -16 -52q0 -20 20 -20q18 0 38.5 13.5t44 35t46 48t45.5 55.5q51 68 102 151q-45 -111 -108 -196q-27 -37 -60 -72t-73 -62.5t-86 -44t-97 -16.5q-96 0 -124 40q-21 29 -21 68q0 16 3 32q11 60 46 131t70 137q33 63 59.5 118.5 t41.5 94.5t14 61.5t-25 22.5q-16 0 -40 -24t-51.5 -62.5t-56.5 -88t-55 -100.5q-66 -121 -133 -272z" />
<glyph unicode="n" horiz-adv-x="907" d="M-127 0l379 774l323 45l-401 -819h-301zM250 160q4 20 20 61q14 35 42 94.5t75 155.5q33 63 70 125.5t83 112t101 80t125 30.5q143 1 170 -101q5 -19 5 -42q0 -100 -97 -273q-94 -173 -126 -243q-15 -33 -15 -50q0 -20 20 -20q35 0 82 47t90 105q51 68 102 151 q-45 -111 -106 -196q-27 -37 -59.5 -72t-72.5 -62.5t-86 -44t-98 -16.5q-63 0 -96 18q-33 20 -43 50q-6 18 -6 39q0 15 3 32q7 41 25.5 86t42 92.5t46.5 90.5q33 63 60.5 118.5t42 94.5t13.5 61.5t-26 22.5q-23 0 -51.5 -24t-60 -62.5t-64.5 -88t-64 -100.5 q-72 -121 -147 -272z" />
<glyph unicode="o" horiz-adv-x="878" d="M2 212q-2 18 -2 36q0 76 33 162q41 106 125 197t206.5 151.5t280.5 60.5q123 0 181.5 -60.5t60.5 -151.5v-8q0 -87 -44 -189q-46 -106 -130 -197.5t-200 -152t-251 -60.5q-123 0 -186.5 60.5t-73.5 151.5zM244 87q0 -50 30 -50q35 0 84.5 55t99.5 138t96 179.5t74 179.5 t32 138q1 7 0 13q0 42 -27 42q-49 0 -102.5 -55t-103.5 -138t-92 -179q-41 -97 -65 -180q-26 -89 -26 -143z" />
<glyph unicode="p" horiz-adv-x="927" d="M-360 -479l612 1253l323 45l-612 -1253zM80 178l33 15q14 -37 37 -66q18 -25 48.5 -44.5t71.5 -19.5q51 0 108.5 48.5t110 119t95.5 154.5t66 155q23 67 23 115q0 52 -36 52q-23 0 -51.5 -24t-59 -62.5t-63.5 -88t-64 -100.5q-72 -121 -147 -272q4 20 20 61 q14 35 41 94.5t74 155.5q33 63 70 125.5t83 112t102 80t126 30.5q94 0 136 -61q39 -56 39 -139v-12q-3 -91 -47 -196.5t-121 -196.5t-181.5 -151.5t-226.5 -60.5q-94 0 -150.5 26.5t-87.5 61.5q-37 37 -49 88z" />
<glyph unicode="q" horiz-adv-x="894" d="M-2 214q2 91 46 196.5t122 196.5t185.5 151.5t236.5 60.5q72 0 120 -27.5t76 -62.5q35 -39 54 -90l-33 -12q-16 37 -37 65q-18 25 -43 45.5t-53 20.5q-53 0 -112.5 -49.5t-115 -123t-100.5 -159.5t-70 -160q-22 -67 -22 -115v-7q2 -50 43 -50q18 0 41.5 21.5t49.5 55.5 t53.5 78t54.5 91q61 109 129 246q-8 -33 -25.5 -88.5t-44.5 -121t-63.5 -132t-82 -120.5t-100.5 -88t-121 -34q-100 0 -145 60q-43 58 -43 144v8zM102 -479l613 1253l323 45l-612 -1253zM123 -199l43 80h512l-45 -80h-510z" />
<glyph unicode="r" horiz-adv-x="878" d="M-127 0l381 774l324 45l-402 -819h-303zM315 387q37 84 86.5 162t104.5 138.5t114.5 96t120.5 35.5q105 1 143 -35q37 -34 36 -84v-6q-2 -54 -32 -116t-59.5 -115t-47 -89t4.5 -36q35 0 75 29.5t75 66.5q39 43 78 98q-43 -80 -99 -141q-49 -53 -119.5 -97t-164.5 -44 q-83 0 -111 32q-22 26 -22 64q0 10 1 20q7 50 34.5 108t54 108.5t38 83t-15.5 32.5q-37 0 -73.5 -34.5t-65.5 -75.5q-35 -49 -63 -109q-16 -23 -35 -42t-32 -33.5t-21 -19.5q-6 -3 -6 -1q0 1 1 4z" />
<glyph unicode="s" horiz-adv-x="729" d="M-16 142q-6 25 -7 51q-1 35 11 73q20 64 68 111t122 65q26 6 54 7q53 0 114 -23q-20 -4 -47 -34t-51.5 -73t-44 -92t-27.5 -91q-4 -22 -5 -41q0 -17 4 -29q7 -28 36 -27q18 0 48 12t58.5 42t51 83t24.5 134v13q-1 77 -21 183q-22 115 -83 268l276 45q91 -197 97 -349 q0 -13 1 -26q-1 -136 -55 -231q-60 -104 -170 -158.5t-248 -54.5q-92 0 -142 41t-64 101z" />
<glyph unicode="t" horiz-adv-x="450" d="M-35 140q8 60 41 132t66 138q14 33 38.5 82t53.5 106t59.5 119.5t61.5 124.5q70 143 149 301l371 141q-90 -180 -172 -348q-35 -72 -72 -146.5t-72.5 -145.5l-66.5 -133t-53 -108q-47 -92 -75 -152.5t-40 -96t-8 -50t22 -14.5q35 0 82 47t88 105q49 68 101 151 q-45 -111 -109 -196q-27 -37 -59.5 -72t-72.5 -62.5t-86 -44t-97 -16.5q-96 0 -127 39q-25 31 -25 75q0 12 2 24zM166 819l45 80h526l-43 -80h-528z" />
<glyph unicode="u" horiz-adv-x="907" d="M-38 116q0 52 30 125q31 75 76 169q33 66 64.5 130t60.5 117q31 61 61 117l324 45q-27 -51 -60 -117q-29 -55 -66.5 -130.5t-84.5 -168.5q-47 -92 -76 -150t-40 -92t-7 -47.5t22 -13.5q29 0 82 60.5t113.5 150.5t119 195.5t97.5 198.5q-70 -166 -132.5 -296t-125 -221.5 t-131 -138.5t-150.5 -47q-96 0 -136 28q-41 30 -41 86zM424 140q8 60 40.5 132t65.5 138q31 66 63 130t58 117q31 61 58 117l323 45q-27 -51 -57 -117q-29 -55 -65 -130.5t-83 -168.5q-47 -92 -74.5 -152.5t-40 -96t-8.5 -50t23 -14.5q35 0 82 47t88 105q49 68 100 151 q-45 -111 -108 -196q-27 -37 -59.5 -72t-72.5 -62.5t-86 -44t-98 -16.5q-97 0 -127 39q-24 31 -24 75q0 12 2 24z" />
<glyph unicode="v" horiz-adv-x="821" d="M-9 96q-9 24 -9 56q0 94 77 258q31 66 64 131t61 118q33 61 62 115l323 45q-27 -51 -59 -117q-29 -55 -68 -130.5t-86 -168.5q-92 -184 -130 -268q-19 -43 -19 -64q0 -20 18 -20q27 0 73 49.5t97 126t101.5 166.5t87.5 172q37 81 54 143q9 32 9 52q0 19 -8 28 q78 29 130 29q17 0 33 -3q58 -13 76 -61q10 -25 10 -56q0 -30 -8 -66q-18 -74 -61 -158t-108.5 -168t-145.5 -151.5t-169 -109.5t-179 -42q-190 0 -226 94z" />
<glyph unicode="w" horiz-adv-x="1202" d="M-34 104q-1 8 -1 16q0 47 25 112q29 76 80 178q35 66 66.5 130t60.5 117q31 61 61 117l322 45q-27 -51 -60 -117q-29 -55 -66.5 -130.5t-84.5 -168.5q-47 -92 -78 -152.5t-46.5 -97t-13.5 -52t21 -15.5q29 0 65.5 62.5t80.5 154.5t95.5 199.5t108.5 199.5 q-68 -166 -114 -296t-91 -220t-100 -137t-141 -47q-96 0 -140.5 25t-49.5 77zM384 96q-9 24 -10 57q0 94 77 257q31 66 63.5 131t60.5 118q33 61 62 115l324 45q-27 -51 -60 -117q-29 -55 -66.5 -130.5t-84.5 -168.5q-94 -184 -131 -268q-19 -43 -19 -64q0 -20 18 -20 q27 0 72 49.5t93 126t96.5 166.5t82.5 172q32 81 48 143q8 32 9 53q0 18 -7 27q75 30 125 30q15 0 29 -3q56 -12 73 -60q10 -27 10 -63q0 -28 -6 -60q-14 -75 -53 -158t-101.5 -167t-138.5 -152.5t-163 -110.5t-177 -42q-190 0 -226 94z" />
<glyph unicode="x" horiz-adv-x="804" d="M-86 -12q-3 33 -3 64q0 95 32 173q18 45 51 87t85 76t129 54.5t181 20.5q66 0 110 14.5t70.5 38t39 54t14.5 61.5q1 10 1 20q0 66 -34 148q68 15 120 15q34 0 62 -6q68 -16 92 -57q15 -24 15 -53q-1 -20 -7 -42q-16 -54 -73.5 -105t-154.5 -89t-232 -44 q-66 -4 -109 -22.5t-69.5 -46t-38 -62.5t-13.5 -70q-1 -12 0 -24q0 -75 31 -164zM217 774l277 45q6 -195 17 -333t28.5 -226t38 -129t45.5 -41q35 0 74.5 40t76.5 87q41 55 86 127q-49 -98 -102 -174q-23 -33 -49.5 -64.5t-54 -56t-57.5 -39t-58 -14.5q-70 0 -125.5 20.5 t-95 99.5t-65.5 233.5t-36 424.5z" />
<glyph unicode="y" horiz-adv-x="864" d="M-232 -131q19 68 73.5 114t144.5 59q20 3 42 3q75 0 169 -35q-37 -16 -70 -52t-59.5 -79t-45 -88t-26.5 -83t-4 -61.5t22 -23.5q20 0 56 25.5t82.5 84t104.5 153t126 233.5q66 139 125 258t102 209q51 104 92 192l322 45q-35 -74 -84 -174q-43 -86 -105.5 -214 t-148.5 -300q-86 -170 -160.5 -276.5t-153.5 -166t-167 -81t-199 -21.5q-100 0 -159.5 44t-78.5 106q-10 30 -10 62.5t10 66.5zM-13 186q0 52 29 124q31 75 76 169l60.5 121t48.5 94q23 45 43 80l321 45q-16 -33 -41 -82q-23 -41 -54.5 -106.5t-78.5 -157.5t-75.5 -150.5 t-40 -92t-7.5 -47t23 -13.5q29 0 76 49t101 127t106.5 172t91.5 187q-70 -166 -126.5 -286t-112.5 -197t-118.5 -113.5t-144.5 -36.5q-96 0 -136 28q-41 30 -41 86z" />
<glyph unicode="z" horiz-adv-x="649" d="M-150 131q68 94 140 122q53 21 107 21q18 0 36 -2q72 -10 143 -38q70 -28 136 -46q44 -12 86 -12q20 0 42 3q62 9 115 77q-80 -131 -146.5 -196.5t-121.5 -87.5q-32 -12 -62 -12q-21 0 -41 6q-48 16 -91 47.5t-83 68.5t-81 61.5t-84 26.5h-4q-41 0 -91 -39zM-25 242 l627 411l82 -16l-635 -414zM133 649q51 115 96 172.5t87 73.5q22 8 43 8q20 0 38 -7q39 -15 76 -46t73 -68t70.5 -62.5t71.5 -31.5q6 -1 11 -1l63 28q-68 -82 -132 -111q-58 -26 -112 -26h-12q-60 4 -114 25.5t-101 42t-87 26.5q-7 1 -13 1q-32 0 -58 -24z" />
<glyph unicode="{" horiz-adv-x="544" d="M124 105.5q3 72.5 21.5 142t34 129t18.5 106.5t-28 76q53 29 81 66t48 80t43 90t66 97t117.5 100t199.5 100l14 -35q-86 -47 -131 -121t-79.5 -151.5t-77.5 -146.5t-125 -106q29 -49 30.5 -100t-9.5 -105.5t-32.5 -111.5t-37 -116.5t-21.5 -122t10 -128.5l-33 -24 q-68 66 -90 137.5t-19 144z" />
<glyph unicode="|" horiz-adv-x="702" d="M23 -219l493 1597h100l-491 -1597h-102z" />
<glyph unicode="}" horiz-adv-x="692" d="M-119 -141q57 31 95 74.5t66 94t50.5 103.5t49 101.5t62.5 87t91 63.5q-29 49 -31 100.5t9.5 105.5t33 111.5t36.5 117t21.5 121.5t-10.5 128l33 25q68 -66 90.5 -137.5t19.5 -144.5t-21.5 -142.5t-34 -129t-18.5 -106.5t28 -76q-55 -29 -82 -65.5t-47.5 -79.5t-43 -90 t-65.5 -97.5t-118 -100.5t-199 -99z" />
<glyph unicode="~" horiz-adv-x="1019" d="M117 322q39 76 97 136t123.5 88.5t131.5 18.5t121 -78q47 -57 93 -60t81 13q41 20 80 66l49 -41q-66 -76 -132.5 -130t-130 -78t-121.5 -9.5t-106 74.5q-47 57 -91 57t-76 -23q-39 -27 -72 -82z" />
<glyph unicode="&#xa1;" horiz-adv-x="446" d="M-170 -129q59 57 107.5 143t93.5 180.5t93 188.5t109.5 169t141 122t188.5 47q-33 -18 -61.5 -72.5t-58 -130.5t-62.5 -164t-71 -173t-85 -158.5t-105.5 -120.5t-130 -58.5t-159.5 27.5zM369 913q66 113 107.5 171.5t85.5 82t103.5 24.5t159.5 1q-51 -102 -85.5 -158.5 t-79 -83t-111 -32t-180.5 -5.5z" />
<glyph unicode="&#xa2;" horiz-adv-x="768" d="M1 211q-9 92 34 197.5t129 197.5t209 152.5t274 60.5q102 0 154.5 -40t62.5 -96t-16.5 -120.5t-81.5 -113t-136 -71t-179 4.5q51 49 95 117.5t71.5 132t34.5 108.5t-13 45q-29 0 -82 -55t-110.5 -139t-107.5 -180.5t-73.5 -180.5t-10.5 -139t87 -55q137 0 255 78t228 207 q-41 -63 -99 -122t-129 -104t-151.5 -71.5t-166.5 -26.5q-133 0 -201 60.5t-77 152.5zM86 -219l139 266l86 -29l-123 -237h-102zM625 809l118 229h101l-135 -258z" />
<glyph unicode="&#xa3;" horiz-adv-x="1380" d="M137 229q8 33 30.5 64t62.5 51.5t101.5 26.5t149.5 -9q102 -16 199.5 -67t187.5 -115.5t171 -132t149.5 -116t122 -68t90.5 13.5q-102 -90 -183 -119.5t-147.5 -15.5t-121 62.5t-101.5 113t-90 135t-86 130t-91.5 98t-103.5 38.5t-88 -34.5t-42 -76.5t6.5 -77t56.5 -35 q18 0 42.5 14.5t59.5 54.5t80 111.5t104 188.5l187 387q53 102 108.5 171t116.5 110t133 58t158 17q106 0 153 -56t47 -137t-40.5 -172t-108.5 -163t-157 -108.5t-185 -6.5q31 29 71 85.5t80.5 125t75.5 140t56.5 130t23.5 96.5t-24 38q-16 0 -37 -11.5t-49.5 -47.5 t-68.5 -104.5t-97 -185.5l-189 -387q-53 -104 -112.5 -173.5t-128 -113.5t-145.5 -64.5t-163 -24.5q-82 -2 -136 10t-84.5 34.5t-40 52.5t-3.5 64zM567 422l41 88h469l-35 -88h-475z" />
<glyph unicode="&#xa4;" horiz-adv-x="837" d="M4 127q53 72 107.5 128t119.5 89l41 -86q-23 -29 -47 -55.5t-56 -46t-72 -28.5t-93 -1zM172 705q53 8 84 -1.5t46 -29t20.5 -47t7.5 -56.5l-74 -65q-33 43 -46 100.5t-38 98.5zM201 397q0 92 60.5 150.5t152.5 58.5q41 0 78.5 -15.5t66.5 -43t46.5 -66.5t17.5 -84 q0 -43 -17.5 -80.5t-46.5 -67.5t-66.5 -47.5t-78.5 -17.5q-47 0 -86 17.5t-67 47.5t-44 67.5t-16 80.5zM246 395q0 -66 46 -116t120 -50q33 0 62.5 13.5t52 37t35.5 53t13 62.5q0 74 -49 119t-114 45q-74 0 -120 -45t-46 -119zM483 227l78 66q29 -41 42 -96.5t38 -96.5 q-53 -8 -84 1.5t-46 27.5t-20.5 44t-7.5 54zM524 543q23 31 48.5 61.5t59.5 53t77 33.5t102 3q-53 -72 -108.5 -129t-122.5 -90z" />
<glyph unicode="&#xa5;" horiz-adv-x="1204" d="M60 -6q-3 74 34 155.5t102.5 144t153.5 93.5t187 0q-31 -29 -69 -80t-76 -110.5t-69.5 -122t-49 -112.5t-17.5 -82t29 -32q16 0 42.5 18.5t62.5 63.5t83.5 123t106.5 197q29 57 63.5 129t72.5 147.5t75.5 152.5t72.5 148q82 168 170 344l285 37q-96 -199 -186 -385 q-39 -80 -79 -162.5t-79 -161.5t-74 -149.5t-61 -122.5q-111 -211 -250 -309t-316 -98q-109 0 -160 50t-54 124zM102 740.5q-4 68.5 36 151.5t129 153.5t229.5 117.5t332.5 47h42.5t37.5 -2l-110 -37q-14 4 -29.5 4.5t-32.5 0.5q-111 0 -188.5 -39t-129.5 -97.5t-81 -130 t-42 -137t-12 -117t9 -69.5q-88 -4 -137.5 41t-53.5 113.5zM368.5 550q-12.5 42 8 110.5t69.5 170.5q29 59 60 119t57 109q31 57 62 112l284 37q-27 -51 -59 -110q-29 -53 -64.5 -122t-76.5 -149q-82 -164 -111 -230.5t6 -66.5q33 0 72 37t78 91.5t75.5 117t65.5 113.5 q23 39 41 63.5t35 36.5q18 14 33 21q-68 -152 -144 -269q-33 -51 -69.5 -99t-75.5 -86t-79 -60.5t-79 -22.5q-84 0 -130 17.5t-58.5 59.5zM455 152l43 88h440l-33 -88h-450zM545 336l43 88h440l-33 -88h-450z" />
<glyph unicode="&#xa6;" horiz-adv-x="702" d="M23 -219l225 731h102l-225 -731h-102zM317 735l199 643h100l-198 -643h-101z" />
<glyph unicode="&#xa7;" horiz-adv-x="956" d="M0 -4.5q6 67.5 43 123t105.5 87t168.5 17.5q-20 -8 -39.5 -42t-36 -81t-25.5 -99t-8 -95t13 -68.5t41 -19.5q18 4 47 16t54.5 40t40 76t4 120.5t-53.5 175t-133 241.5l187 127q129 -174 171 -316t14 -249.5t-118 -177.5t-225 -96q-90 -18 -147.5 12.5t-83 85.5 t-19.5 122.5zM221 487q23 20 45 43q20 20 45 44t51 51q61 59 142 135l26 -82l-266 -221q-14 6 -22 14q-8 6 -15.5 10t-5.5 6zM486.5 918.5q29.5 101.5 121.5 165t228 92.5q90 18 147 -12.5t83 -86t19.5 -123t-43 -123t-106.5 -88t-168 -16.5q20 6 39.5 41t36 82t26 99 t8.5 94t-13.5 69t-41.5 21q-18 -4 -48 -14.5t-56.5 -34t-43 -67.5t-7 -112.5t51.5 -169t132 -239.5l-186 -127q-129 174 -169 311t-10.5 238.5zM543 305l266 221q14 -6 22 -14l21 -16q-2 -2 -45 -44t-96 -94q-61 -59 -142 -135z" />
<glyph unicode="&#xa8;" horiz-adv-x="948" d="M39 967q51 102 86 158.5t79 83t110.5 31.5t181.5 5q-43 -76 -76 -126t-60.5 -80.5t-56.5 -46t-65.5 -20.5t-83.5 -5h-115zM420 975q51 102 86 158.5t79 83t110.5 31.5t181.5 5q-43 -76 -76 -126t-60.5 -80.5t-56.5 -46t-65.5 -20.5t-83.5 -5h-115z" />
<glyph unicode="&#xa9;" horiz-adv-x="1304" d="M40 384q11 116 65.5 227.5t150.5 201.5q98 92 215 140t233.5 52.5t225 -34.5t188.5 -125q82 -86 117 -194.5t23.5 -224.5t-65.5 -227.5t-153 -203.5q-98 -92 -213.5 -140.5t-232.5 -52.5t-225.5 37t-190.5 127q-80 84 -114.5 192.5t-23.5 224.5zM87 385.5 q-9 -106.5 22.5 -207t107.5 -176.5q76 -78 176.5 -116t208 -33.5t214 48.5t196.5 128q88 84 139 187t60.5 208.5t-22.5 207t-108 179.5q-74 78 -173 115t-206.5 33.5t-216 -48.5t-198.5 -129t-140.5 -187t-59.5 -209.5zM191.5 201q-9.5 92 33.5 197.5t129 197.5t209 152.5 t275 60.5q102 0 154 -40t62.5 -96.5t-16 -121t-82 -112.5t-136.5 -70.5t-179 4.5q51 49 95 117.5t72 132t35 108.5t-14 45q-29 0 -82 -55t-110 -139t-107.5 -180.5t-74 -180.5t-10.5 -139t87 -55q137 0 255 77.5t229 206.5q-41 -63 -99.5 -121.5t-129 -103.5t-151.5 -71.5 t-167 -26.5q-135 0 -201.5 60.5t-76 152.5z" />
<glyph unicode="&#xaa;" horiz-adv-x="647" d="M101.5 559.5q1.5 62.5 31.5 135.5t84 135.5t128.5 104t163.5 41.5q50 0 83.5 -18.5t53.5 -43.5q24 -26 35 -62l-22 -8q-10 26 -26 45q-12 17 -30 31t-37 14q-37 0 -78 -34t-79 -84.5t-69 -110t-47.5 -110t-15 -84.5t29.5 -34q13 0 29 14.5t34 38t37 54t37 62.5 q42 75 89 170q-5 -23 -17 -61t-31.5 -83.5t-44 -91t-56.5 -83t-70 -61t-83 -23.5q-69 0 -100 42t-29.5 104.5zM398.5 508q5.5 41 28.5 91t46 96q21 45 42.5 89t39.5 81q22 42 40 80l223 31q-19 -35 -39 -80q-20 -38 -44.5 -90t-57.5 -116t-52 -105.5t-27 -66t-5.5 -34.5 t15.5 -10q24 0 56.5 32.5t60.5 72.5q34 47 69 104q-31 -77 -75 -135q-18 -26 -40.5 -50t-50 -43t-59.5 -30.5t-67 -11.5q-66 0 -87.5 27t-16 68z" />
<glyph unicode="&#xab;" horiz-adv-x="1069" d="M78 444l18 72l570 303l20 -67l-399 -340l176 -351l-43 -18zM446 444l19 72l569 303l21 -67l-400 -340l176 -351l-43 -18z" />
<glyph unicode="&#xac;" horiz-adv-x="851" d="M115 360l47 101h559l-141 -324h-105l96 223h-456z" />
<glyph unicode="&#xad;" horiz-adv-x="792" d="M117 494q172 2 274.5 3t158.5 -11.5t80 -42.5t38 -87q-41 16 -100.5 15.5t-125 -6t-129 -8.5t-110.5 6.5t-73 39t-13 91.5z" />
<glyph unicode="&#xae;" horiz-adv-x="1316" d="M40 384q11 116 65.5 227.5t150.5 201.5q98 92 215 140t233.5 52.5t225 -34.5t188.5 -125q82 -86 117 -194.5t23.5 -224.5t-65.5 -227.5t-153 -203.5q-98 -92 -213.5 -140.5t-232.5 -52.5t-225.5 37t-190.5 127q-80 84 -114.5 192.5t-23.5 224.5zM87 385.5 q-9 -106.5 22.5 -207t107.5 -176.5q76 -78 176.5 -116t208 -33.5t214 48.5t196.5 128q88 84 139 187t60.5 208.5t-22.5 207t-108 179.5q-74 78 -173 115t-206.5 33.5t-216 -48.5t-198.5 -129t-140.5 -187t-59.5 -209.5zM231 14l283 748l242 43l-299 -791h-226zM561 387 q27 82 64 156.5t77.5 133t86 93.5t90.5 35q78 0 105.5 -35t26.5 -86t-23.5 -111.5t-44 -111.5t-35 -86t2.5 -35q27 0 55.5 29.5t55.5 64.5q29 41 59 94q-31 -78 -73 -137q-37 -51 -90.5 -93t-122.5 -42q-63 0 -83 31.5t-15 80t26.5 104.5t40 104.5t28 80t-11.5 31.5 q-29 0 -55.5 -32.5t-48.5 -73.5q-25 -47 -47 -105q-12 -20 -25.5 -39.5t-24 -34t-15.5 -19.5t-3 3z" />
<glyph unicode="&#xaf;" horiz-adv-x="716" d="M43 1077l47 101h572l-39 -101h-580z" />
<glyph unicode="&#xb0;" horiz-adv-x="550" d="M315 930q0 92 60.5 150.5t152.5 58.5q41 0 79 -15.5t66.5 -43t46 -66.5t17.5 -84q0 -43 -17.5 -81t-46 -67.5t-66.5 -47t-79 -17.5q-47 0 -86 17.5t-66.5 47t-44 67.5t-16.5 81zM360 928q0 -66 46.5 -116t119.5 -50q33 0 62.5 13t52.5 37t36 53.5t13 62.5q0 74 -49 119 t-115 45q-74 0 -120 -45.5t-46 -118.5z" />
<glyph unicode="&#xb1;" horiz-adv-x="851" d="M-41 -78l47 101h537l-39 -101h-545zM115 360l47 101h536l-39 -101h-544zM242 143l233 541h109l-238 -541h-104z" />
<glyph unicode="&#xb2;" horiz-adv-x="876" d="M86 433l51 29q30 17 75.5 24.5t97 13t106 9.5t101.5 13.5t84.5 27t55.5 48.5q-22 -96 -61 -143.5t-87.5 -62.5t-104 -6.5t-111.5 22t-109.5 24.5t-97.5 1zM137 462q74 31 151.5 92.5t147 135.5t124.5 150.5t87 140.5t35 104t-35 40q-29 0 -54.5 -23t-46 -58.5 t-36.5 -77.5t-25 -80.5t-12 -68t0 -36.5q-63 -3 -99 24.5t-45.5 69t7.5 91t57.5 91t104.5 69t149 24.5q95 -2 138 -44t39 -106.5t-51 -143t-132.5 -155.5t-206.5 -144t-273 -109z" />
<glyph unicode="&#xb3;" horiz-adv-x="917" d="M163 622.5q3 41.5 23 76.5t55.5 56t86 24t115.5 -23q-43 -25 -67.5 -60t-35.5 -72.5t-8.5 -75t15 -67.5t32.5 -48t46 -18q22 0 40.5 19.5t33 52t23.5 74t11 85.5t-4.5 86t-23.5 77l181 -8q26 -72 24 -145.5t-33.5 -133t-92.5 -97.5t-154 -38q-73 0 -125 21.5t-84.5 55 t-46.5 75.5t-11 83.5zM362 998.5q12 41.5 49 76.5t98 57t145 19q77 -2 130.5 -30.5t78 -70t18.5 -89t-46 -87.5t-117.5 -66.5t-197.5 -26.5l-15 28q44 0 81.5 23t66 58.5t45 77t18.5 77.5t-13 59t-49 23t-60 -19t-44 -47t-29.5 -62.5t-15.5 -65.5t-1 -55.5t11 -32.5 q-63 -3 -101 20t-51 57.5t-1 76z" />
<glyph unicode="&#xb4;" horiz-adv-x="813" d="M57 1083q35 -8 86.5 15.5t111.5 57.5t125.5 67.5t130 46t123 -7t105.5 -88.5q-88 -49 -184 -92.5t-187.5 -63t-172.5 -8t-138 72.5z" />
<glyph unicode="&#xb6;" horiz-adv-x="702" d="M23 -219l282 911q-59 12 -97 60.5t-38 109.5q0 72 50 122t122 50h424l-387 -1253h-103l359 1153h-154l-356 -1153h-102z" />
<glyph unicode="&#xb7;" horiz-adv-x="446" d="M-6 313q51 102 86 158.5t79 83.5t110.5 32t181.5 5q-43 -76 -76 -126t-60.5 -81t-56.5 -46t-65.5 -20.5t-83.5 -5.5h-115z" />
<glyph unicode="&#xb8;" horiz-adv-x="313" d="M27 -330q23 0 66.5 11.5t74.5 37t29 67.5t-74 105l2 3q16 23 30.5 50t26.5 50q14 27 27 55l37 -12l-72 -143q113 -74 156 -136.5t21.5 -102.5t-104.5 -49t-220 27v37z" />
<glyph unicode="&#xb9;" horiz-adv-x="514" d="M189 495l46 89l-19 73l44 10v84l48 9l-41 6l47 -4l25 3l10 10l-9 22l-63 20l64 -17l18 14l-5 22l-58 31l61 -26l21 10l-2 23l-54 39l56 -38l22 9l3 22l-49 47l50 -43l25 4l4 21l-39 53l42 -49h23l9 21l-32 57l36 -54l22 -4l13 20l-24 63l27 -62l22 -7l15 18l-14 65 l17 -64l20 -10l19 16l-4 65l8 -65l18 -13l19 13l8 65l-3 -65l17 -16l21 10l16 64l-12 -65l14 -18l22 7l27 62l-23 -63l12 -20l24 4l34 54l-32 -57l8 -21h24l44 49l-41 -53l6 -21l23 -4l50 43l-47 -47l1 -22l23 -9l55 38l-53 -39l-2 -12l132 25v-84l69 14l-48 -90l24 -74 l-127 -23l51 -17l-56 15l-15 -4l-14 -7l7 -23l59 -31l-62 28l-20 -10v-24l55 -40l-55 38l-23 -9l-1 -22l47 -47l-50 45l-23 -5l-6 -21l41 -53l-44 50h-24l-8 -22l32 -57l-34 55l-24 4l-12 -19l23 -64l-27 62l-22 5l-14 -18l12 -65l-16 63l-21 13l-17 -16l3 -67l-8 67l-19 12 l-18 -12l-8 -67l4 67l-19 16l-20 -13l-17 -63l14 65l-15 18l-22 -5l-27 -62l24 64l-13 19l-22 -4l-36 -55l32 57l-9 22h-23l-42 -50l39 53l-4 21l-25 5l-50 -45l49 47l-1 11l-78 -16zM233 248h14l7 -35l7 35h14l6 -35l9 35h13l-14 -48h-13l-8 35l-8 -35h-13zM260 592l58 -17 l36 19l5 15zM294 628q2 -4 5 1.5t5 7.5q7 15 18 29.5t21 29.5q5 7 7 12.5t-2 8.5q-2 4 -7 5.5t-9 -5.5q-7 -14 -15 -28.5t-14 -29.5q-2 -5 -7.5 -15t-1.5 -16zM300 686q0 -1 3.5 -0.5t7 2t5.5 5t1 5.5q-2 10 10.5 21t24 15t17.5 -2.5t-8 -33.5q-3 -4 -7.5 -9.5t-8.5 -9.5 q-3 -4 -9 -6.5t-6 -5.5q-2 -3 0 -3t5.5 1.5t7.5 2.5t5 1q12 7 22 20q9 11 17 25t3 23q-4 10 -17 9.5t-24 -4.5q-24 -11 -43 -34q-2 -5 -5 -11.5t-1 -10.5zM305 248h13l9 -35l6 35h14l7 -35l7 35h15l-15 -48h-12l-9 35l-8 -35h-14zM307 343q0 12 7.5 23.5t25.5 11.5h2 q7 0 16.5 -7t9.5 -15h-14q0 4 -4 7.5t-10 3.5q-3 0 -8 -2t-7.5 -8t-2.5 -15q0 -11 4.5 -16t10.5 -6h3q8 0 12.5 5t4.5 9h-17v12h28v-37h-9l-1 9q-6 -8 -12.5 -9.5t-9.5 -1.5q-6 0 -11.5 3t-9.5 8q-8 8 -8 25zM320 574l56 -17l2 24l-21 10zM351 795l10 -23l-2 -3l11 3l-9 20 l21 15l-6 22l21 9l-2 24l22 8l2 23l23 4l6 22h24l8 23l24 -3l12 20l23 -7l14 19l23 -11l16 16l19 -13l20 13l19 -16l19 11l15 -19l24 7l10 -20l25 3l8 -23h24l5 -22l25 -4v-23l23 -8v-2h8v8l-24 6l-1 25l-24 4l-5 24h-26l-9 23l-23 -3l-14 21l-22 -8l-16 20l-22 -12l-18 17 l-21 -14l-20 14l-18 -17l-23 12l-14 -20l-24 8l-11 -21l-25 3l-8 -23h-26l-5 -24l-24 -4l-2 -25l-24 -6l1 -24l-21 -10l6 -26zM367 599l21 -11l-1 -25l24 -7l2 -25l24 -4l5 -24h26l8 -22l25 4l11 -22l24 8l14 -19l23 11l18 -18l20 14l21 -14l18 18l22 -11l16 19l22 -8l14 22 l23 -4l9 22h26l5 24l24 4l1 25l24 7l-2 25l22 11l-5 22l20 15l-9 23l18 15l-12 23l11 13l-11 -2l-9 -10l12 -21l-18 -17l9 -22l-20 -14l6 -22l-22 -11l2 -23l-23 -7v-24l-25 -2l-5 -23h-24l-8 -23l-25 4l-10 -20l-24 7l-15 -18l-19 10l-19 -18l-20 14l-19 -14l-16 18 l-23 -10l-14 18l-23 -7l-12 20l-24 -4l-8 23h-24l-6 23l-23 2l-2 24l-22 7l2 23l-21 11l2 14l-8 -2zM369.5 663q-1.5 -10 3.5 -16t18 -2q10 4 20 12.5t18 18.5v1q4 4 8.5 15.5t8.5 15.5q2 -4 0.5 -10t-5 -13t-6.5 -13.5t-1 -12.5q5 -9 13 -2.5t16 16.5q2 -11 10 -11 q7 0 15 3.5t16 8.5l7 10q0 -8 4.5 -11.5t15.5 0.5q5 2 11 6.5t11 9.5q10 0 17 7q-4 -8 -4 -12.5t2 -3.5q5 0 11.5 10.5t11.5 15.5q5 8 12 16t15 17q-5 -11 -9.5 -20.5t-9.5 -20.5q-3 -11 5.5 -10.5t16.5 8.5l11 10q0 -6 6 -9q7 -3 14.5 2.5t11.5 13.5q-1 -9 2 -11.5t7 -1 t10 6t10 8.5q0 -9 6.5 -9.5t15.5 9.5q5 6 9 11.5t8 10.5q0 5 -0.5 7.5t-5.5 -1.5q-4 -5 -6.5 -10.5t-7.5 -10.5q-4 -6 -8.5 -6.5t0.5 7.5q4 11 11.5 22t14.5 21l33 51q3 3 1 7.5t-5.5 7.5t-7 3.5t-4.5 -4.5q-15 -23 -28.5 -48t-23.5 -51l-2 -2v-2q-3 -5 -7.5 -10.5 t-11.5 -9.5q-1 0 -0.5 3t3 6.5t5.5 6.5l2 4q3 3 6.5 9.5t0.5 9.5q-2 7 -6.5 4t-6.5 -4q-5 -9 -9 -18.5t-12 -18.5q-4 -6 -6.5 -5.5t-3 3.5t0.5 7t3 8q11 19 27 29q2 1 7 2.5t9.5 2.5t7.5 3.5t1 4.5q-4 5 -16 2t-18 -5q-9 -7 -17.5 -15.5t-13.5 -18.5q0 -2 -3 -5l-14 -20 q-5 -4 -8 -5t-3 1t2 6l4 8q3 2 7 7.5t7.5 10.5t6 10.5t1.5 7.5q-5 11 -16.5 1t-23.5 -24l8 11q3 5 1.5 7.5t-5 2.5t-7 -0.5t-4.5 -1.5q-2 -2 -6 -12t-9 -20q-4 -4 -6.5 -8t-7.5 -7q6 9 9.5 18.5t2.5 16.5t-6 10t-15 -1q-9 -5 -19 -16.5t-16 -23.5q-5 -4 -9 -11.5t-7 -10.5 q6 10 7.5 18t1.5 16q-1 6 -0.5 13.5t-3.5 11.5q-4 5 -9.5 -3t-8.5 -13q-8 -13 -16 -28t-20 -26q-5 -3 -6 -3t-0.5 2t1.5 5.5t2 5.5q2 1 4.5 4t4.5 7t5 8q2 6 -1 8.5t-6.5 4.5t-6 4t0.5 8q5 7 1 7t-8 -7q-1 -4 -3 -7.5t-4 -7.5l-10 -22h-1q-1 -1 -1 -2q-2 -2 -5.5 -7t-5.5 -8 q-2 -1 -6.5 -5.5t-9 -7.5t-9 -4t-6.5 2q-1 4 0.5 8t3.5 7q5 0 10.5 2t6.5 3q1 2 1 0q4 3 9 7.5t9 10t5.5 11.5t0.5 10q-5 7 -17 2.5t-19 -12.5q-9 -7 -15.5 -18.5t-8 -21.5zM377 248h14l7 -35l7 35h14l7 -35l7 35h15l-16 -48h-12l-7 35l-9 -35h-13zM377 336q0 10 5 17t18 7 t18 -8.5t5 -17.5v-4h-34q0 -3 3 -7t9 -4q4 0 6.5 2t2.5 3h13q-2 -7 -8.5 -11.5t-13.5 -4.5q-24 0 -24 28zM391 340h20q-3 10 -11 10t-9 -10zM391 677q1 3 4.5 8.5t8 11t8.5 9.5t7 2q5 -4 2 -8.5t-8.5 -9t-12 -8.5t-9.5 -5zM427 350v9h6v14h15v-14h7v-9h-7v-27v-3.5t4 -0.5 l3 1v-11h-7q-9 0 -12 2t-3 9v30h-6zM437 785l312 59q-26 27 -61 43t-77 16q-30 0 -56.5 -8.5t-50 -24.5t-40.5 -37.5t-27 -47.5zM446 628q23 -45 67.5 -73t97.5 -28q37 0 69.5 13t57 35.5t40.5 53.5t21 67zM448 200v13h12v-13h-12zM473 200v48h12v-7q4 9 14 9q9 0 14 -8 q3 8 13 8q6 0 10 -4q2 -1 4.5 -4t2.5 -8v-34h-12v28q0 10 -8 10t-9 -10v-28h-13v34q0 1 -1.5 2.5t-5.5 1.5q-9 0 -9 -9v-29h-12zM474 672q0 3 1.5 6t3.5 3q4 0 5 3t1 6t-2 5.5t-4 2.5q2 4 5.5 8t7.5 9q3 -5 2 -17t-9 -21q-6 -8 -8.5 -8t-2.5 3zM483 350v9h7v4q0 13 14 13h7 v-9h-3l-4 -1v-7h7v-9h-7v-41h-14v41h-7zM519 326v33h12v-31q0 -8 9 -8h6q4 3 5 10v29h12v-50h-12v8q-4 -5 -8.5 -7t-6.5 -2q-17 0 -17 18zM519 686q0 2 1 4t2 6q1 1 2.5 3.5t1.5 3.5q1 4 3 7t3 7q-1 -9 0 -16.5t8 -10.5q-5 -4 -13 -9t-8 5zM539 713q1 12 11 19q7 4 7.5 0.5 t-1.5 -10.5t-5.5 -14t-4.5 -10q-8 3 -7 15zM551 212q0 14 15 16l11 1q4 1 4 5q0 5 -7 5q-8 0 -8 -6h-13q0 6 2.5 9.5t7.5 5.5t11 2q12 0 16 -4.5t4 -9.5v-27q0 -5 1 -6q0 -2 2 -2v-1h-13l-1 1v0q-1 0 -1 4l-9 -5q0 -1 -6 -1q-16 0 -16 13zM564 213q0 -5 7 -5h2l2 1l4 2 q2 1 2 6v6q-1 -2 -4 -2l-6 -1l-5 -3q-2 -1 -2 -4zM575 309v67h13v-67h-13zM584 705q2 6 6 11l8 10zM598 309v67h12v-67h-12zM601 248h13l9 -35l6 35h14l7 -35l8 35h13l-14 -48h-13l-8 35l-8 -35h-14zM644 350v9h6v4q0 13 15 13h6v-9h-3q-3 0 -3 -0.5t-2 -2.5v-5h10v-9h-10 v-41h-13v41h-6zM677 200v48h14v-7q4 9 14 9q5 0 9 -3q5 -2 7 -6.5t2 -6.5v-34h-14v28q0 7 -1.5 8.5t-6.5 1.5t-7.5 -3.5t-2.5 -7.5v-27h-14zM677 334q0 11 6 18.5t19 7.5q8 0 11.5 -1.5t6.5 -4.5q4 -6 5 -10t1 -10q0 -11 -6 -18.5t-18 -7.5q-11 0 -18 6.5t-7 19.5zM690 334 q0 -5 1.5 -9.5t10.5 -4.5q7 0 9 4q2 2 2 10q0 15 -11 15q-6 0 -9 -4.5t-3 -10.5zM732 212.5q0 3.5 12 3.5q0 -7 11 -7q8 0 8 4q0 3 -4 4l-12 2q-6 2 -10 5t-4 10q0 2 4 9t16 7q16 0 20 -9l2 -7h-14q0 2 -0.5 3.5t-6.5 1.5q-8 0 -8 -4q0 -2 4 -4l11 -3q7 -1 11 -4q4 -2 4 -8 q0 -17 -21 -17h-5q-7 0 -11 2t-5.5 5t-1.5 6.5zM736 309v50h12v-6q6 7 15 7q6 0 9 -2l6 -4q3 -6 3 -10v-35h-13v31q0 2 -1 5.5t-7 3.5t-8 -2t-2 -9v-29h-14zM776 744.5q-4 -14.5 2 -24.5q2 -6 7 -4.5t10.5 6.5t10 11t6.5 10q-1 -7 -1 -15.5t11 -2.5q5 2 10.5 7.5t9.5 12.5 q2 -9 9 -10q7 0 15 4.5t16 8.5l12 12q0 -8 5.5 -12t15.5 -1q22 8 36 30q0 1 1.5 4t2 5.5t0 3.5t-4.5 -2q-4 -2 -6.5 -7l-4.5 -9q-3 -3 -8 -6.5t-9.5 -7t-9 -4.5t-6.5 3q-1 3 0.5 6.5t2.5 8.5q5 0 13 2.5t6 2.5q5 2 10 7t9 10.5t5.5 10.5t-1.5 9q-5 7 -16.5 2.5t-18.5 -11.5 q-7 -6 -11.5 -14t-9.5 -16q-2 -5 -6.5 -12t-8.5 -9q13 17 9 34q-1 5 0 12.5t-2 11.5q-3 3 -5.5 2t-5.5 -4t-5 -7l-3 -6l-20 -31q-7 -7 -11 -16t-13 -16q-4 -3 -3 0.5t3 8.5t5 10l3 5l24 45q3 6 9 15.5t5 16.5q-2 1 -8 4.5t-9 -3.5q-6 -12 -12.5 -24.5t-11.5 -25.5t-13 -28 t-19 -27q-6 -7 -7 -4t0 9t3.5 13.5t3.5 8.5q6 15 13 29t16 27q4 5 3.5 9.5t-3 7.5t-6.5 2.5t-8 -7.5q-7 -13 -14.5 -27.5t-12.5 -27.5q-5 -12 -9 -26.5zM787 200v13h13v-13h-13zM787 350v9h8v14h12v-14h8v-9h-8v-27q0 -3 1.5 -3.5t3.5 -0.5l3 1v-11h-8q-12 0 -12 5v36h-8z M809 223q0 11 5 19t17 8q10 0 16 -5.5t6 -14.5h-12q0 2 -2 5t-7 3q-6 0 -7.5 -4.5t-1.5 -8.5q0 -11 1 -13.5t8 -2.5q8 0 9 8h12q0 -2 -3.5 -10t-18.5 -8q-11 0 -16.5 5t-5.5 19zM845 323q0 9 4.5 11.5t9.5 4.5l12 1q5 0 5 4q0 6 -7 6q-3 0 -6 -1t-4 -7h-12l4 12t11 6h7 q8 0 13 -2t5.5 -4.5t0.5 -5.5v-34q0 -2 4 -2v-3h-15v1v2q0 1 -0.5 2t-0.5 2q-1 -3 -4 -5t-4 -2l-4 -1h-4q-2 0 -8.5 3.5t-6.5 11.5zM852.5 746.5q-0.5 1.5 0.5 5t6 4.5q7 1 5 8.5t-5 7.5l11 17q4 -7 2.5 -18.5t-9.5 -19.5q-4 -5 -7 -5.5t-3.5 1zM859 323q0 -5 6 -5h4 q3 1 5 4.5t2 4.5v7q-2 -2 -6 -2l-5 -2q-2 0 -4 -2t-2 -5zM859 223q0 18 9.5 22.5t17.5 4.5q4 0 8 -2t11 -4q1 -3 3 -8t2 -13q0 -11 -6 -17.5t-18 -6.5q-16 0 -21.5 8.5t-5.5 15.5zM873 223q0 -6 2.5 -10t10.5 -4q6 0 8 5q2 2 2 4.5v4.5q0 8 -2 11.5t-8 3.5q-9 0 -11 -4.5 t-2 -10.5zM876 655l1 -4l25 19l-10 1zM880 696l12 -22l13 -1l54 42l-64 -1zM895 350v9h6v14h13v-14h9v-9h-9v-27q0 -4 6 -4l3 1v-11h-9q-8 0 -10.5 3.5t-2.5 7.5v30h-6zM912 717l47 -2l19 15zM915 778q1 3 4.5 8.5t7.5 11.5t8.5 9t6.5 1q3 -1 1.5 -5t-4.5 -8t-7 -7.5 t-6 -4.5l-1 -1zM920 200v48h12v-7q4 9 14 9q5 0 8 -2.5t5 -5.5q1 2 5 5t10 3q4 0 8 -2.5t5 -6.5q3 -3 3 -7v-34h-13v28q0 10 -8 10t-8 -10v-28h-12v28q0 4 -1.5 7t-6.5 3q-9 0 -9 -9v-29h-12z" />
<glyph unicode="&#xba;" horiz-adv-x="878" d="M238.5 697.5q-6.5 61.5 21 134t84.5 134t139.5 102.5t189.5 41q84 0 123.5 -41t40.5 -102.5t-30 -134t-87.5 -134t-135 -102.5t-170.5 -41q-83 0 -126 41t-49.5 102.5zM402 616.5q-1 -37.5 20 -37.5q24 0 57.5 37.5t67.5 93.5t65 121.5t49.5 121.5t21.5 93.5t-18 37.5 q-33 0 -69 -37.5t-70 -93.5t-62.5 -121.5t-44.5 -121.5t-17 -93.5z" />
<glyph unicode="&#xbb;" horiz-adv-x="1069" d="M78 111l399 340l-176 350l43 18l342 -401l-18 -72l-570 -303zM446 111l400 340l-176 350l43 18l342 -401l-19 -72l-569 -303z" />
<glyph unicode="&#xbc;" horiz-adv-x="2074" d="M263 455l100 194l-41 160l94 21v184l105 20l-90 13l104 -10l53 8l23 22l-21 47l-137 43l139 -36l39 30l-10 47l-127 68l133 -57l45 22l-4 51l-117 84l121 -82l49 19l6 49l-106 102l109 -94l53 8l10 47l-86 115l92 -106h51l19 45l-70 125l78 -119l49 -8l27 43l-51 137 l57 -135l49 -15l33 39l-31 142l37 -138l43 -22l41 35l-8 141l18 -141l39 -29l41 29l16 141l-6 -141l37 -35l47 22l33 138l-25 -142l29 -39l49 15l58 135l-50 -137l27 -43l51 8l74 119l-68 -125l17 -45h51l96 106l-88 -115l12 -47l50 -8l108 94l-102 -102l2 -49l51 -19 l119 82l-115 -84l-4 -26l287 55v-184l149 30l-104 -196l53 -160l-276 -51l110 -37l-121 33l-34 -8l-29 -17l14 -49l129 -68l-135 60l-43 -21v-51l119 -88l-119 82l-51 -18l-2 -48l102 -104l-108 98l-50 -10l-12 -47l88 -115l-96 109h-51l-17 -47l68 -125l-74 121l-51 8 l-27 -41l50 -141l-58 135l-49 12l-29 -39l25 -141l-33 137l-47 27l-37 -35l6 -146l-16 146l-41 28l-39 -28l-18 -146l8 146l-41 35l-43 -27l-37 -137l31 141l-33 39l-49 -12l-57 -135l51 141l-27 41l-49 -8l-78 -121l70 125l-19 47h-51l-92 -109l86 115l-10 47l-53 10 l-109 -98l106 104l-2 23l-170 -35zM357 -82h31l16 -77l14 77h31l14 -77l19 77h28l-30 -106h-29l-18 78l-17 -78h-28zM416 668l127 -37l78 41l10 33zM430 0l760 1378h100l-758 -1378h-102zM490 746q4 -10 11 2t11 18q16 33 40 64.5t46 62.5q10 16 14.5 27.5t-5.5 19.5 q-4 8 -14.5 11.5t-18.5 -11.5q-16 -31 -34 -62.5t-30 -64.5q-4 -10 -16 -32.5t-4 -34.5zM504 873q0 -4 7.5 -3t14.5 5t12 11t3 13q-4 20 22.5 44t52 33t38 -5t-18.5 -72q-6 -10 -15 -22t-19 -21q-6 -8 -19.5 -13t-13.5 -13q-4 -6 1 -6t12 3t15.5 6t10.5 3q27 14 49 43 q20 23 37.5 53.5t5.5 50.5q-8 23 -37 21t-51 -10q-53 -23 -94 -74q-4 -10 -10.5 -24.5t-2.5 -22.5zM514 -82h29l19 -77l14 77h29l16 -77l16 77h31l-33 -106h-26l-19 78l-18 -78h-29zM519 125q0 25 16 50.5t55 25.5h4q16 0 37 -15.5t21 -33.5h-31q0 10 -9 17t-22 7 q-6 0 -17 -4t-16.5 -17t-5.5 -32q0 -25 9.5 -36t23.5 -13h6q18 0 27.5 11.5t9.5 19.5h-37v26h62v-80h-21l-2 19q-12 -18 -26.5 -20.5t-20.5 -2.5q-14 0 -25.5 6.5t-19.5 16.5q-18 18 -18 55zM547 629l121 -37l4 51l-45 21zM615 1110l20 -51l-4 -6l25 6l-21 45l47 31l-14 49 l47 20l-6 52l49 16l4 51l51 8l13 48h51l18 51l52 -6l26 43l49 -15l31 41l51 -24l33 34l43 -28l43 28l41 -34l41 24l33 -41l51 15l23 -43l55 6l16 -51h53l11 -48l53 -8v-51l51 -16v-4h17v16l-52 14l-2 54l-53 10l-10 51h-56l-20 51l-51 -8l-29 47l-49 -18l-35 43l-47 -25 l-39 37l-45 -31l-45 31l-39 -37l-49 25l-31 -43l-51 18l-25 -47l-55 8l-16 -51h-56l-12 -51l-51 -10l-6 -54l-51 -14l2 -51l-45 -23l12 -55zM650 682l45 -24l-2 -54l51 -16l6 -53l51 -10l12 -52h56l16 -47l55 8l25 -49l51 19l31 -41l49 22l39 -39l45 31l45 -31l39 39l47 -22 l35 41l49 -19l29 49l51 -8l20 47h56l10 52l53 10l2 53l52 16l-5 54l48 24l-11 49l45 31l-20 51l39 33l-27 49l25 29l-25 -4l-20 -21l28 -47l-41 -37l21 -47l-43 -30l12 -50l-47 -22l4 -51l-51 -15v-53l-53 -4l-11 -51h-53l-16 -49l-55 8l-23 -43l-51 16l-33 -41l-41 23 l-41 -39l-43 31l-43 -31l-33 39l-51 -23l-31 41l-49 -16l-26 43l-52 -8l-18 49h-51l-13 51l-51 4l-4 53l-49 15l6 51l-47 22l6 31l-18 -4zM655 822.5q-3 -21.5 7 -35t39 -4.5q23 8 44 26.5t38 40.5v2q10 10 19.5 35t17.5 33q6 -8 2 -21.5t-11.5 -29t-13.5 -29.5t-2 -27 q10 -20 27.5 -6t34.5 37q4 -25 22 -25q16 0 33.5 8.5t34.5 18.5l16 21q0 -16 9 -24.5t34 1.5q10 4 23.5 13.5t23.5 21.5q23 0 37 14q-8 -16 -8 -26.5t4 -8.5q10 2 24.5 24.5t24.5 33.5q12 18 27.5 35.5t31.5 35.5q-10 -23 -20 -44t-21 -44q-6 -25 12.5 -23.5t35.5 17.5 l24 23q0 -14 12 -21q16 -6 32 6.5t26 28.5q-2 -18 4 -23.5t15 -2t21.5 12.5t22.5 19q0 -20 13.5 -21t33.5 21q12 12 20.5 24.5t16.5 22.5q0 10 -1 16.5t-11 -3.5t-15.5 -22.5t-15.5 -22.5q-10 -14 -19 -14.5t1 16.5q10 23 25.5 47t31.5 47l72 110q6 8 2 17.5t-11.5 15.5 t-15.5 7t-10 -9q-33 -51 -62.5 -105.5t-50.5 -109.5q-4 -4 -4 -6v-4q-8 -10 -17 -22.5t-24 -20.5q-4 0 -2 6t7.5 14t10.5 15l5 8q6 8 14 21.5t2 19.5q-6 16 -15 10t-14 -10q-12 -18 -20 -39t-25 -41q-10 -12 -15 -11t-6 7t1 15t6 18q25 41 59 63q4 2 14.5 5l21 6t16.5 7.5 t2 10.5q-8 10 -34 4t-40 -12q-20 -14 -38.5 -33t-29.5 -41q0 -4 -6 -10l-30 -43q-12 -10 -17.5 -12.5t-5.5 2.5t4 13.5t8 16.5q6 6 14.5 17.5t16.5 22.5t13 22.5t3 17.5q-10 23 -35.5 1t-50.5 -52l17 24q6 12 3 17.5t-10.5 5.5t-15.5 -2t-10 -4q-4 -4 -13 -25.5t-18 -44.5 q-10 -8 -15 -16.5t-17 -14.5q14 18 21 39t5 36t-13 21.5t-32 -1.5q-20 -10 -41.5 -36t-34.5 -50q-10 -10 -19 -26.5t-15 -21.5q12 20 16 38t4 34q-4 14 -3 30.5t-7 24.5q-8 12 -20.5 -6t-18.5 -28q-18 -29 -35.5 -62t-42.5 -55q-10 -8 -13 -8t-2 5t4 12t5 11q4 4 9 10.5 t9 14.5q6 8 11 18q6 12 -0.5 17.5t-14.5 9.5t-13 9t1 18q10 16 1 15t-17 -15q-2 -10 -6.5 -17.5t-8.5 -15.5l-22 -47q-2 0 -2 -2q-2 -2 -2 -4q-4 -4 -11.5 -14.5t-11.5 -16.5q-6 -4 -15.5 -13.5t-19.5 -15.5t-19 -9t-14 5q-2 8 1.5 16.5t7.5 16.5q10 0 22 4t15 6q2 4 2 0 q8 6 19 16.5t19.5 22.5t12.5 24.5t0 20.5q-10 16 -36 6t-42 -26q-20 -16 -33.5 -41t-16.5 -46.5zM670 -82h31l16 -77l15 77h30l15 -77l16 77h31l-33 -106h-27l-16 78l-18 -78h-29zM670 109q0 23 11.5 38t39.5 15q29 0 39 -18.5t10 -38.5v-8h-73q0 -8 6 -16.5t20 -8.5 q8 0 13.5 5t5.5 7h28q-4 -16 -18 -25.5t-29 -9.5q-53 0 -53 60zM701 117h43q-6 23 -23 23q-18 0 -20 -23zM701 852q2 6 10 18.5t17.5 25t18.5 20.5t15 4q10 -8 4 -18.5t-18 -20.5t-26.5 -18.5t-20.5 -10.5zM779 140v20h14v29h31v-29h16v-20h-16v-58q0 -8 1 -9t9 -1l6 2v-23 h-16q-18 0 -24.5 4.5t-6.5 18.5v66h-14zM801 1088l678 129q-57 59 -133 94t-166 35q-66 0 -124 -19.5t-108.5 -53.5t-88 -81t-58.5 -104zM820 746q51 -98 147 -159.5t213 -61.5q80 0 150.5 28.5t124 77.5t88 116.5t45.5 145.5zM824 -159h28v-29h-28v29zM879 -82h27v-16 q8 20 30 20q20 0 31 -18q6 18 27 18q14 0 22 -8q4 -4 9.5 -10t5.5 -18v-74h-25v63q0 20 -18 21q-18 0 -19 -21v-63h-29v74q0 4 -3 7t-13 3q-18 0 -18 -19v-65h-27v106zM881 842q0 6 3 13t9 7q8 0 10.5 6.5t2.5 12.5t-4.5 12t-8.5 6q4 8 11.5 16.5t15.5 20.5q8 -12 5 -38 t-19 -46q-14 -16 -19.5 -16t-5.5 6zM902 140v20h14v8q0 29 31 29h16v-21h-8l-8 -2v-14h16v-20h-16v-89h-31v89h-14zM950 414q-14 47 8.5 124.5t79.5 194.5q33 66 68 134.5t65 123.5q35 66 70 127l324 43q-31 -57 -68 -125q-31 -59 -72 -138t-88 -171q-94 -184 -126 -260 t5 -76q39 0 95.5 24.5t117 66.5t114.5 95.5t87 112.5q25 45 47.5 70.5t38.5 42.5q20 16 37 24q-86 -141 -184 -252q-41 -47 -89.5 -92t-99.5 -79.5t-105.5 -56t-109.5 -21.5q-96 0 -148.5 20.5t-66.5 67.5zM979 88v72h27v-68q0 -18 20 -18h11q10 8 12 23v63h27v-109h-27v17 q-8 -10 -18.5 -14.5t-14.5 -4.5q-37 0 -37 39zM979 873q0 4 2 8t5 12q2 4 5 9.5t3 7.5q2 8 7 14t7 16q-2 -20 0 -36.5t18 -22.5q-12 -10 -29.5 -20.5t-17.5 12.5zM1023.5 931q2.5 26 23.5 42q14 8 15 0t-3 -22.5t-11 -30t-11 -21.5q-16 6 -13.5 32zM1049 -162q0 31 33 35 l24 4q8 2 9 9q0 12 -17 12q-16 0 -16 -14h-29q0 14 6 22t17 12q10 4 22 4q27 0 36 -10t9 -20v-60q0 -10 2 -12q0 -4 4 -4v-4h-28l-2 2v2q-2 0 -2 8l-21 -12q0 -2 -12 -2q-35 0 -35 28zM1078 -159q0 -10 14 -11h4l6 2l8 4q4 4 5 13v14q-4 -4 -9 -4l-14 -2l-10 -6 q-4 -4 -4 -10zM1102 51v146h27v-146h-27zM1121 914q4 12 13 23t17 22zM1151 51v146h27v-146h-27zM1157 0l553 1126l323 43l-575 -1169h-301zM1158 -82h28l19 -77l14 77h29l16 -77l18 77h27l-29 -106h-30l-17 78l-16 -78h-31zM1250 140v20h14v8q0 29 33 29h12v-21h-6 q-6 0 -6 -1t-4 -5v-10h20v-20h-20v-89h-29v89h-14zM1323 -82h29v-16q10 20 31 20q12 0 20 -6q10 -4 14.5 -14t4.5 -16v-74h-29v63q0 14 -4 17.5t-14 3.5q-12 0 -16.5 -7.5t-4.5 -17.5v-59h-31v106zM1323 105q0 23 12.5 40t41.5 17q18 0 25.5 -4t13.5 -10q8 -12 11 -20.5 t3 -22.5q0 -23 -13.5 -39.5t-39.5 -16.5q-23 0 -38.5 13.5t-15.5 42.5zM1350 105q0 -10 4 -20.5t23 -10.5q16 0 20 10q4 4 4 21q0 33 -24 32q-14 0 -20.5 -10t-6.5 -22zM1442 -160.5q0 7.5 27 7.5q0 -14 24 -15q16 0 17 9q0 6 -10 8l-25 6q-14 4 -22.5 10t-8.5 21 q0 6 8.5 21t34.5 15q35 0 45 -20l4 -16h-30q0 6 -2 9t-15 3q-16 0 -16 -8q0 -6 8 -9l25 -6q14 -4 24 -10q8 -4 8 -18q0 -37 -47 -37h-10q-16 0 -24.5 5t-11.5 11t-3 13.5zM1450 51v109h27v-14q12 16 33 16q12 0 20 -4l13 -10q6 -12 6 -21v-76h-29v66q0 6 -2 13t-16 7 q-12 0 -16.5 -4t-4.5 -20v-62h-31zM1538.5 999.5q-8.5 -32.5 2.5 -53.5q6 -12 17 -9t22.5 13.5t21.5 23.5t14 22q-2 -14 -2 -33t23 -6q12 4 23.5 16t21.5 27q4 -20 18 -21q16 0 33.5 9.5t34.5 19.5l26 26q0 -18 11.5 -27t34.5 -3q47 18 77 67q0 2 3.5 8.5t4.5 11.5t0 7 t-10 -4q-8 -4 -13 -14.5t-11 -20.5q-6 -6 -16.5 -14t-20.5 -15.5t-19.5 -9.5t-13.5 6q-2 8 1 15.5t5 17.5q10 0 27.5 6t13.5 6q10 4 21.5 14.5t19.5 23t11.5 23.5t-3.5 19q-10 16 -34.5 6t-40.5 -26q-16 -12 -25.5 -29.5t-19.5 -36.5q-6 -10 -15.5 -25.5t-17.5 -19.5 q27 37 20 74q-2 12 0 28.5t-6 24.5q-6 6 -11 4t-11.5 -9t-11.5 -15.5t-7 -12.5l-43 -67q-14 -16 -23.5 -36t-29.5 -34q-8 -6 -6 1t7 18.5t11 21.5t6 12l52 97q8 14 21 34.5t9 34.5q-4 4 -16.5 11t-20.5 -9q-12 -25 -26.5 -52.5t-24.5 -55.5q-12 -29 -28.5 -61.5t-40.5 -57.5 q-14 -16 -16.5 -10t0.5 19.5t8 29.5t8 20q12 31 27.5 62t35.5 59q8 10 7 20.5t-7 16.5t-14 5t-17 -15q-16 -29 -31.5 -60.5t-27.5 -60.5q-10 -25 -18.5 -57.5zM1561 140v20h18v29h25v-29h18v-20h-18v-58q0 -8 4 -9t8 -1l6 2v-23h-18q-25 0 -25 11v78h-18zM1561 -159h29v-29 h-29v29zM1610 -137q0 23 10.5 41t36.5 18q23 0 36 -12t13 -31h-28q0 4 -3.5 10.5t-15.5 6.5t-16 -9.5t-4 -19.5q0 -23 3 -29t17 -6q18 0 19 19h28q0 -6 -8 -23.5t-41 -17.5q-23 0 -35 11t-12 42zM1688 82q0 18 10 23.5t21 9.5l26 4q10 0 11 8q0 12 -17 13q-6 0 -12 -2.5 t-8 -14.5h-27q4 12 8 25.5t25 13.5h14q18 0 28.5 -5t12.5 -10t2 -12v-73q0 -4 8 -4v-7h-32v2v5q0 2 -1 4t-1 4q-4 -6 -10.5 -10.5t-8.5 -4.5l-8 -2h-8t-19.5 7.5t-13.5 25.5zM1703 1004q-1 4 2 11t12 9q16 2 12 18.5t-12 16.5l24 37q10 -14 7 -39t-21 -43q-10 -12 -16.5 -13 t-7.5 3zM1717 82q0 -12 14 -12h8q8 2 12.5 10t4.5 10v15q-6 -4 -13 -4l-12 -4q-4 0 -9 -4.5t-5 -10.5zM1719 -137q0 39 20.5 49t36.5 10q10 0 18.5 -4t22.5 -10q4 -6 8 -16.5t4 -28.5q0 -23 -13 -38t-40 -15q-35 0 -46 18.5t-11 34.5zM1749 -137q0 -12 5.5 -21.5t21.5 -9.5 q14 1 18 11q4 4 4.5 10t0.5 10q0 18 -4.5 25.5t-18.5 7.5q-18 0 -22.5 -9.5t-4.5 -23.5zM1754 805l4 -10l53 43l-21 2zM1764 893l26 -47l29 -2l117 92l-139 -4zM1797 140v20h12v29h28v-29h21v-20h-21v-58q0 -10 13 -10l8 2v-23h-21q-16 0 -22 7.5t-6 15.5v66h-12zM1833 940 l103 -4l41 31zM1840 1073q2 6 9 18.5t16 25t18.5 19.5t15.5 3t3 -12.5t-10 -17.5t-15.5 -16t-12.5 -9l-2 -2zM1850 -82h26v-16q10 20 31 20q12 0 18.5 -6t10.5 -12q2 4 10 11t21 7q10 0 19 -6t11 -14q6 -6 6 -16v-74h-28v63q0 20 -17 21q-18 0 -18 -21v-63h-27v63 q0 8 -3 14.5t-13 6.5q-20 0 -21 -19v-65h-26v106z" />
<glyph unicode="&#xbd;" horiz-adv-x="1896" d="M271 477l100 194l-41 160l94 21v184l105 20l-90 13l104 -10l53 8l23 22l-21 47l-137 43l139 -36l39 30l-10 47l-127 68l133 -57l45 22l-4 51l-117 84l121 -82l49 19l6 49l-106 102l109 -94l53 8l10 47l-86 115l92 -106h51l19 45l-70 125l78 -119l49 -8l27 43l-51 137 l57 -135l49 -15l33 39l-31 142l37 -138l43 -22l41 35l-8 141l18 -141l39 -29l41 29l16 141l-6 -141l37 -35l47 22l33 138l-25 -142l29 -39l49 15l58 135l-50 -137l27 -43l51 8l74 119l-68 -125l17 -45h51l96 106l-88 -115l12 -47l50 -8l108 94l-102 -102l2 -49l51 -19 l119 82l-115 -84l-4 -26l287 55v-184l149 30l-104 -196l53 -160l-276 -51l110 -37l-121 33l-34 -8l-29 -17l14 -49l129 -68l-135 60l-43 -21v-51l119 -88l-119 82l-51 -18l-2 -48l102 -104l-108 98l-50 -10l-12 -47l88 -115l-96 109h-51l-17 -47l68 -125l-74 121l-51 8 l-27 -41l50 -141l-58 135l-49 12l-29 -39l25 -141l-33 137l-47 27l-37 -35l6 -146l-16 146l-41 28l-39 -28l-18 -146l8 146l-41 35l-43 -27l-37 -137l31 141l-33 39l-49 -12l-57 -135l51 141l-27 41l-49 -8l-78 -121l70 125l-19 47h-51l-92 -109l86 115l-10 47l-53 10 l-109 -98l106 104l-2 23l-170 -35zM365 -60h31l16 -77l14 77h31l14 -77l19 77h28l-30 -106h-29l-18 78l-17 -78h-28zM395 0l760 1378h100l-758 -1378h-102zM424 690l127 -37l78 41l10 33zM498 768q4 -10 11 2t11 18q16 33 40 64.5t46 62.5q10 16 14.5 27.5t-5.5 19.5 q-4 8 -14.5 11.5t-18.5 -11.5q-16 -31 -34 -62.5t-30 -64.5q-4 -10 -16 -32.5t-4 -34.5zM512 895q0 -4 7.5 -3t14.5 5t12 11t3 13q-4 20 22.5 44t52 33t38 -5t-18.5 -72q-6 -10 -15 -22t-19 -21q-6 -8 -19.5 -13t-13.5 -13q-4 -6 1 -6t12 3t15.5 6t10.5 3q27 14 49 43 q20 23 37.5 53.5t5.5 50.5q-8 23 -37 21t-51 -10q-53 -23 -94 -74q-4 -10 -10.5 -24.5t-2.5 -22.5zM522 -60h29l19 -77l14 77h29l16 -77l16 77h31l-33 -106h-26l-19 78l-18 -78h-29zM527 147q0 25 16 50.5t55 25.5h4q16 0 37 -15.5t21 -33.5h-31q0 10 -9 17t-22 7 q-6 0 -17 -4t-16.5 -17t-5.5 -32q0 -25 9.5 -36t23.5 -13h6q18 0 27.5 11.5t9.5 19.5h-37v26h62v-80h-21l-2 19q-12 -18 -26.5 -20.5t-20.5 -2.5q-14 0 -25.5 6.5t-19.5 16.5q-18 18 -18 55zM555 651l121 -37l4 51l-45 21zM623 1132l20 -51l-4 -6l25 6l-21 45l47 31l-14 49 l47 20l-6 52l49 16l4 51l51 8l13 48h51l18 51l52 -6l26 43l49 -15l31 41l51 -24l33 34l43 -28l43 28l41 -34l41 24l33 -41l51 15l23 -43l55 6l16 -51h53l11 -48l53 -8v-51l51 -16v-4h17v16l-52 14l-2 54l-53 10l-10 51h-56l-20 51l-51 -8l-29 47l-49 -18l-35 43l-47 -25 l-39 37l-45 -31l-45 31l-39 -37l-49 25l-31 -43l-51 18l-25 -47l-55 8l-16 -51h-56l-12 -51l-51 -10l-6 -54l-51 -14l2 -51l-45 -23l12 -55zM658 704l45 -24l-2 -54l51 -16l6 -53l51 -10l12 -52h56l16 -47l55 8l25 -49l51 19l31 -41l49 22l39 -39l45 31l45 -31l39 39l47 -22 l35 41l49 -19l29 49l51 -8l20 47h56l10 52l53 10l2 53l52 16l-5 54l48 24l-11 49l45 31l-20 51l39 33l-27 49l25 29l-25 -4l-20 -21l28 -47l-41 -37l21 -47l-43 -30l12 -50l-47 -22l4 -51l-51 -15v-53l-53 -4l-11 -51h-53l-16 -49l-55 8l-23 -43l-51 16l-33 -41l-41 23 l-41 -39l-43 31l-43 -31l-33 39l-51 -23l-31 41l-49 -16l-26 43l-52 -8l-18 49h-51l-13 51l-51 4l-4 53l-49 15l6 51l-47 22l6 31l-18 -4zM663 844.5q-3 -21.5 7 -35t39 -4.5q23 8 44 26.5t38 40.5v2q10 10 19.5 35t17.5 33q6 -8 2 -21.5t-11.5 -29t-13.5 -29.5t-2 -27 q10 -20 27.5 -6t34.5 37q4 -25 22 -25q16 0 33.5 8.5t34.5 18.5l16 21q0 -16 9 -24.5t34 1.5q10 4 23.5 13.5t23.5 21.5q23 0 37 14q-8 -16 -8 -26.5t4 -8.5q10 2 24.5 24.5t24.5 33.5q12 18 27.5 35.5t31.5 35.5q-10 -23 -20 -44t-21 -44q-6 -25 12.5 -23.5t35.5 17.5 l24 23q0 -14 12 -21q16 -6 32 6.5t26 28.5q-2 -18 4 -23.5t15 -2t21.5 12.5t22.5 19q0 -20 13.5 -21t33.5 21q12 12 20.5 24.5t16.5 22.5q0 10 -1 16.5t-11 -3.5t-15.5 -22.5t-15.5 -22.5q-10 -14 -19 -14.5t1 16.5q10 23 25.5 47t31.5 47l72 110q6 8 2 17.5t-11.5 15.5 t-15.5 7t-10 -9q-33 -51 -62.5 -105.5t-50.5 -109.5q-4 -4 -4 -6v-4q-8 -10 -17 -22.5t-24 -20.5q-4 0 -2 6t7.5 14t10.5 15l5 8q6 8 14 21.5t2 19.5q-6 16 -15 10t-14 -10q-12 -18 -20 -39t-25 -41q-10 -12 -15 -11t-6 7t1 15t6 18q25 41 59 63q4 2 14.5 5l21 6t16.5 7.5 t2 10.5q-8 10 -34 4t-40 -12q-20 -14 -38.5 -33t-29.5 -41q0 -4 -6 -10l-30 -43q-12 -10 -17.5 -12.5t-5.5 2.5t4 13.5t8 16.5q6 6 14.5 17.5t16.5 22.5t13 22.5t3 17.5q-10 23 -35.5 1t-50.5 -52l17 24q6 12 3 17.5t-10.5 5.5t-15.5 -2t-10 -4q-4 -4 -13 -25.5t-18 -44.5 q-10 -8 -15 -16.5t-17 -14.5q14 18 21 39t5 36t-13 21.5t-32 -1.5q-20 -10 -41.5 -36t-34.5 -50q-10 -10 -19 -26.5t-15 -21.5q12 20 16 38t4 34q-4 14 -3 30.5t-7 24.5q-8 12 -20.5 -6t-18.5 -28q-18 -29 -35.5 -62t-42.5 -55q-10 -8 -13 -8t-2 5t4 12t5 11q4 4 9 10.5 t9 14.5q6 8 11 18q6 12 -0.5 17.5t-14.5 9.5t-13 9t1 18q10 16 1 15t-17 -15q-2 -10 -6.5 -17.5t-8.5 -15.5l-22 -47q-2 0 -2 -2q-2 -2 -2 -4q-4 -4 -11.5 -14.5t-11.5 -16.5q-6 -4 -15.5 -13.5t-19.5 -15.5t-19 -9t-14 5q-2 8 1.5 16.5t7.5 16.5q10 0 22 4t15 6q2 4 2 0 q8 6 19 16.5t19.5 22.5t12.5 24.5t0 20.5q-10 16 -36 6t-42 -26q-20 -16 -33.5 -41t-16.5 -46.5zM678 53l79 45q47 27 119 39t153 20.5t166 14.5t159.5 21.5t133 43t87.5 76.5q-35 -152 -96.5 -226.5t-137.5 -98t-163 -10.5t-175 34.5t-172 39t-153 1.5zM678 -60h31l16 -77 l15 77h30l15 -77l16 77h31l-33 -106h-27l-16 78l-18 -78h-29zM678 131q0 23 11.5 38t39.5 15q29 0 39 -18.5t10 -38.5v-8h-73q0 -8 6 -16.5t20 -8.5q8 0 13.5 5t5.5 7h28q-4 -16 -18 -25.5t-29 -9.5q-53 0 -53 60zM709 139h43q-6 23 -23 23q-18 0 -20 -23zM709 874 q2 6 10 18.5t17.5 25t18.5 20.5t15 4q10 -8 4 -18.5t-18 -20.5t-26.5 -18.5t-20.5 -10.5zM757 98q117 49 239 145.5t230.5 213t195.5 237.5t137 221t54.5 163.5t-55.5 63.5q-45 0 -85 -36.5t-72.5 -92t-57 -122t-39 -127t-19.5 -106.5t1 -58q-100 -4 -156.5 39t-71 108.5 t12 143t90 143t164 108.5t233.5 39q150 -4 217.5 -69.5t61.5 -167t-80 -225t-208 -244.5t-324.5 -226.5t-428.5 -171.5zM787 162v20h14v29h31v-29h16v-20h-16v-58q0 -8 1 -9t9 -1l6 2v-23h-16q-18 0 -24.5 4.5t-6.5 18.5v66h-14zM809 1110l678 129q-57 59 -133 94t-166 35 q-66 0 -124 -19.5t-108.5 -53.5t-88 -81t-58.5 -104zM828 768q51 -98 147 -159.5t213 -61.5q80 0 150.5 28.5t124 77.5t88 116.5t45.5 145.5zM832 -137h28v-29h-28v29zM887 -60h27v-16q8 20 30 20q20 0 31 -18q6 18 27 18q14 0 22 -8q4 -4 9.5 -10t5.5 -18v-74h-25v63 q0 20 -18 21q-18 0 -19 -21v-63h-29v74q0 4 -3 7t-13 3q-18 0 -18 -19v-65h-27v106zM889 864q0 6 3 13t9 7q8 0 10.5 6.5t2.5 12.5t-4.5 12t-8.5 6q4 8 11.5 16.5t15.5 20.5q8 -12 5 -38t-19 -46q-14 -16 -19.5 -16t-5.5 6zM910 162v20h14v8q0 29 31 29h16v-21h-8l-8 -2v-14 h16v-20h-16v-89h-31v89h-14zM987 110v72h27v-68q0 -18 20 -18h11q10 8 12 23v63h27v-109h-27v17q-8 -10 -18.5 -14.5t-14.5 -4.5q-37 0 -37 39zM987 895q0 4 2 8t5 12q2 4 5 9.5t3 7.5q2 8 7 14t7 16q-2 -20 0 -36.5t18 -22.5q-12 -10 -29.5 -20.5t-17.5 12.5zM1031.5 953 q2.5 26 23.5 42q14 8 15 0t-3 -22.5t-11 -30t-11 -21.5q-16 6 -13.5 32zM1057 -140q0 31 33 35l24 4q8 2 9 9q0 12 -17 12q-16 0 -16 -14h-29q0 14 6 22t17 12q10 4 22 4q27 0 36 -10t9 -20v-60q0 -10 2 -12q0 -4 4 -4v-4h-28l-2 2v2q-2 0 -2 8l-21 -12q0 -2 -12 -2 q-35 0 -35 28zM1086 -137q0 -10 14 -11h4l6 2l8 4q4 4 5 13v14q-4 -4 -9 -4l-14 -2l-10 -6q-4 -4 -4 -10zM1110 73v146h27v-146h-27zM1129 936q4 12 13 23t17 22zM1159 73v146h27v-146h-27zM1166 -60h28l19 -77l14 77h29l16 -77l18 77h27l-29 -106h-30l-17 78l-16 -78h-31z M1258 162v20h14v8q0 29 33 29h12v-21h-6q-6 0 -6 -1t-4 -5v-10h20v-20h-20v-89h-29v89h-14zM1331 -60h29v-16q10 20 31 20q12 0 20 -6q10 -4 14.5 -14t4.5 -16v-74h-29v63q0 14 -4 17.5t-14 3.5q-12 0 -16.5 -7.5t-4.5 -17.5v-59h-31v106zM1331 127q0 23 12.5 40t41.5 17 q18 0 25.5 -4t13.5 -10q8 -12 11 -20.5t3 -22.5q0 -23 -13.5 -39.5t-39.5 -16.5q-23 0 -38.5 13.5t-15.5 42.5zM1358 127q0 -10 4 -20.5t23 -10.5q16 0 20 10q4 4 4 21q0 33 -24 32q-14 0 -20.5 -10t-6.5 -22zM1450 -138.5q0 7.5 27 7.5q0 -14 24 -15q16 0 17 9q0 6 -10 8 l-25 6q-14 4 -22.5 10t-8.5 21q0 6 8.5 21t34.5 15q35 0 45 -20l4 -16h-30q0 6 -2 9t-15 3q-16 0 -16 -8q0 -6 8 -9l25 -6q14 -4 24 -10q8 -4 8 -18q0 -37 -47 -37h-10q-16 0 -24.5 5t-11.5 11t-3 13.5zM1458 73v109h27v-14q12 16 33 16q12 0 20 -4l13 -10q6 -12 6 -21v-76 h-29v66q0 6 -2 13t-16 7q-12 0 -16.5 -4t-4.5 -20v-62h-31zM1546.5 1021.5q-8.5 -32.5 2.5 -53.5q6 -12 17 -9t22.5 13.5t21.5 23.5t14 22q-2 -14 -2 -33t23 -6q12 4 23.5 16t21.5 27q4 -20 18 -21q16 0 33.5 9.5t34.5 19.5l26 26q0 -18 11.5 -27t34.5 -3q47 18 77 67 q0 2 3.5 8.5t4.5 11.5t0 7t-10 -4q-8 -4 -13 -14.5t-11 -20.5q-6 -6 -16.5 -14t-20.5 -15.5t-19.5 -9.5t-13.5 6q-2 8 1 15.5t5 17.5q10 0 27.5 6t13.5 6q10 4 21.5 14.5t19.5 23t11.5 23.5t-3.5 19q-10 16 -34.5 6t-40.5 -26q-16 -12 -25.5 -29.5t-19.5 -36.5 q-6 -10 -15.5 -25.5t-17.5 -19.5q27 37 20 74q-2 12 0 28.5t-6 24.5q-6 6 -11 4t-11.5 -9t-11.5 -15.5t-7 -12.5l-43 -67q-14 -16 -23.5 -36t-29.5 -34q-8 -6 -6 1t7 18.5t11 21.5t6 12l52 97q8 14 21 34.5t9 34.5q-4 4 -16.5 11t-20.5 -9q-12 -25 -26.5 -52.5t-24.5 -55.5 q-12 -29 -28.5 -61.5t-40.5 -57.5q-14 -16 -16.5 -10t0.5 19.5t8 29.5t8 20q12 31 27.5 62t35.5 59q8 10 7 20.5t-7 16.5t-14 5t-17 -15q-16 -29 -31.5 -60.5t-27.5 -60.5q-10 -25 -18.5 -57.5zM1569 -137h29v-29h-29v29zM1569 162v20h18v29h25v-29h18v-20h-18v-58 q0 -8 4 -9t8 -1l6 2v-23h-18q-25 0 -25 11v78h-18zM1618 -115q0 23 10.5 41t36.5 18q23 0 36 -12t13 -31h-28q0 4 -3.5 10.5t-15.5 6.5t-16 -9.5t-4 -19.5q0 -23 3 -29t17 -6q18 0 19 19h28q0 -6 -8 -23.5t-41 -17.5q-23 0 -35 11t-12 42zM1696 104q0 18 10 23.5t21 9.5 l26 4q10 0 11 8q0 12 -17 13q-6 0 -12 -2.5t-8 -14.5h-27q4 12 8 25.5t25 13.5h14q18 0 28.5 -5t12.5 -10t2 -12v-73q0 -4 8 -4v-7h-32v2v5q0 2 -1 4t-1 4q-4 -6 -10.5 -10.5t-8.5 -4.5l-8 -2h-8t-19.5 7.5t-13.5 25.5zM1711 1026q-1 4 2 11t12 9q16 2 12 18.5t-12 16.5 l24 37q10 -14 7 -39t-21 -43q-10 -12 -16.5 -13t-7.5 3zM1725 104q0 -12 14 -12h8q8 2 12.5 10t4.5 10v15q-6 -4 -13 -4l-12 -4q-4 0 -9 -4.5t-5 -10.5zM1727 -115q0 39 20.5 49t36.5 10q10 0 18.5 -4t22.5 -10q4 -6 8 -16.5t4 -28.5q0 -23 -13 -38t-40 -15q-35 0 -46 18.5 t-11 34.5zM1757 -115q0 -12 5.5 -21.5t21.5 -9.5q14 1 18 11q4 4 4.5 10t0.5 10q0 18 -4.5 25.5t-18.5 7.5q-18 0 -22.5 -9.5t-4.5 -23.5zM1762 827l4 -10l53 43l-21 2zM1772 915l26 -47l29 -2l117 92l-139 -4zM1805 162v20h12v29h28v-29h21v-20h-21v-58q0 -10 13 -10l8 2 v-23h-21q-16 0 -22 7.5t-6 15.5v66h-12zM1841 962l103 -4l41 31zM1848 1095q2 6 9 18.5t16 25t18.5 19.5t15.5 3t3 -12.5t-10 -17.5t-15.5 -16t-12.5 -9l-2 -2zM1858 -60h26v-16q10 20 31 20q12 0 18.5 -6t10.5 -12q2 4 10 11t21 7q10 0 19 -6t11 -14q6 -6 6 -16v-74h-28v63 q0 20 -17 21q-18 0 -18 -21v-63h-27v63q0 8 -3 14.5t-13 6.5q-20 0 -21 -19v-65h-26v106z" />
<glyph unicode="&#xbe;" horiz-adv-x="2365" d="M50 601.5q5 65.5 36.5 121t88 89t136.5 38t182 -36.5q-68 -39 -106.5 -94.5t-56 -115t-13.5 -118.5t23.5 -106.5t51.5 -76t73 -28.5q35 0 64.5 30.5t52 82t37 117t17.5 135t-7.5 136t-36.5 122.5l286 -13q41 -113 38 -229.5t-53 -210.5t-146.5 -154.5t-243.5 -60.5 q-115 0 -198 34t-134 87t-73.5 119.5t-17.5 132zM365.5 1197.5q19.5 65.5 77.5 121t154.5 90t229.5 30.5q123 -4 207 -49t123 -110.5t29.5 -141t-73 -139t-186 -105.5t-311.5 -42l-24 45q70 0 129 36.5t104 93t71.5 122t29.5 122t-20.5 93t-78.5 36.5q-53 0 -94 -29.5 t-69.5 -74.5t-47 -99.5t-25 -103.5t-2 -88t18.5 -51q-100 -4 -160.5 32t-81 91t-1 120.5zM688 0l760 1378h100l-758 -1378h-102zM1229 414q-14 47 8.5 124.5t79.5 194.5q33 66 68 134.5t65 123.5q35 66 70 127l324 43q-31 -57 -68 -125q-31 -59 -72 -138t-88 -171 q-94 -184 -126 -260t5 -76q39 0 95.5 24.5t117 66.5t114.5 95.5t87 112.5q25 45 47.5 70.5t38.5 42.5q20 16 37 24q-86 -141 -184 -252q-41 -47 -89.5 -92t-99.5 -79.5t-105.5 -56t-109.5 -21.5q-96 0 -148.5 20.5t-66.5 67.5zM1436 0l553 1126l323 43l-575 -1169h-301z" />
<glyph unicode="&#xbf;" horiz-adv-x="880" d="M-94 143q12 80 55 149q33 53 98.5 99.5t144.5 87.5t163 76.5t155.5 71.5t121 71t59.5 72h78q-25 -92 -84.5 -159t-134 -126.5t-155.5 -116.5t-147 -131q-61 -68 -93 -134.5t-32 -119.5t32 -88t97 -43q59 -10 106.5 8.5t79.5 51t47 74.5t10 79t-32.5 63.5t-81.5 28.5 q-6 35 13.5 66.5t55.5 51t82 23t91 -19.5q66 -31 93.5 -81t22.5 -105.5t-41 -109.5t-94.5 -96t-138 -65.5t-174.5 -15.5q-160 14 -250 65.5t-124.5 122t-22.5 150.5zM693 886q43 76 75.5 126t60 81t56.5 46.5t65.5 20.5t83.5 5h115q-51 -102 -86 -158.5t-79 -83t-110.5 -32 t-180.5 -5.5z" />
<glyph unicode="&#xc0;" horiz-adv-x="1073" d="M1 58.5q3 93.5 55.5 228.5t137.5 283.5t197.5 296t237.5 265t256 190.5t252 73q190 0 227.5 -92.5t-66.5 -313.5q-16 -33 -45.5 -91t-66.5 -131t-79 -155t-85 -161q-98 -188 -215 -406l-324 -45q43 78 90 168q41 76 91.5 173t103.5 200h-285q-59 -115 -108 -221.5 t-85 -189.5t-53.5 -135t-11.5 -58q-123 -47 -175 -9.5t-49 131zM514 600h283q63 119 116.5 224.5t87.5 170.5q92 186 128 268.5t-1 82.5q-63 0 -140 -66t-157.5 -171t-161.5 -238.5t-155 -270.5zM854 1612q47 72 105 90t122.5 5.5t130.5 -46t126 -67.5t111.5 -57.5 t86.5 -15.5q-57 -61 -138.5 -72.5t-172.5 8t-187 62.5t-184 93z" />
<glyph unicode="&#xc1;" horiz-adv-x="1073" d="M1 58.5q3 93.5 55.5 228.5t137.5 283.5t197.5 296t237.5 265t256 190.5t252 73q190 0 227.5 -92.5t-66.5 -313.5q-16 -33 -45.5 -91t-66.5 -131t-79 -155t-85 -161q-98 -188 -215 -406l-324 -45q43 78 90 168q41 76 91.5 173t103.5 200h-285q-59 -115 -108 -221.5 t-85 -189.5t-53.5 -135t-11.5 -58q-123 -47 -175 -9.5t-49 131zM514 600h283q63 119 116.5 224.5t87.5 170.5q92 186 128 268.5t-1 82.5q-63 0 -140 -66t-157.5 -171t-161.5 -238.5t-155 -270.5zM927 1511q35 -8 86.5 15.5t111.5 57.5t125.5 67.5t130 46t123 -7t105.5 -88.5 q-88 -49 -184 -92.5t-187.5 -63t-172.5 -8t-138 72.5z" />
<glyph unicode="&#xc2;" horiz-adv-x="1073" d="M1 58.5q3 93.5 55.5 228.5t137.5 283.5t197.5 296t237.5 265t256 190.5t252 73q190 0 227.5 -92.5t-66.5 -313.5q-16 -33 -45.5 -91t-66.5 -131t-79 -155t-85 -161q-98 -188 -215 -406l-324 -45q43 78 90 168q41 76 91.5 173t103.5 200h-285q-59 -115 -108 -221.5 t-85 -189.5t-53.5 -135t-11.5 -58q-123 -47 -175 -9.5t-49 131zM514 600h283q63 119 116.5 224.5t87.5 170.5q92 186 128 268.5t-1 82.5q-63 0 -140 -66t-157.5 -171t-161.5 -238.5t-155 -270.5zM848 1437l395 305h72l162 -317l-58 -39l-242 168l-299 -154z" />
<glyph unicode="&#xc3;" horiz-adv-x="1073" d="M1 58.5q3 93.5 55.5 228.5t137.5 283.5t197.5 296t237.5 265t256 190.5t252 73q190 0 227.5 -92.5t-66.5 -313.5q-16 -33 -45.5 -91t-66.5 -131t-79 -155t-85 -161q-98 -188 -215 -406l-324 -45q43 78 90 168q41 76 91.5 173t103.5 200h-285q-59 -115 -108 -221.5 t-85 -189.5t-53.5 -135t-11.5 -58q-123 -47 -175 -9.5t-49 131zM514 600h283q63 119 116.5 224.5t87.5 170.5q92 186 128 268.5t-1 82.5q-63 0 -140 -66t-157.5 -171t-161.5 -238.5t-155 -270.5zM891 1502q39 76 97.5 136t124 89t131 18.5t120.5 -77.5q47 -57 93.5 -60.5 t80.5 12.5q41 20 80 66l49 -41q-66 -76 -132 -130t-129.5 -77.5t-122 -9.5t-105.5 74q-47 57 -91 57t-77 -23q-39 -27 -72 -81z" />
<glyph unicode="&#xc4;" horiz-adv-x="1073" d="M1 58.5q3 93.5 55.5 228.5t137.5 283.5t197.5 296t237.5 265t256 190.5t252 73q190 0 227.5 -92.5t-66.5 -313.5q-16 -33 -45.5 -91t-66.5 -131t-79 -155t-85 -161q-98 -188 -215 -406l-324 -45q43 78 90 168q41 76 91.5 173t103.5 200h-285q-59 -115 -108 -221.5 t-85 -189.5t-53.5 -135t-11.5 -58q-123 -47 -175 -9.5t-49 131zM514 600h283q63 119 116.5 224.5t87.5 170.5q92 186 128 268.5t-1 82.5q-63 0 -140 -66t-157.5 -171t-161.5 -238.5t-155 -270.5zM830 1426q51 102 86 158.5t79 83t110.5 31.5t181.5 5q-43 -76 -76 -126 t-60.5 -80.5t-56.5 -46t-65.5 -20.5t-83.5 -5h-115zM1211 1434q51 102 86 158.5t79 83t110.5 31.5t181.5 5q-43 -76 -76 -126t-60.5 -80.5t-56.5 -46t-65.5 -20.5t-83.5 -5h-115z" />
<glyph unicode="&#xc5;" horiz-adv-x="1073" d="M1 58.5q3 93.5 55.5 228.5t137.5 283.5t197.5 296t237.5 265t256 190.5t252 73q190 0 227.5 -92.5t-66.5 -313.5q-16 -33 -45.5 -91t-66.5 -131t-79 -155t-85 -161q-98 -188 -215 -406l-324 -45q43 78 90 168q41 76 91.5 173t103.5 200h-285q-59 -115 -108 -221.5 t-85 -189.5t-53.5 -135t-11.5 -58q-123 -47 -175 -9.5t-49 131zM514 600h283q63 119 116.5 224.5t87.5 170.5q92 186 128 268.5t-1 82.5q-63 0 -140 -66t-157.5 -171t-161.5 -238.5t-155 -270.5zM1071 1624q0 92 60.5 150.5t152.5 58.5q41 0 79 -15.5t67 -43t46 -66.5 t17 -84q0 -43 -17 -80.5t-46 -67.5t-67 -47.5t-79 -17.5q-47 0 -85.5 17.5t-66.5 47.5t-44.5 67.5t-16.5 80.5zM1116 1622q0 -66 46.5 -116t119.5 -50q33 0 63 13.5t52.5 37t35.5 53t13 62.5q0 74 -49 119t-115 45q-74 0 -120 -45t-46 -119z" />
<glyph unicode="&#xc6;" horiz-adv-x="1593" d="M1 58.5q3 93.5 55.5 228.5t137.5 283.5t197.5 296t237.5 265t256 190.5t252 73q66 0 90 -49.5t24 -120t-16 -148.5t-35 -135l-88 16q31 63 47.5 130t16.5 122.5t-17.5 90t-50.5 34.5q-63 0 -137 -63.5t-151 -167t-154.5 -235.5t-151.5 -269h334l-41 -59h-324 q-59 -115 -108 -221.5t-85 -189.5t-53.5 -135t-11.5 -58q-123 -47 -175 -9.5t-49 131zM548.5 322.5q16.5 89.5 79 172.5t170 147.5t257.5 90.5q-39 53 -51.5 123t2 143.5t54.5 144t104.5 127t152.5 91.5t199 35t179 -47t98 -118t21.5 -151t-52.5 -146.5t-122.5 -105 t-187.5 -26.5q49 61 71.5 152.5t20.5 177.5t-28.5 146t-75.5 60q-33 0 -61.5 -29.5t-50 -78.5t-35 -110.5t-14.5 -125t11 -122t41 -101.5q-84 -18 -170 -78.5t-159.5 -141.5t-128 -169t-73 -163t4 -123t102.5 -48t140.5 37t103.5 93.5t69.5 125t38 134t8.5 118.5t-20 78 q147 0 221 -48t86.5 -120t-32.5 -155t-133.5 -154.5t-215 -119.5t-280.5 -48q-133 0 -215 48t-114 121.5t-15.5 163z" />
<glyph unicode="&#xc7;" horiz-adv-x="811" d="M5 440q13 125 61.5 255t129 255t184 222.5t225.5 157t255 59.5q111 0 167 -61.5t64.5 -151t-28.5 -190.5t-109.5 -182t-178 -124t-234.5 -16q57 47 109 114.5t94 143t72 150.5t43 134.5t9 97t-28 37.5q-47 0 -107.5 -55t-125 -146t-126 -208t-110.5 -238t-82 -237.5 t-36 -207.5t26.5 -146.5t103.5 -55.5q70 0 150.5 32t166.5 93t172 148.5t164 197.5q-84 -141 -175 -239.5t-181 -160t-173 -89t-151 -27.5q-139 0 -220 59.5t-112.5 156.5t-18.5 222zM90 -310q23 0 66.5 11.5t74.5 37t29 67.5t-74 105l2 3q16 23 30.5 50t26.5 50 q14 27 27 55l37 -12l-72 -143q113 -74 156 -136.5t21.5 -102.5t-104.5 -49t-220 27v37z" />
<glyph unicode="&#xc8;" horiz-adv-x="1054" d="M6.5 322.5q16.5 89.5 78.5 172.5t169.5 147.5t257.5 90.5q-39 53 -51 123t2 143.5t54 144t104.5 127t152.5 91.5t199 35t179.5 -47t98 -118t21.5 -151t-52 -146.5t-123 -105t-188 -26.5q49 61 72 152.5t20.5 177.5t-29 146t-75.5 60q-33 0 -61.5 -29.5t-50 -78.5 t-35 -110.5t-14.5 -125t11 -122t41 -101.5q-84 -18 -170 -78.5t-159.5 -141.5t-128 -169t-72.5 -163t4.5 -123t102.5 -48t140 37t103 93.5t70 125t38 134t8 118.5t-19 78q147 0 220.5 -48t86 -120t-32.5 -155t-133 -154.5t-215 -119.5t-281 -48q-133 0 -215 48t-113.5 121.5 t-15 163zM709 1573q47 72 105 90t122.5 5.5t130.5 -46t126 -67.5t111.5 -57.5t86.5 -15.5q-57 -61 -138.5 -72.5t-172.5 8t-187 62.5t-184 93z" />
<glyph unicode="&#xc9;" horiz-adv-x="1054" d="M6.5 322.5q16.5 89.5 78.5 172.5t169.5 147.5t257.5 90.5q-39 53 -51 123t2 143.5t54 144t104.5 127t152.5 91.5t199 35t179.5 -47t98 -118t21.5 -151t-52 -146.5t-123 -105t-188 -26.5q49 61 72 152.5t20.5 177.5t-29 146t-75.5 60q-33 0 -61.5 -29.5t-50 -78.5 t-35 -110.5t-14.5 -125t11 -122t41 -101.5q-84 -18 -170 -78.5t-159.5 -141.5t-128 -169t-72.5 -163t4.5 -123t102.5 -48t140 37t103 93.5t70 125t38 134t8 118.5t-19 78q147 0 220.5 -48t86 -120t-32.5 -155t-133 -154.5t-215 -119.5t-281 -48q-133 0 -215 48t-113.5 121.5 t-15 163zM792 1515q35 -8 86.5 15.5t111.5 57.5t125.5 67.5t130 46t123 -7t105.5 -88.5q-88 -49 -184 -92.5t-187.5 -63t-172.5 -8t-138 72.5z" />
<glyph unicode="&#xca;" horiz-adv-x="1054" d="M6.5 322.5q16.5 89.5 78.5 172.5t169.5 147.5t257.5 90.5q-39 53 -51 123t2 143.5t54 144t104.5 127t152.5 91.5t199 35t179.5 -47t98 -118t21.5 -151t-52 -146.5t-123 -105t-188 -26.5q49 61 72 152.5t20.5 177.5t-29 146t-75.5 60q-33 0 -61.5 -29.5t-50 -78.5 t-35 -110.5t-14.5 -125t11 -122t41 -101.5q-84 -18 -170 -78.5t-159.5 -141.5t-128 -169t-72.5 -163t4.5 -123t102.5 -48t140 37t103 93.5t70 125t38 134t8 118.5t-19 78q147 0 220.5 -48t86 -120t-32.5 -155t-133 -154.5t-215 -119.5t-281 -48q-133 0 -215 48t-113.5 121.5 t-15 163zM664 1421l395 305h72l162 -317l-58 -39l-242 168l-299 -154z" />
<glyph unicode="&#xcb;" horiz-adv-x="1054" d="M6.5 322.5q16.5 89.5 78.5 172.5t169.5 147.5t257.5 90.5q-39 53 -51 123t2 143.5t54 144t104.5 127t152.5 91.5t199 35t179.5 -47t98 -118t21.5 -151t-52 -146.5t-123 -105t-188 -26.5q49 61 72 152.5t20.5 177.5t-29 146t-75.5 60q-33 0 -61.5 -29.5t-50 -78.5 t-35 -110.5t-14.5 -125t11 -122t41 -101.5q-84 -18 -170 -78.5t-159.5 -141.5t-128 -169t-72.5 -163t4.5 -123t102.5 -48t140 37t103 93.5t70 125t38 134t8 118.5t-19 78q147 0 220.5 -48t86 -120t-32.5 -155t-133 -154.5t-215 -119.5t-281 -48q-133 0 -215 48t-113.5 121.5 t-15 163zM707 1420q51 102 86 158.5t79 83t110.5 31.5t181.5 5q-43 -76 -76 -126t-60.5 -80.5t-56.5 -46t-65.5 -20.5t-83.5 -5h-115zM1088 1428q51 102 86 158.5t79 83t110.5 31.5t181.5 5q-43 -76 -76 -126t-60.5 -80.5t-56.5 -46t-65.5 -20.5t-83.5 -5h-115z" />
<glyph unicode="&#xcc;" horiz-adv-x="598" d="M0 0l666 1354l321 43l-680 -1397h-307zM193.5 934q-13.5 49 5 114.5t76 128t153.5 111.5t238 66l26 -31q-49 -8 -93 -38t-81 -73t-65.5 -93t-47 -99t-28.5 -91t-10 -67q-70 -23 -115 0t-58.5 72zM508 1586q47 72 105 90t122.5 5.5t130.5 -46t126 -67.5t111.5 -57.5 t86.5 -15.5q-57 -61 -138.5 -72.5t-172.5 8t-187 62.5t-184 93z" />
<glyph unicode="&#xcd;" horiz-adv-x="598" d="M0 0l666 1354l321 43l-680 -1397h-307zM193.5 934q-13.5 49 5 114.5t76 128t153.5 111.5t238 66l26 -31q-49 -8 -93 -38t-81 -73t-65.5 -93t-47 -99t-28.5 -91t-10 -67q-70 -23 -115 0t-58.5 72zM540 1478q35 -8 86.5 15.5t111.5 57.5t125.5 67.5t130 46t123 -7 t105.5 -88.5q-88 -49 -184 -92.5t-187.5 -63t-172.5 -8t-138 72.5z" />
<glyph unicode="&#xce;" horiz-adv-x="598" d="M0 0l666 1354l321 43l-680 -1397h-307zM193.5 934q-13.5 49 5 114.5t76 128t153.5 111.5t238 66l26 -31q-49 -8 -93 -38t-81 -73t-65.5 -93t-47 -99t-28.5 -91t-10 -67q-70 -23 -115 0t-58.5 72zM531 1437l395 305h72l162 -317l-58 -39l-242 168l-299 -154z" />
<glyph unicode="&#xcf;" horiz-adv-x="598" d="M0 0l666 1354l321 43l-680 -1397h-307zM193.5 934q-13.5 49 5 114.5t76 128t153.5 111.5t238 66l26 -31q-49 -8 -93 -38t-81 -73t-65.5 -93t-47 -99t-28.5 -91t-10 -67q-70 -23 -115 0t-58.5 72zM496 1434q51 102 86 158.5t79 83t110.5 31.5t181.5 5q-43 -76 -76 -126 t-60.5 -80.5t-56.5 -46t-65.5 -20.5t-83.5 -5h-115zM877 1442q51 102 86 158.5t79 83t110.5 31.5t181.5 5q-43 -76 -76 -126t-60.5 -80.5t-56.5 -46t-65.5 -20.5t-83.5 -5h-115z" />
<glyph unicode="&#xd0;" horiz-adv-x="1470" d="M2 202q6 77 58.5 142.5t143.5 109.5t210 46q-94 -98 -135 -197.5t-29 -179.5t76.5 -129t179.5 -49q96 0 197.5 60.5t196.5 159.5t178 225t144.5 258t95.5 259t29.5 226.5t-52.5 160t-148 60.5q-162 0 -277.5 -73t-188.5 -177.5t-104.5 -221t-25.5 -204.5 q-121 8 -175 64.5t-49 135t66.5 168t169 166t259 127t337.5 50.5q166 0 264.5 -63.5t140.5 -168t29.5 -238t-70 -272.5t-155.5 -272t-229 -237.5t-291 -168t-340 -63.5q-186 0 -299 44t-163 109.5t-44 142.5zM348 78l563 1157l322 45l-563 -1157zM438 539l47 100h580 l-39 -100h-588z" />
<glyph unicode="&#xd1;" horiz-adv-x="1144" d="M0 0l659 1354l324 43l-682 -1397h-301zM66.5 865q-5.5 79 41 172t147.5 173t259 134.5t377 54.5h47.5t44.5 -2l-127 -43q-31 6 -70 6q-125 0 -213 -44t-147 -111.5t-92 -148.5t-47.5 -156t-14.5 -133t11 -79q-100 -4 -155.5 47t-61 130zM551 0q111 213 211 406 q43 82 87 166.5t85 163.5t75.5 145.5t57.5 113.5q47 92 72.5 155.5t35 103.5t3 58.5t-24.5 18.5q-39 0 -94 -42t-111.5 -103.5t-109 -132t-84.5 -127.5q-27 -45 -48.5 -72t-37.5 -41q-20 -18 -37 -25q6 10 33.5 59.5t70.5 117t98.5 143.5t117 140.5t126 106.5t127.5 42 q94 0 153.5 -20.5t80 -67.5t3 -125t-74.5 -195q-16 -33 -46 -91t-68 -131t-80 -155t-85 -161q-98 -188 -213 -406zM702 1522q39 76 97.5 136t124 89t131 18.5t120.5 -77.5q47 -57 93.5 -60.5t80.5 12.5q41 20 80 66l49 -41q-66 -76 -132 -130t-129.5 -77.5t-122 -9.5 t-105.5 74q-47 57 -91 57t-77 -23q-39 -27 -72 -81z" />
<glyph unicode="&#xd2;" horiz-adv-x="950" d="M4 235.5q-12 106.5 20.5 248t108.5 296.5q78 160 157 274.5t166 188.5t185 110t215 36q113 0 176.5 -55.5t77.5 -154t-18.5 -233.5t-108.5 -295q-74 -158 -152.5 -278.5t-169 -202.5t-196 -124t-229.5 -42q-104 0 -162 62.5t-70 169zM208 87q11 -38 48 -38q72 0 174 158 t262 489q162 332 190.5 488.5t-48.5 156.5q-37 0 -77 -29.5t-89.5 -100t-111.5 -190.5t-144 -298q-84 -178 -132.5 -306t-65.5 -210t-6 -120zM553 1596q47 72 105 90t122.5 5.5t130.5 -46t126 -67.5t111.5 -57.5t86.5 -15.5q-57 -61 -138.5 -72.5t-172.5 8t-187 62.5 t-184 93z" />
<glyph unicode="&#xd3;" horiz-adv-x="950" d="M4 235.5q-12 106.5 20.5 248t108.5 296.5q78 160 157 274.5t166 188.5t185 110t215 36q113 0 176.5 -55.5t77.5 -154t-18.5 -233.5t-108.5 -295q-74 -158 -152.5 -278.5t-169 -202.5t-196 -124t-229.5 -42q-104 0 -162 62.5t-70 169zM208 87q11 -38 48 -38q72 0 174 158 t262 489q162 332 190.5 488.5t-48.5 156.5q-37 0 -77 -29.5t-89.5 -100t-111.5 -190.5t-144 -298q-84 -178 -132.5 -306t-65.5 -210t-6 -120zM577 1525q35 -8 86.5 15.5t111.5 57.5t125.5 67.5t130 46t123 -7t105.5 -88.5q-88 -49 -184 -92.5t-187.5 -63t-172.5 -8 t-138 72.5z" />
<glyph unicode="&#xd4;" horiz-adv-x="950" d="M4 235.5q-12 106.5 20.5 248t108.5 296.5q78 160 157 274.5t166 188.5t185 110t215 36q113 0 176.5 -55.5t77.5 -154t-18.5 -233.5t-108.5 -295q-74 -158 -152.5 -278.5t-169 -202.5t-196 -124t-229.5 -42q-104 0 -162 62.5t-70 169zM208 87q11 -38 48 -38q72 0 174 158 t262 489q162 332 190.5 488.5t-48.5 156.5q-37 0 -77 -29.5t-89.5 -100t-111.5 -190.5t-144 -298q-84 -178 -132.5 -306t-65.5 -210t-6 -120zM580 1458l395 305h72l162 -317l-58 -39l-242 168l-299 -154z" />
<glyph unicode="&#xd5;" horiz-adv-x="950" d="M4 235.5q-12 106.5 20.5 248t108.5 296.5q78 160 157 274.5t166 188.5t185 110t215 36q113 0 176.5 -55.5t77.5 -154t-18.5 -233.5t-108.5 -295q-74 -158 -152.5 -278.5t-169 -202.5t-196 -124t-229.5 -42q-104 0 -162 62.5t-70 169zM208 87q11 -38 48 -38q72 0 174 158 t262 489q162 332 190.5 488.5t-48.5 156.5q-37 0 -77 -29.5t-89.5 -100t-111.5 -190.5t-144 -298q-84 -178 -132.5 -306t-65.5 -210t-6 -120zM610 1506q39 76 97.5 136t124 89t131 18.5t120.5 -77.5q47 -57 93.5 -60.5t80.5 12.5q41 20 80 66l49 -41q-66 -76 -132 -130 t-129.5 -77.5t-122 -9.5t-105.5 74q-47 57 -91 57t-77 -23q-39 -27 -72 -81z" />
<glyph unicode="&#xd6;" horiz-adv-x="950" d="M4 235.5q-12 106.5 20.5 248t108.5 296.5q78 160 157 274.5t166 188.5t185 110t215 36q113 0 176.5 -55.5t77.5 -154t-18.5 -233.5t-108.5 -295q-74 -158 -152.5 -278.5t-169 -202.5t-196 -124t-229.5 -42q-104 0 -162 62.5t-70 169zM208 87q11 -38 48 -38q72 0 174 158 t262 489q162 332 190.5 488.5t-48.5 156.5q-37 0 -77 -29.5t-89.5 -100t-111.5 -190.5t-144 -298q-84 -178 -132.5 -306t-65.5 -210t-6 -120zM569 1446q51 102 86 158.5t79 83t110.5 31.5t181.5 5q-43 -76 -76 -126t-60.5 -80.5t-56.5 -46t-65.5 -20.5t-83.5 -5h-115z M950 1454q51 102 86 158.5t79 83t110.5 31.5t181.5 5q-43 -76 -76 -126t-60.5 -80.5t-56.5 -46t-65.5 -20.5t-83.5 -5h-115z" />
<glyph unicode="&#xd7;" horiz-adv-x="851" d="M57 199l662 458l88 -63l-664 -457zM238 602l96 55l280 -464l-90 -60z" />
<glyph unicode="&#xd8;" horiz-adv-x="950" d="M-106 0l1218 1389h100l-1216 -1389h-102zM4 235.5q-12 106.5 20.5 248t108.5 296.5q78 160 157 274.5t166 188.5t185 110t215 36q113 0 176.5 -55.5t77.5 -154t-18.5 -233.5t-108.5 -295q-74 -158 -152.5 -278.5t-169 -202.5t-196 -124t-229.5 -42q-104 0 -162 62.5 t-70 169zM208 87q11 -38 48 -38q72 0 174 158t262 489q162 332 190.5 488.5t-48.5 156.5q-37 0 -77 -29.5t-89.5 -100t-111.5 -190.5t-144 -298q-84 -178 -132.5 -306t-65.5 -210t-6 -120z" />
<glyph unicode="&#xd9;" horiz-adv-x="968" d="M-7 865q-5 79 41 172t147.5 173t259 134.5t376.5 54.5h47.5t44.5 -2l-127 -43q-31 6 -69 6q-125 0 -213 -44t-147.5 -111.5t-92.5 -148.5t-47 -156t-14 -133t10 -79q-100 -4 -155.5 47t-60.5 130zM6 88q-14 47 8.5 126t79.5 194q16 33 46 91t68 130.5t80 155.5t85 163 q98 188 213 406l323 43q-115 -213 -213 -406q-43 -82 -87 -168t-84 -163.5t-74.5 -145.5t-57.5 -113q-94 -182 -124.5 -258.5t5.5 -76.5q37 0 81 40.5t89 102t86 132.5t74 130q25 45 47.5 71.5t38.5 43.5q20 18 37 24q-80 -172 -164 -305q-37 -57 -78 -112.5t-85 -98.5 t-89 -68.5t-88 -25.5q-96 0 -149.5 20.5t-67.5 67.5zM480.5 88q-17.5 47 8 126t82.5 194q16 33 46 91t68 130.5t81 155.5t84 163q98 188 211 406l323 43q-113 -213 -210 -406q-43 -82 -87.5 -168t-85 -163.5t-75.5 -145.5t-58 -113q-47 -92 -82.5 -165.5t-55 -126t-17.5 -81 t32 -28.5q-121 0 -184 20.5t-80.5 67.5zM648 1590q47 72 105 90t122.5 5.5t130.5 -46t126 -67.5t111.5 -57.5t86.5 -15.5q-57 -61 -138.5 -72.5t-172.5 8t-187 62.5t-184 93z" />
<glyph unicode="&#xda;" horiz-adv-x="968" d="M-7 865q-5 79 41 172t147.5 173t259 134.5t376.5 54.5h47.5t44.5 -2l-127 -43q-31 6 -69 6q-125 0 -213 -44t-147.5 -111.5t-92.5 -148.5t-47 -156t-14 -133t10 -79q-100 -4 -155.5 47t-60.5 130zM6 88q-14 47 8.5 126t79.5 194q16 33 46 91t68 130.5t80 155.5t85 163 q98 188 213 406l323 43q-115 -213 -213 -406q-43 -82 -87 -168t-84 -163.5t-74.5 -145.5t-57.5 -113q-94 -182 -124.5 -258.5t5.5 -76.5q37 0 81 40.5t89 102t86 132.5t74 130q25 45 47.5 71.5t38.5 43.5q20 18 37 24q-80 -172 -164 -305q-37 -57 -78 -112.5t-85 -98.5 t-89 -68.5t-88 -25.5q-96 0 -149.5 20.5t-67.5 67.5zM480.5 88q-17.5 47 8 126t82.5 194q16 33 46 91t68 130.5t81 155.5t84 163q98 188 211 406l323 43q-113 -213 -210 -406q-43 -82 -87.5 -168t-85 -163.5t-75.5 -145.5t-58 -113q-47 -92 -82.5 -165.5t-55 -126t-17.5 -81 t32 -28.5q-121 0 -184 20.5t-80.5 67.5zM712 1525q35 -8 86.5 15.5t111.5 57.5t125.5 67.5t130 46t123 -7t105.5 -88.5q-88 -49 -184 -92.5t-187.5 -63t-172.5 -8t-138 72.5z" />
<glyph unicode="&#xdb;" horiz-adv-x="968" d="M-7 865q-5 79 41 172t147.5 173t259 134.5t376.5 54.5h47.5t44.5 -2l-127 -43q-31 6 -69 6q-125 0 -213 -44t-147.5 -111.5t-92.5 -148.5t-47 -156t-14 -133t10 -79q-100 -4 -155.5 47t-60.5 130zM6 88q-14 47 8.5 126t79.5 194q16 33 46 91t68 130.5t80 155.5t85 163 q98 188 213 406l323 43q-115 -213 -213 -406q-43 -82 -87 -168t-84 -163.5t-74.5 -145.5t-57.5 -113q-94 -182 -124.5 -258.5t5.5 -76.5q37 0 81 40.5t89 102t86 132.5t74 130q25 45 47.5 71.5t38.5 43.5q20 18 37 24q-80 -172 -164 -305q-37 -57 -78 -112.5t-85 -98.5 t-89 -68.5t-88 -25.5q-96 0 -149.5 20.5t-67.5 67.5zM480.5 88q-17.5 47 8 126t82.5 194q16 33 46 91t68 130.5t81 155.5t84 163q98 188 211 406l323 43q-113 -213 -210 -406q-43 -82 -87.5 -168t-85 -163.5t-75.5 -145.5t-58 -113q-47 -92 -82.5 -165.5t-55 -126t-17.5 -81 t32 -28.5q-121 0 -184 20.5t-80.5 67.5zM715 1484l395 305h72l162 -317l-58 -39l-242 168l-299 -154z" />
<glyph unicode="&#xdc;" horiz-adv-x="968" d="M-7 865q-5 79 41 172t147.5 173t259 134.5t376.5 54.5h47.5t44.5 -2l-127 -43q-31 6 -69 6q-125 0 -213 -44t-147.5 -111.5t-92.5 -148.5t-47 -156t-14 -133t10 -79q-100 -4 -155.5 47t-60.5 130zM6 88q-14 47 8.5 126t79.5 194q16 33 46 91t68 130.5t80 155.5t85 163 q98 188 213 406l323 43q-115 -213 -213 -406q-43 -82 -87 -168t-84 -163.5t-74.5 -145.5t-57.5 -113q-94 -182 -124.5 -258.5t5.5 -76.5q37 0 81 40.5t89 102t86 132.5t74 130q25 45 47.5 71.5t38.5 43.5q20 18 37 24q-80 -172 -164 -305q-37 -57 -78 -112.5t-85 -98.5 t-89 -68.5t-88 -25.5q-96 0 -149.5 20.5t-67.5 67.5zM480.5 88q-17.5 47 8 126t82.5 194q16 33 46 91t68 130.5t81 155.5t84 163q98 188 211 406l323 43q-113 -213 -210 -406q-43 -82 -87.5 -168t-85 -163.5t-75.5 -145.5t-58 -113q-47 -92 -82.5 -165.5t-55 -126t-17.5 -81 t32 -28.5q-121 0 -184 20.5t-80.5 67.5zM705 1450q51 102 86 158.5t79 83t110.5 31.5t181.5 5q-43 -76 -76 -126t-60.5 -80.5t-56.5 -46t-65.5 -20.5t-83.5 -5h-115zM1086 1458q51 102 86 158.5t79 83t110.5 31.5t181.5 5q-43 -76 -76 -126t-60.5 -80.5t-56.5 -46 t-65.5 -20.5t-83.5 -5h-115z" />
<glyph unicode="&#xdd;" horiz-adv-x="1013" d="M2 59.5q6 67.5 36 134t81 126t116.5 100.5t143.5 55t162 -12q-35 -33 -78 -90.5t-86 -125t-79 -138t-56.5 -128t-20.5 -93t33 -35.5q18 0 48 20.5t72 72.5t95 139t121 222q33 68 72.5 148t81.5 166t85 174t84 170q94 190 193 389l324 43q-109 -227 -211 -439 q-43 -90 -90.5 -184t-91.5 -184t-83 -169t-69 -138q-123 -242 -283 -352.5t-358 -110.5q-92 0 -147.5 32.5t-78 86t-16.5 121zM48 865q-5 79 41 172t147.5 173t259 134.5t376.5 54.5h47.5t45.5 -2l-127 -43q-31 6 -70 6q-125 0 -213 -44t-147.5 -111.5t-92 -148.5t-47 -156 t-14.5 -133t10 -79q-100 -4 -155.5 47t-60.5 130zM350.5 649q-14.5 47 8 125t79.5 195q33 66 68 134t65 124q35 66 70 127l324 43q-31 -57 -68 -125q-31 -59 -72 -138t-88 -171q-94 -184 -125.5 -260t4.5 -76q39 0 83 41t88 102t86 132t75 130q25 45 47.5 70.5t38.5 42.5 q20 16 37 24q-80 -172 -164 -305q-37 -57 -78 -111.5t-85 -97.5t-89 -68.5t-90 -25.5q-96 0 -148 20.5t-66.5 67.5zM815 1519q35 -8 86.5 15.5t111.5 57.5t125.5 67.5t130 46t123 -7t105.5 -88.5q-88 -49 -184 -92.5t-187.5 -63t-172.5 -8t-138 72.5z" />
<glyph unicode="&#xde;" horiz-adv-x="1193" d="M1 671q-5 79 41 172t147.5 173t259 134t376.5 54q156 0 254.5 -41t148.5 -109.5t54 -154.5t-30.5 -177t-105.5 -177t-171.5 -154.5t-226 -109.5t-271.5 -41q-45 0 -54 7t1 14t30.5 14.5t37.5 7.5q78 0 164.5 65.5t161.5 163.5t127 212t63.5 212t-29.5 163.5t-154 65.5 q-125 0 -221 -44t-166.5 -111.5t-118 -148.5t-73 -155.5t-32.5 -133t3 -78.5q-100 -4 -155.5 47t-60.5 130zM55 0l658 1346l321 45l-674 -1391h-305z" />
<glyph unicode="&#xdf;" horiz-adv-x="901" d="M-201 -147q53 109 117 235q53 111 126 257.5t159 318.5q84 170 158.5 276.5t153.5 165.5t167 80.5t199 21.5q100 0 140 -55t31.5 -136t-57.5 -172t-123.5 -163t-168 -109.5t-191.5 -11.5q35 33 79 90.5t89 126t85 139t68.5 128t40 94.5t-3.5 37q-20 0 -55 -26t-81 -83 t-103 -152.5t-125 -232.5q-68 -141 -135.5 -280.5t-122.5 -251.5q-66 -131 -125 -254zM180 358.5q-2 8.5 7.5 33t33.5 71.5q33 63 86 92t108.5 37t104 4t68.5 -4q70 0 125 -17.5t83.5 -58.5t23.5 -107.5t-54 -164.5q-14 -27 -36.5 -59.5t-48.5 -61.5t-50.5 -51.5 t-42.5 -28.5q53 0 113.5 35t115.5 87t101.5 113.5t70.5 114.5q-47 -98 -110 -180q-53 -72 -133 -136.5t-183 -86.5q-35 -8 -78 -8t-84 4t-75.5 12t-55.5 18q18 10 44 30t55.5 54.5t63.5 87t71 127.5q63 129 57 185.5t-55 56.5q-47 0 -84 -12.5t-64 -26.5q-31 -16 -55 -37 q-55 -72 -88 -104q-14 -14 -23.5 -20.5t-11.5 2z" />
<glyph unicode="&#xe0;" horiz-adv-x="911" d="M-4 214q2 91 46 196.5t122 196.5t186.5 151.5t237.5 60.5q72 0 121 -27.5t77 -62.5q35 -39 52 -90l-33 -12q-14 37 -37 65q-18 25 -44 45.5t-54 20.5q-53 0 -112.5 -49.5t-115 -123t-100.5 -159.5t-68.5 -159.5t-21.5 -123t43 -49.5q18 0 41.5 21.5t49.5 55.5t53.5 78 t54.5 91q61 109 129 246q-8 -33 -25.5 -88.5t-45.5 -121t-63.5 -132t-82 -120.5t-101.5 -88t-121 -34q-100 0 -145 60.5t-43 151.5zM428 139.5q8 59.5 41 132t66 138.5q31 66 62.5 130t57.5 117q31 61 58 117l323 45q-27 -51 -57 -117q-29 -55 -64.5 -130.5t-83.5 -168.5 q-47 -92 -74.5 -152.5t-39.5 -96t-8 -50t22 -14.5q35 0 82 47t88 105q49 68 100 151q-45 -111 -108 -196q-27 -37 -59.5 -72t-72.5 -62.5t-86 -44t-97 -16.5q-96 0 -127 39t-23 98.5zM478 1174q47 72 105 90t122.5 5.5t130.5 -46t126 -67.5t111.5 -57.5t86.5 -15.5 q-57 -61 -138.5 -72.5t-172.5 8t-187 62.5t-184 93z" />
<glyph unicode="&#xe1;" horiz-adv-x="911" d="M-4 214q2 91 46 196.5t122 196.5t186.5 151.5t237.5 60.5q72 0 121 -27.5t77 -62.5q35 -39 52 -90l-33 -12q-14 37 -37 65q-18 25 -44 45.5t-54 20.5q-53 0 -112.5 -49.5t-115 -123t-100.5 -159.5t-68.5 -159.5t-21.5 -123t43 -49.5q18 0 41.5 21.5t49.5 55.5t53.5 78 t54.5 91q61 109 129 246q-8 -33 -25.5 -88.5t-45.5 -121t-63.5 -132t-82 -120.5t-101.5 -88t-121 -34q-100 0 -145 60.5t-43 151.5zM428 139.5q8 59.5 41 132t66 138.5q31 66 62.5 130t57.5 117q31 61 58 117l323 45q-27 -51 -57 -117q-29 -55 -64.5 -130.5t-83.5 -168.5 q-47 -92 -74.5 -152.5t-39.5 -96t-8 -50t22 -14.5q35 0 82 47t88 105q49 68 100 151q-45 -111 -108 -196q-27 -37 -59.5 -72t-72.5 -62.5t-86 -44t-97 -16.5q-96 0 -127 39t-23 98.5zM501 1083q35 -8 86.5 15.5t111.5 57.5t125.5 67.5t130 46t123 -7t105.5 -88.5 q-88 -49 -184 -92.5t-187.5 -63t-172.5 -8t-138 72.5z" />
<glyph unicode="&#xe2;" horiz-adv-x="911" d="M-4 214q2 91 46 196.5t122 196.5t186.5 151.5t237.5 60.5q72 0 121 -27.5t77 -62.5q35 -39 52 -90l-33 -12q-14 37 -37 65q-18 25 -44 45.5t-54 20.5q-53 0 -112.5 -49.5t-115 -123t-100.5 -159.5t-68.5 -159.5t-21.5 -123t43 -49.5q18 0 41.5 21.5t49.5 55.5t53.5 78 t54.5 91q61 109 129 246q-8 -33 -25.5 -88.5t-45.5 -121t-63.5 -132t-82 -120.5t-101.5 -88t-121 -34q-100 0 -145 60.5t-43 151.5zM428 139.5q8 59.5 41 132t66 138.5q31 66 62.5 130t57.5 117q31 61 58 117l323 45q-27 -51 -57 -117q-29 -55 -64.5 -130.5t-83.5 -168.5 q-47 -92 -74.5 -152.5t-39.5 -96t-8 -50t22 -14.5q35 0 82 47t88 105q49 68 100 151q-45 -111 -108 -196q-27 -37 -59.5 -72t-72.5 -62.5t-86 -44t-97 -16.5q-96 0 -127 39t-23 98.5zM465 995l395 305h72l162 -317l-58 -39l-242 168l-299 -154z" />
<glyph unicode="&#xe3;" horiz-adv-x="911" d="M-4 214q2 91 46 196.5t122 196.5t186.5 151.5t237.5 60.5q72 0 121 -27.5t77 -62.5q35 -39 52 -90l-33 -12q-14 37 -37 65q-18 25 -44 45.5t-54 20.5q-53 0 -112.5 -49.5t-115 -123t-100.5 -159.5t-68.5 -159.5t-21.5 -123t43 -49.5q18 0 41.5 21.5t49.5 55.5t53.5 78 t54.5 91q61 109 129 246q-8 -33 -25.5 -88.5t-45.5 -121t-63.5 -132t-82 -120.5t-101.5 -88t-121 -34q-100 0 -145 60.5t-43 151.5zM428 139.5q8 59.5 41 132t66 138.5q31 66 62.5 130t57.5 117q31 61 58 117l323 45q-27 -51 -57 -117q-29 -55 -64.5 -130.5t-83.5 -168.5 q-47 -92 -74.5 -152.5t-39.5 -96t-8 -50t22 -14.5q35 0 82 47t88 105q49 68 100 151q-45 -111 -108 -196q-27 -37 -59.5 -72t-72.5 -62.5t-86 -44t-97 -16.5q-96 0 -127 39t-23 98.5zM434 1053q39 76 97.5 136t124 89t131 18.5t120.5 -77.5q47 -57 93.5 -60.5t80.5 12.5 q41 20 80 66l49 -41q-66 -76 -132 -130t-129.5 -77.5t-122 -9.5t-105.5 74q-47 57 -91 57t-77 -23q-39 -27 -72 -81z" />
</font>
</defs>
</svg>
